<?xml version="1.0" encoding="UTF-8"?>
<svg viewBox="0 0 143 125" version="1.1" xmlns="http://www.w3.org/2000/svg"
     xmlns:xlink="http://www.w3.org/1999/xlink">
    <title>02</title>
    <g id="Page-1" stroke="none" stroke-width="1" fill="none" fill-rule="evenodd">
        <g id="Artboard" transform="translate(-498.000000, -282.000000)" fill="#FFFFFF" stroke="#000000">
            <g id="02" transform="translate(498.579406, 282.864327)">
                <path d="M73.1670113,1.69350557 C85.9500253,-1.07514554 100.255686,0.910952927 113.055167,8.30073643 C125.854647,15.6905199 134.727489,27.0865364 138.721274,39.5412768 C142.707454,51.9723012 141.831431,65.4587845 135.137526,77.0529685 C128.44362,88.6471525 117.201995,96.1490524 104.443322,98.9124315 C91.6603079,101.681083 77.3546471,99.6949841 64.5551666,92.3052006 C51.7556861,84.9154171 42.882844,73.5194007 38.8890592,61.0646602 C34.9028792,48.6336358 35.7789022,35.1471525 42.4728075,23.5529685 C49.1667128,11.9587845 60.4083384,4.45688467 73.1670113,1.69350557 Z"
                      id="Oval"></path>
                <path d="M62.1670113,8.69350557 C74.9500253,5.92485446 89.2556861,7.91095293 102.055167,15.3007364 C114.854647,22.6905199 123.727489,34.0865364 127.721274,46.5412768 C131.707454,58.9723012 130.831431,72.4587845 124.137526,84.0529685 C117.44362,95.6471525 106.201995,103.149052 93.4433219,105.912431 C80.6603079,108.681083 66.3546471,106.694984 53.5551666,99.3052006 C40.7556861,91.9154171 31.882844,80.5194007 27.8890592,68.0646602 C23.9028792,55.6336358 24.7789022,42.1471525 31.4728075,30.5529685 C38.1667128,18.9587845 49.4083384,11.4568847 62.1670113,8.69350557 Z"
                      id="Oval"></path>
                <path d="M50.1670113,15.6935056 C62.9500253,12.9248545 77.2556861,14.9109529 90.0551666,22.3007364 C102.854647,29.6905199 111.727489,41.0865364 115.721274,53.5412768 C119.707454,65.9723012 118.831431,79.4587845 112.137526,91.0529685 C105.44362,102.647153 94.2019948,110.149052 81.4433219,112.912431 C68.6603079,115.681083 54.3546471,113.694984 41.5551666,106.305201 C28.7556861,98.9154171 19.882844,87.5194007 15.8890592,75.0646602 C11.9028792,62.6336358 12.7789022,49.1471525 19.4728075,37.5529685 C26.1667128,25.9587845 37.4083384,18.4568847 50.1670113,15.6935056 Z"
                      id="Oval"></path>
                <path d="M37.1670113,24.6935056 C49.9500253,21.9248545 64.2556861,23.9109529 77.0551666,31.3007364 C89.8546471,38.6905199 98.7274892,50.0865364 102.721274,62.5412768 C106.707454,74.9723012 105.831431,88.4587845 99.1375257,100.052969 C92.4436205,111.647153 81.2019948,119.149052 68.4433219,121.912431 C55.6603079,124.681083 41.3546471,122.694984 28.5551666,115.305201 C15.7556861,107.915417 6.882844,96.5194007 2.88905918,84.0646602 C-1.09712076,71.6336358 -0.221097752,58.1471525 6.4728075,46.5529685 C13.1667128,34.9587845 24.4083384,27.4568847 37.1670113,24.6935056 Z"
                      id="Oval"></path>
            </g>
        </g>
    </g>
</svg>
