<?xml version="1.0" encoding="UTF-8"?>
<svg width="136px" height="136px" viewBox="0 0 136 136" version="1.1" xmlns="http://www.w3.org/2000/svg" xmlns:xlink="http://www.w3.org/1999/xlink">
    <title>icon2</title>
    <defs>
        <linearGradient x1="16.7021865%" y1="0%" x2="38.3298038%" y2="100%" id="linearGradient-1">
            <stop stop-color="#D9D9D9" offset="0%"></stop>
            <stop stop-color="#F8F8F8" offset="47.5511222%"></stop>
            <stop stop-color="#FCFCFC" stop-opacity="0" offset="100%"></stop>
        </linearGradient>
        <linearGradient x1="50%" y1="0%" x2="50%" y2="100%" id="linearGradient-2">
            <stop stop-color="#000000" stop-opacity="0.7" offset="0%"></stop>
            <stop stop-color="#000000" stop-opacity="0" offset="100%"></stop>
        </linearGradient>
        <linearGradient x1="50%" y1="0%" x2="50%" y2="100%" id="linearGradient-3">
            <stop stop-color="#000000" stop-opacity="0.7" offset="0%"></stop>
            <stop stop-color="#000000" stop-opacity="0.256173514" offset="100%"></stop>
        </linearGradient>
        <linearGradient x1="50%" y1="0%" x2="50%" y2="99.1668488%" id="linearGradient-4">
            <stop stop-color="#000000" offset="0%"></stop>
            <stop stop-color="#7C7C7C" offset="100%"></stop>
        </linearGradient>
    </defs>
    <g id="Page-1" stroke="none" stroke-width="1" fill="none" fill-rule="evenodd">
        <g id="HOME-202311" transform="translate(-652.000000, -728.000000)">
            <g id="Group-10" transform="translate(0.000000, 693.000000)">
                <g id="Group-5-Copy-2" transform="translate(528.000000, 0.000000)">
                    <g id="icon2" transform="translate(125.074362, 36.060000)">
                        <ellipse id="椭圆形" stroke="url(#linearGradient-2)" fill-opacity="0.56" fill="url(#linearGradient-1)" fill-rule="nonzero" cx="66.9256382" cy="67" rx="66.9256382" ry="67"></ellipse>
                        <ellipse id="椭圆形" stroke="url(#linearGradient-3)" fill="#F1F1F1" fill-rule="nonzero" cx="14.9256382" cy="24.9566667" rx="7" ry="7.00777778"></ellipse>
                        <g id="Group" transform="translate(0.275638, 1.065000)">
                            <path d="M103,86.875 C103,76.9338745 91.3594035,68.875 77,68.875 C67.7075433,68.875 59.5750847,72.2721118 54.9776825,77.3480238" id="Path" stroke="#979797"></path>
                            <path d="M29.15,70.475 C30.4754834,70.475 31.55,71.5495166 31.55,72.875 L31.55,74.225 L47.991,74.224 L68.6171638,81.725 L85.4,81.725 C88.7965513,81.725 91.5500001,84.4784488 91.5500001,87.875 C91.5500001,88.0495509 91.5427624,88.2230624 91.5283792,88.3952746 L91.3618845,90.3887303 L119.341,81.728 L119.375461,81.729056 C122.592746,81.8449968 125.180003,84.4322536 125.295944,87.6495391 L125.298,87.805 L125.270288,88.0429558 C125.071042,89.4376666 124.449985,90.7384254 123.49067,91.7702355 L123.34,91.925 L123.05,92.137 L76.153,116.524 L72.185,116.524 L40.3106202,105.275 L31.55,105.275 L31.55,106.625 L31.5444631,106.789319 C31.4600212,108.038161 30.4202549,109.025 29.15,109.025 L15,109.024 L15,107.975 L28.7,107.975 C29.6941126,107.975 30.5,107.169113 30.5,106.175 L30.5,73.3249999 C30.499941,72.3309105 29.6940895,71.5250326 28.7,71.524941 L0,71.524 L0,71.524 L0,70.475 L29.15,70.475 Z M47.8078809,75.2750162 L31.55,75.273908 L31.55,104.225 L40.486,104.224 L72.3643798,115.475 L75.8975328,115.475 L122.568835,91.2051648 L122.722772,91.0447623 C123.496813,90.238212 124.019342,89.2237902 124.226596,88.1252875 L124.25,88.001238 L124.25,87.875 C124.25,85.1951258 122.175463,82.972509 119.5019,82.7875925 L119.2485,82.7700661 L90.0733597,91.8878276 L89.83341,92.1373336 C88.6802797,93.3363888 87.0966675,94.025 85.4,94.025 L64.775,94.025 L64.5594159,94.0294741 C62.3431919,94.1216349 60.4922727,95.6281115 59.8855593,97.6700026 L59.856,97.774 L58.773,97.774 L58.8169366,97.5945707 C59.49719,94.9384469 61.9068012,92.975 64.775,92.975 L85.4,92.975 L85.6423863,92.9692572 C87.090219,92.9007902 88.4157818,92.2238203 89.3198948,91.1373109 L89.415,91.016 L89.4641787,91.0040985 L89.767,90.508 L90.0585477,90.0400417 L90.041,89.985 L90.1273908,89.7897905 C90.3711739,89.1882989 90.49938,88.540262 90.49938,87.875 L90.4949068,87.6594408 C90.3819608,84.9430901 88.1443327,82.7754538 85.4002232,82.775 L68.43,82.774 L47.8078809,75.2750162 Z" id="Shape" fill="#979797" fill-rule="nonzero"></path>
                            <polygon id="Path" fill="#979797" fill-rule="nonzero" points="22.1499999 100.875 24.1499999 100.875 24.1499999 102.875 22.1499999 102.875"></polygon>
                            <polygon id="Path" fill="#979797" fill-rule="nonzero" points="15.15 100.875 17.15 100.875 17.15 102.875 15.15 102.875"></polygon>
                            <path d="M61.0053241,44.759459 C61.0053241,44.759459 66.6500001,50.4750425 70.4,54.125 C74.15,57.7749575 76.025,59.9807533 76.025,69.125" id="Path-2" stroke="#979797"></path>
                            <path d="M76.025,29.75 C76.025,56 76.025,69.125 76.025,69.125" id="Path-3" stroke="#979797"></path>
                            <path d="M91.0612246,29.75 C86.6529542,33.9228933 83.2419455,37.1394558 80.8281985,39.3996875 C77.2075781,42.7900351 76.025,46.6250001 76.025,50.375" id="Path-4" stroke="#979797"></path>
                            <path d="M97.3464286,38 C90.0069798,37.6364822 84.1385178,31.7680203 83.775,24.4285715 C83.775,13.1317143 99.1894285,0 119.060714,0 L121.775,0 L121.775,2.71428567 C121.775,22.5855713 108.643286,38 97.3464286,38 Z" id="Path" stroke="#979797" fill="#FFFFFF" fill-rule="nonzero"></path>
                            <path d="M61.5607143,56 C52.6421428,56 42.275,43.8307143 42.275,28.1428572 L42.275,26 L44.4178571,26 C60.1057143,26 72.275,36.3671429 72.275,45.2857143 C71.9880123,51.080016 67.3550159,55.7130123 61.5607143,56 L61.5607143,56 Z" id="Path" fill="url(#linearGradient-4)" fill-rule="nonzero"></path>
                        </g>
                    </g>
                </g>
            </g>
        </g>
    </g>
</svg>