<?xml version="1.0" encoding="UTF-8"?>
<svg width="100px" height="100px" preserveAspectRatio="xMidYMid meet" viewBox="0 0 120 140" version="1.1" xmlns="http://www.w3.org/2000/svg">
    <title>软件选型</title>
    <defs>
        <linearGradient id="grad1" x1="0%" y1="0%" x2="100%" y2="100%">
            <stop offset="0%" stop-color="#D9D9D9" />
            <stop offset="100%" stop-color="#F8F8F8" />
        </linearGradient>
    </defs>
    <g id="Page-1" stroke="none" stroke-width="1" fill="none" fill-rule="evenodd">
        <g id="Group" transform="translate(0.000000, 0.000000)">
            <polygon id="Rectangle" fill="#E2E2E2" points="20 60 100 60 100 100 20 100" />
            <polygon id="Rectangle" fill="#D8D8D8" points="20 40 100 40 80 60 40 60" />
            <path d="M20,40 L20,100" stroke="#979797" stroke-width="0.5" stroke-dasharray="1,2" />
            <path d="M100,40 L100,100" stroke="#979797" stroke-width="0.5" stroke-dasharray="1,2" />
            <path d="M40,60 L80,60" stroke="#979797" stroke-width="0.5" stroke-dasharray="1,2" />
            <ellipse cx="20" cy="60" rx="4" ry="4" fill="#484848" />
            <ellipse cx="100" cy="60" rx="4" ry="4" fill="#484848" />
            <ellipse cx="60" cy="40" rx="4" ry="4" fill="#484848" />
            <ellipse cx="60" cy="100" rx="4" ry="4" fill="#484848" />
            <path d="M60 40 L75 25 L60 10 L45 25 Z" fill="url(#grad1)" stroke="#979797" stroke-width="0.5" />
        </g>
    </g>
</svg>
