<?xml version="1.0" standalone="no"?><!DOCTYPE svg PUBLIC "-//W3C//DTD SVG 1.1//EN" "http://www.w3.org/Graphics/SVG/1.1/DTD/svg11.dtd"><svg class="icon" width="200px" height="200.00px" viewBox="0 0 1024 1024" version="1.1" xmlns="http://www.w3.org/2000/svg"><path d="M740.4 582.6V98.3H101.1v639.3l459.3-0.2" fill="#C1C1C1" /><path d="M65.1 773.6V62.3h711.3v520.3h-72V134.3H137.1v567.3l423.3-0.2 0.1 72z" fill="#C1C1C1" /><path d="M962.1 62.3h-72v36h72v-36z m-144 0h-72v36h72v-36z m-144 0h-72v36h72v-36z m-144 0h-72v36h72v-36z m-144 0h-72v36h72v-36z m-144 0h-72v36h72v-36z m-141 0h-36v39h36v-39z m0 111h-36v72h36v-72z m0 144h-36v72h36v-72z m0 144h-36v72h36v-72z m0 144h-36v72h36v-72z m0 144h-36v72h36v-72z m0 144h-36v66h36v-66z m113.9 30h-72v36h72v-36z m144 0h-72v36h72v-36z m144 0h-72v36h72v-36z m144 0h-72v36h72v-36z m144 0h-72v36h72v-36z m144 0h-72v36h72v-36z m27.1-80.9h-36v72h36v-72z m0-144h-36v72h36v-72z m0-144h-36v72h36v-72z m0-144h-36v72h36v-72z m0-144h-36v72h36v-72z m0-144h-36v72h36v-72z" fill="#3C3C3C" /><path d="M686.4 770.5L584.9 871.9 406.7 405.3l466.6 178.3L771.8 685l163.4 163.5-85.4 85.4z" fill="#FFFFFF" /><path d="M437.8 436.5l403.1 154-69.1 69.1-25.5 25.4 25.5 25.5 138 138-60 60-138-138-25.4-25.5-25.5 25.5-69.1 69.1-154-403.1m-62.3-62.4L578 904.3l108.4-108.4 163.4 163.4 110.9-110.9L797.3 685l108.4-108.4-530.2-202.5z" fill="#3C3C3C" /></svg>