<svg viewBox="0 0 450 411" fill="none" xmlns="http://www.w3.org/2000/svg" >
    <g id="9060da63f57e419732b39ade83a52119">
        <rect width="450" height="411" ></rect>
        <path id="46eb2d91d5ca87a90ca0acb545ed28ae"
              d="M386.169 168.25L162.734 39.25C138.581 25.3048 107.695 33.5805 93.75 57.7343C79.8048 81.8881 88.0805 112.773 112.234 126.719L335.669 255.719C359.823 269.664 390.708 261.388 404.653 237.234C418.598 213.081 410.323 182.195 386.169 168.25Z"
              fill="white" stroke="black"></path>
        <path id="e13321bcc9fd21b7696883fa76c08195"
              d="M386.169 168.25L162.734 39.25C138.581 25.3048 107.695 33.5805 93.75 57.7343C79.8048 81.8881 88.0805 112.773 112.234 126.719L335.669 255.719C359.823 269.664 390.708 261.388 404.653 237.234C418.598 213.081 410.323 182.195 386.169 168.25Z"
              fill="white" stroke="black"></path>
        <path id="a453761218777b011c5b985c20bced2e"
              d="M386.169 168.25L162.734 39.25C138.581 25.3048 107.695 33.5805 93.75 57.7343C79.8048 81.8881 88.0805 112.773 112.234 126.719L335.669 255.719C359.823 269.664 390.708 261.388 404.653 237.234C418.598 213.081 410.323 182.195 386.169 168.25Z"
              fill="white" stroke="black" ></path>
        <path id="65616b13c4e0db0265bebfe13069b9ea"
              d="M386.169 168.25L162.734 39.25C138.581 25.3048 107.695 33.5805 93.75 57.7343C79.8048 81.8881 88.0805 112.773 112.234 126.719L335.669 255.719C359.823 269.664 390.708 261.388 404.653 237.234C418.598 213.081 410.323 182.195 386.169 168.25Z"
              fill="#FFDA83" stroke="black"></path>
    </g>
</svg>