<?xml version="1.0" encoding="UTF-8"?>
<svg width="210px" height="165px" viewBox="0 0 210 165" version="1.1" xmlns="http://www.w3.org/2000/svg" xmlns:xlink="http://www.w3.org/1999/xlink">
    <title>01</title>
    <g id="Page-1" stroke="none" stroke-width="1" fill="none" fill-rule="evenodd">
        <g id="Artboard" transform="translate(-158.000000, -262.000000)" fill="#FFFFFF" stroke="#000000">
            <path d="M196.596934,264.888041 C209.080634,261.543044 222.840407,262.960418 234.917296,269.933013 L234.917296,269.933013 L341.43842,331.433013 C353.515309,338.405608 361.622677,349.613234 364.967674,362.096934 C368.312672,374.580634 366.895298,388.340407 359.922703,400.417296 C352.950108,412.494184 341.742482,420.601553 329.258782,423.94655 C316.775082,427.291547 303.015309,425.874173 290.93842,418.901578 L290.93842,418.901578 L184.417296,357.401578 C172.340407,350.428984 164.233039,339.221357 160.888041,326.737657 C157.543044,314.253958 158.960418,300.494184 165.933013,288.417296 C172.905608,276.340407 184.113234,268.233039 196.596934,264.888041 Z" id="01"></path>
        </g>
    </g>
</svg>