<?xml version="1.0" encoding="UTF-8"?>
<svg width="32px" height="32px" viewBox="0 0 32 32" version="1.1" xmlns="http://www.w3.org/2000/svg" xmlns:xlink="http://www.w3.org/1999/xlink">
    <title>logo-blog</title>
    <g id="Page-1" stroke="none" stroke-width="1" fill="none" fill-rule="evenodd">
        <g id="Menus" transform="translate(-623.000000, -496.000000)">
            <g id="menu" transform="translate(599.000000, 80.000000)">
                <g id="logo-blog" transform="translate(24.000000, 416.000000)">
                    <circle id="Oval" fill="#C050F5" cx="16" cy="16" r="16"></circle>
                    <path d="M12.6260243,19.36806 C13.013796,19.7547833 13.2498565,20.2802727 13.2517241,20.8650139 C13.2498309,21.4488342 13.013796,21.9742979 12.627892,22.359256 L12.6259988,22.3597165 C12.2401971,22.7450328 11.7110245,22.9806843 11.1240072,22.9806843 C10.5360434,22.9806843 10.0096083,22.7441885 9.62285997,22.359256 C9.23790254,21.9743235 9,21.4492947 9,20.8650139 C9,20.2802727 9.23790251,19.7538367 9.62285997,19.3675739 L9.62285997,19.3680344 C10.0096083,18.983102 10.5360434,18.7451991 11.1240072,18.7451991 C11.7110756,18.7451991 12.2402226,18.9831275 12.6260243,19.36806 Z M9.00181642,12.4408105 L9.00181642,15.4954029 C10.995347,15.49681 12.8833193,16.280439 14.293491,17.6942459 C15.7064769,19.1039082 16.4855252,20.9931372 16.4891837,22.9945251 L16.4891837,22.9945251 L16.4891837,22.9999744 L19.558533,22.9999744 C19.5557956,20.0892136 18.3724486,17.4535032 16.4597369,15.5399953 C14.5479718,13.6263851 11.9113446,12.4422176 9.00181642,12.4408105 Z M9.0064215,7 L9.0064215,10.0536714 C16.1364105,10.0587626 21.9314694,15.8633478 21.9379676,23 L25,23 C24.9981068,18.5899315 23.2048708,14.5937563 20.3082624,11.6939965 C17.4106562,8.7955414 13.4161503,7.0018676 9.0064215,7 Z" id="Shape" fill="#FFFFFF" fill-rule="nonzero"></path>
                </g>
            </g>
        </g>
    </g>
</svg>