<?xml version="1.0" encoding="UTF-8"?>
<svg width="14px" height="14px" viewBox="0 0 14 14" version="1.1" xmlns="http://www.w3.org/2000/svg" xmlns:xlink="http://www.w3.org/1999/xlink">
    <title>chaoss</title>
    <g id="Page-1" stroke="none" stroke-width="1" fill="none" fill-rule="evenodd">
        <g id="Project" transform="translate(-234.000000, -495.000000)" fill-rule="nonzero">
            <g id="left" transform="translate(0.000000, 136.000000)">
                <g id="Group-2-Copy" transform="translate(24.000000, 328.000000)">
                    <g id="chaoss" transform="translate(210.000000, 31.000000)">
                        <path d="M5.29821005,2.401991 C6.39430676,1.99508598 7.60001313,1.98901277 8.70219926,2.38984458 L9.76784884,0.555735382 C8.00191526,-0.191269359 6.00458348,-0.18519615 4.23864991,0.57395501 L5.29821005,2.401991 Z" id="Path" fill="#1C9BD6"></path>
                        <path d="M11.2354005,1.39991147 L10.1758404,3.23402067 C11.0770755,3.98102541 11.6799286,5.02561741 11.8747903,6.17952717 L14,6.17952717 C13.7686018,4.27861267 12.7760253,2.54774803 11.2354005,1.39991147 Z" id="Path" fill="#6AC7B9"></path>
                        <path d="M11.8626114,7.87395256 C11.3815468,10.5400914 8.82398779,12.3073953 6.15072971,11.8276118 C5.31038891,11.6757816 4.51876351,11.3053158 3.86719491,10.758727 L2.23522871,12.1191258 C5.07290129,14.7548987 9.51209294,14.6030684 12.1549039,11.7729529 C13.1596592,10.6979949 13.7990489,9.33152279 13.9878211,7.87395256 L11.8626114,7.87395256 L11.8626114,7.87395256 Z" id="Path" fill="#BF9CC9"></path>
                        <path d="M2.77109821,9.46513339 C1.57148126,7.41238866 2.02209879,4.80090867 3.83674778,3.26438672 L2.77718763,1.42420431 C-0.157915764,3.6469989 -0.870378621,7.75248838 1.139132,10.8255323 L2.77109821,9.46513339 Z" id="Path" fill="#D61D5F"></path>
                    </g>
                </g>
            </g>
        </g>
    </g>
</svg>