<?xml version="1.0" encoding="UTF-8"?>
<svg width="32px" height="32px" viewBox="0 0 32 32" version="1.1" xmlns="http://www.w3.org/2000/svg" xmlns:xlink="http://www.w3.org/1999/xlink">
    <title>logo-tencentmeeting</title>
    <g id="Page-1" stroke="none" stroke-width="1" fill="none" fill-rule="evenodd">
        <g id="Menus" transform="translate(-623.000000, -255.000000)">
            <g id="menu" transform="translate(599.000000, 80.000000)">
                <g id="Group-3" transform="translate(24.000000, 16.000000)">
                    <g id="Group-12-Copy-3" transform="translate(0.000000, 154.000000)">
                        <g id="logo-tencentmeeting" transform="translate(0.000000, 5.000000)">
                            <circle id="Oval" fill="#408FF5" cx="16" cy="16" r="16"></circle>
                            <path d="M4.2336,15.61344 L10.5696,9.27744 C10.8096485,9.03737917 11.1352315,8.90251336 11.47472,8.90251336 C11.8142085,8.90251336 12.1397915,9.03737917 12.37984,9.27744 L16,12.89824 L7.85408,21.04416 C7.35424019,21.5438489 6.54399981,21.5438489 6.04416,21.04416 L4.23392,19.23392 C3.23432895,18.2342038 3.23432895,16.6134762 4.23392,15.61376 L4.2336,15.61344 Z" id="Path" fill="#E7F0FE" fill-rule="nonzero"></path>
                            <path d="M11.47456,17.42368 L19.62048,9.27776 C19.8605285,9.03769917 20.1861115,8.90283336 20.5256,8.90283336 C20.8650885,8.90283336 21.1906715,9.03769917 21.43072,9.27776 L25.0512,12.89792 L16.90528,21.04384 C16.6652315,21.2839008 16.3396485,21.4187666 16.00016,21.4187666 C15.6606715,21.4187666 15.3350885,21.2839008 15.09504,21.04384 L11.47456,17.42368 L11.47456,17.42368 Z" id="Path" fill="#FFFFFF" fill-rule="nonzero"></path>
                            <path d="M20.2992,17.19744 L24.82464,12.67168 L27.7664,15.61344 C28.765991,16.6131562 28.765991,18.2338838 27.7664,19.2336 L25.95616,21.04384 C25.7161115,21.2839008 25.3905285,21.4187666 25.05104,21.4187666 C24.7115515,21.4187666 24.3859685,21.2839008 24.14592,21.04384 L20.29952,17.19744 L20.2992,17.19744 Z" id="Path" fill="#FFFFFF" fill-rule="nonzero"></path>
                            <path d="M12.31744,9.21536 L16,12.89792 L11.47456,17.42368 L11.48224,8.90272 C11.7886955,8.9057291 12.0843361,9.0163961 12.31744,9.21536 L12.31744,9.21536 Z" id="Path" fill="#96B0F9" fill-rule="nonzero" opacity="0.513"></path>
                        </g>
                    </g>
                </g>
            </g>
        </g>
    </g>
</svg>