<?xml version="1.0" encoding="UTF-8"?>
<svg width="25px" height="24px" viewBox="0 0 25 24" version="1.1" xmlns="http://www.w3.org/2000/svg" xmlns:xlink="http://www.w3.org/1999/xlink">
    <title>logo-twitter</title>
    <g id="Page-1" stroke="none" stroke-width="1" fill="none" fill-rule="evenodd">
        <g id="HOME" transform="translate(-1316.000000, -3411.000000)">
            <g id="Group-17" transform="translate(0.000000, 3103.000000)">
                <g id="Group-15" transform="translate(0.000000, 281.000000)">
                    <g id="logo-twitter" transform="translate(1316.500000, 27.000000)">
                        <rect id="Rectangle" x="0" y="0" width="24" height="24"></rect>
                        <path d="M21.0072443,8.98654554 C20.9130371,15.9320696 16.3694326,20.6893961 9.58688171,20.9881451 C6.78984228,21.1133386 4.76348417,20.2301229 3,19.135 C5.06726765,19.4575332 7.63066173,18.6497665 9.00162905,17.5025437 C6.97527094,17.3098635 5.77553704,16.301608 5.2141701,14.679034 C5.79971086,14.7779855 6.41657544,14.7517435 6.97286142,14.636586 C5.14432007,14.0382431 3.83856707,12.9334939 3.77110037,10.6185923 C4.28422442,10.8469615 4.81913896,11.0616338 5.52979168,11.1039538 C4.16133865,10.3430642 3.14944293,7.56159289 4.30839824,5.72232408 C6.33939207,7.89843758 8.78244085,9.67421358 12.7939856,9.91443656 C11.7868304,5.70583643 17.492114,3.4236285 19.8799009,6.25223299 C20.8892823,6.06134494 21.710878,5.68699341 22.5012021,5.27953857 C22.1759163,6.25689254 21.549466,6.93990103 20.7858299,7.48629759 C21.6241089,7.37567162 22.3661116,7.17543886 23,6.86926529 C22.6068022,7.66768732 21.7469946,8.38367111 21.0072443,8.98654554 Z" id="Path" fill="#303138" fill-rule="nonzero"></path>
                    </g>
                </g>
            </g>
        </g>
    </g>
</svg>