<?xml version="1.0" encoding="UTF-8"?>
<svg width="25px" height="24px" viewBox="0 0 25 24" version="1.1" xmlns="http://www.w3.org/2000/svg" xmlns:xlink="http://www.w3.org/1999/xlink">
    <title>logo-wechat</title>
    <g id="Page-1" stroke="none" stroke-width="1" fill="none" fill-rule="evenodd">
        <g id="HOME" transform="translate(-1276.000000, -3411.000000)">
            <g id="Group-17" transform="translate(0.000000, 3103.000000)">
                <g id="Group-15" transform="translate(0.000000, 281.000000)">
                    <g id="logo-wechat" transform="translate(1276.500000, 27.000000)">
                        <rect id="Rectangle" x="0" y="0" width="24" height="24"></rect>
                        <path d="M6.743532,6.92898026 C6.40128828,6.91879526 6.08050067,7.09198007 5.90630929,7.38097468 C5.73211791,7.66996938 5.73211791,8.02899185 5.90630929,8.31798646 C6.08050067,8.60698116 6.40128828,8.78016588 6.743532,8.76998087 C7.25099741,8.75487899 7.65439502,8.34721331 7.65439502,7.84948057 C7.65439502,7.35174792 7.25099741,6.94408215 6.743532,6.92898026 L6.743532,6.92898026 Z M11.7102281,6.92898026 C11.3679842,6.91879526 11.0471967,7.09198007 10.8730053,7.38097468 C10.6988139,7.66996938 10.6988139,8.02899185 10.8730053,8.31798646 C11.0471967,8.60698116 11.3679842,8.78016588 11.7102281,8.76998087 C12.2176935,8.75487899 12.6210911,8.34721331 12.6210911,7.84948057 C12.6210911,7.35174792 12.2176935,6.94408215 11.7102281,6.92898026 L11.7102281,6.92898026 Z M18.0314775,12.0169599 C17.6206439,12.0169599 17.2875975,12.3434684 17.2875975,12.746237 C17.2875975,13.1490056 17.6206439,13.4755141 18.0314775,13.4755141 C18.442311,13.4755141 18.7753574,13.1490056 18.7753574,12.746237 C18.7753574,12.3434684 18.442311,12.0169599 18.0314775,12.0169599 Z M19.6403341,18.249735 L20.1662398,20 L18.0695364,18.9722281 C17.4121542,19.1757473 16.7011433,19.2876829 15.9607233,19.2876829 C13.2498864,19.2876829 10.9455886,17.7986008 10.1861391,15.7617129 C9.84879821,15.8024168 9.50626744,15.8227687 9.15681685,15.8227687 C8.30958382,15.8241792 7.46712935,15.6983471 6.65876431,15.4496502 L4.17455133,16.6673733 L4.79906448,14.5948696 C3.09852036,13.5111299 2,11.8134407 2,9.91053632 C2,6.65422939 5.21425328,4 9.15508695,4 C12.8519972,4 15.9105547,6.33707868 16.2738449,9.31354671 C19.455229,9.4509222 22,11.6353614 22,14.2963748 C22.0017203,15.9024804 21.0744653,17.3372906 19.6403341,18.249735 L19.6403341,18.249735 Z M14.1477322,12.0169599 C13.8819695,12.0169599 13.6363946,12.1559594 13.5035132,12.3815984 C13.3706319,12.6072375 13.3706319,12.8852364 13.5035132,13.1108756 C13.6363946,13.3365147 13.8819695,13.4755141 14.1477322,13.4755141 C14.5585657,13.4755141 14.8916121,13.1490056 14.8916121,12.746237 C14.8916121,12.3434684 14.5585657,12.0169599 14.1477322,12.0169599 L14.1477322,12.0169599 Z" id="Shape" fill="#303138" fill-rule="nonzero"></path>
                    </g>
                </g>
            </g>
        </g>
    </g>
</svg>