<svg viewBox="0 0 308 291" fill="none" xmlns="http://www.w3.org/2000/svg" >
  <g id="def474a313bffa002eae8941b2e12620" clip-path="url(#clip0_1_2)">
    <rect width="308" height="291" ></rect>
    <path id="1767af75e11911c3e303540f8e81bc12" fill-rule="evenodd" clip-rule="evenodd" d="M233.636 40.1024C228.289 49.0527 210.595 78.1121 180.556 127.28C180.462 127.433 180.369 127.586 180.289 127.733C180.44 127.815 180.592 127.898 180.743 127.98C224.259 151.676 258.219 170.344 282.62 183.988C268.277 207.741 244.19 223.017 216.787 228.538C189.181 234.1 158.208 229.764 130.41 214.22C102.618 198.679 83.2565 174.873 74.4285 148.943C65.6115 123.044 67.3045 95.0258 81.6103 71.0272C95.9204 47.0213 120.135 31.5895 147.709 26.0342C175.166 20.5024 205.955 24.7618 233.636 40.1024Z" fill="white" stroke="black"></path>
    <path id="7ae595e30fdac5288c4be28cc3b224fb" fill-rule="evenodd" clip-rule="evenodd" d="M233.636 40.1024C228.289 49.0527 210.595 78.1121 180.556 127.28C180.462 127.433 180.369 127.586 180.289 127.733C180.44 127.815 180.592 127.898 180.743 127.98C224.259 151.676 258.219 170.344 282.62 183.988C268.277 207.741 244.19 223.017 216.787 228.538C189.181 234.1 158.208 229.764 130.41 214.22C102.618 198.679 83.2565 174.873 74.4285 148.943C65.6115 123.044 67.3045 95.0258 81.6103 71.0272C95.9204 47.0213 120.135 31.5895 147.709 26.0342C175.166 20.5024 205.955 24.7618 233.636 40.1024Z" fill="white" stroke="black"></path>
    <path id="14205a41a5b5dd563fbc816b9a4c4df8" fill-rule="evenodd" clip-rule="evenodd" d="M233.636 40.1024C228.289 49.0527 210.595 78.1121 180.556 127.28C180.462 127.433 180.369 127.586 180.289 127.733C180.44 127.815 180.592 127.898 180.743 127.98C224.259 151.676 258.219 170.344 282.62 183.988C268.277 207.741 244.19 223.017 216.787 228.538C189.181 234.1 158.208 229.764 130.41 214.22C102.618 198.679 83.2565 174.873 74.4285 148.943C65.6115 123.044 67.3045 95.0258 81.6103 71.0272C95.9204 47.0213 120.135 31.5895 147.709 26.0342C175.166 20.5024 205.955 24.7618 233.636 40.1024Z" fill="white" stroke="black" ></path>
    <path id="f2e804e45e1dab1163588130bcd0d13e" fill-rule="evenodd" clip-rule="evenodd" d="M233.636 40.1024C228.289 49.0527 210.595 78.1121 180.556 127.28C180.462 127.433 180.369 127.586 180.289 127.733C180.44 127.815 180.592 127.898 180.743 127.98C224.259 151.676 258.219 170.344 282.62 183.988C268.277 207.741 244.19 223.017 216.787 228.538C189.181 234.1 158.208 229.764 130.41 214.22C102.618 198.679 83.2565 174.873 74.4285 148.943C65.6115 123.044 67.3045 95.0258 81.6103 71.0272C95.9204 47.0213 120.135 31.5895 147.709 26.0342C175.166 20.5024 205.955 24.7618 233.636 40.1024Z" fill="#3A5BEF" stroke="black"></path>
  </g>
  <defs>
    <clipPath id="clip0_1_2">
      <rect width="308" height="291" fill="white"></rect>
    </clipPath>
  </defs>
</svg>