<svg viewBox="0 0 284 292" fill="none" xmlns="http://www.w3.org/2000/svg">
    <g id="12e20e29765be0909de1357bba2a4e90" clip-path="url(#clip0_8_11)">
        <rect width="284" height="292" ></rect>
        <path id="51d55726f1ae8b9fe7e4dc72461f3755" fill-rule="evenodd" clip-rule="evenodd"
              d="M135.31 254.129C125.04 256.88 114.628 255.209 106.095 250.282C97.5622 245.356 90.9086 237.174 88.157 226.905L53.9929 99.4028C51.2711 89.2449 52.8768 78.947 57.68 70.4665C62.4913 61.9716 70.5108 55.3002 80.5988 52.4211L81.2165 52.2502L208.719 18.086C218.988 15.3344 229.4 17.0057 237.933 21.9322C246.466 26.8587 253.12 35.0404 255.871 45.3096C258.623 55.5789 256.952 65.9912 252.025 74.5242C247.099 83.0571 238.917 89.7107 228.648 92.4623L138.334 116.662L162.533 206.976C165.285 217.245 163.614 227.658 158.687 236.191C153.761 244.723 145.579 251.377 135.31 254.129Z"
              fill="white" stroke="black" ></path>
        <path id="14044d6e75592be4f669e3552fdb27e8" fill-rule="evenodd" clip-rule="evenodd"
              d="M135.31 254.129C125.04 256.88 114.628 255.209 106.095 250.282C97.5622 245.356 90.9086 237.174 88.157 226.905L53.9929 99.4028C51.2711 89.2449 52.8768 78.947 57.68 70.4665C62.4913 61.9716 70.5108 55.3002 80.5988 52.4211L81.2165 52.2502L208.719 18.086C218.988 15.3344 229.4 17.0057 237.933 21.9322C246.466 26.8587 253.12 35.0404 255.871 45.3096C258.623 55.5789 256.952 65.9912 252.025 74.5242C247.099 83.0571 238.917 89.7107 228.648 92.4623L138.334 116.662L162.533 206.976C165.285 217.245 163.614 227.658 158.687 236.191C153.761 244.723 145.579 251.377 135.31 254.129Z"
              fill="white" stroke="black" ></path>
        <path id="af08f9c09037bf0ccd1aff00449a3c81" fill-rule="evenodd" clip-rule="evenodd"
              d="M135.31 254.129C125.04 256.88 114.628 255.209 106.095 250.282C97.5622 245.356 90.9086 237.174 88.157 226.905L53.9929 99.4028C51.2711 89.2449 52.8768 78.947 57.68 70.4665C62.4913 61.9716 70.5108 55.3002 80.5988 52.4211L81.2165 52.2502L208.719 18.086C218.988 15.3344 229.4 17.0057 237.933 21.9322C246.466 26.8587 253.12 35.0404 255.871 45.3096C258.623 55.5789 256.952 65.9912 252.025 74.5242C247.099 83.0571 238.917 89.7107 228.648 92.4623L138.334 116.662L162.533 206.976C165.285 217.245 163.614 227.658 158.687 236.191C153.761 244.723 145.579 251.377 135.31 254.129Z"
              fill="white" stroke="black"></path>
        <path id="129c307efa0a75fa35627a3c46165d3d" fill-rule="evenodd" clip-rule="evenodd"
              d="M135.31 254.129C125.04 256.88 114.628 255.209 106.095 250.282C97.5622 245.356 90.9086 237.174 88.157 226.905L53.9929 99.4028C51.2711 89.2449 52.8768 78.947 57.68 70.4665C62.4913 61.9716 70.5108 55.3002 80.5988 52.4211L81.2165 52.2502L208.719 18.086C218.988 15.3344 229.4 17.0057 237.933 21.9322C246.466 26.8587 253.12 35.0404 255.871 45.3096C258.623 55.5789 256.952 65.9912 252.025 74.5242C247.099 83.0571 238.917 89.7107 228.648 92.4623L138.334 116.662L162.533 206.976C165.285 217.245 163.614 227.658 158.687 236.191C153.761 244.723 145.579 251.377 135.31 254.129Z"
              fill="#FFDA83" stroke="black" ></path>
    </g>
    <defs>
        <clipPath id="clip0_8_11">
            <rect width="284" height="292" ></rect>
        </clipPath>
    </defs>
</svg>