<svg viewBox="0 0 284 292" fill="none" xmlns="http://www.w3.org/2000/svg">
    <g id="b1614339e5198f05970dfc78157f6f1b">
        <rect width="284" height="292" ></rect>
        <path id="75838c32c7a68d35dc060a5cbce272ab" fill-rule="evenodd" clip-rule="evenodd"
              d="M171.919 10.8228C182.189 8.07116 192.601 9.74245 201.134 14.669C209.667 19.5955 216.32 27.7772 219.072 38.0464L248.06 146.23C250.782 156.388 249.176 166.686 244.373 175.166C239.561 183.661 231.542 190.333 221.454 193.212L220.836 193.383L112.653 222.371C102.383 225.122 91.971 223.451 83.438 218.524C74.9051 213.598 68.2515 205.416 65.4999 195.147C62.7482 184.878 64.4195 174.465 69.346 165.932C74.2725 157.399 82.4543 150.746 92.7235 147.994L163.718 128.971L144.696 57.9755C141.944 47.7062 143.615 37.2939 148.542 28.7609C153.469 20.228 161.65 13.5744 171.919 10.8228Z"
              fill="white" stroke="black"></path>
        <path id="ff246b8bb602e9de14a07d664c30c44c" fill-rule="evenodd" clip-rule="evenodd"
              d="M171.919 10.8228C182.189 8.07116 192.601 9.74245 201.134 14.669C209.667 19.5955 216.32 27.7772 219.072 38.0464L248.06 146.23C250.782 156.388 249.176 166.686 244.373 175.166C239.561 183.661 231.542 190.333 221.454 193.212L220.836 193.383L112.653 222.371C102.383 225.122 91.971 223.451 83.438 218.524C74.9051 213.598 68.2515 205.416 65.4999 195.147C62.7482 184.878 64.4195 174.465 69.346 165.932C74.2725 157.399 82.4543 150.746 92.7235 147.994L163.718 128.971L144.696 57.9755C141.944 47.7062 143.615 37.2939 148.542 28.7609C153.469 20.228 161.65 13.5744 171.919 10.8228Z"
              fill="white" stroke="black"></path>
        <path id="17de096d6d8fb13e9d0932df1a68b38e" fill-rule="evenodd" clip-rule="evenodd"
              d="M171.919 10.8228C182.189 8.07116 192.601 9.74245 201.134 14.669C209.667 19.5955 216.32 27.7772 219.072 38.0464L248.06 146.23C250.782 156.388 249.176 166.686 244.373 175.166C239.561 183.661 231.542 190.333 221.454 193.212L220.836 193.383L112.653 222.371C102.383 225.122 91.971 223.451 83.438 218.524C74.9051 213.598 68.2515 205.416 65.4999 195.147C62.7482 184.878 64.4195 174.465 69.346 165.932C74.2725 157.399 82.4543 150.746 92.7235 147.994L163.718 128.971L144.696 57.9755C141.944 47.7062 143.615 37.2939 148.542 28.7609C153.469 20.228 161.65 13.5744 171.919 10.8228Z"
              fill="white" stroke="black"></path>
        <path id="338df0ff7b361295ba4cbf6d1a3c12a8" fill-rule="evenodd" clip-rule="evenodd"
              d="M171.919 10.8228C182.189 8.07116 192.601 9.74245 201.134 14.669C209.667 19.5955 216.32 27.7772 219.072 38.0464L248.06 146.23C250.782 156.388 249.176 166.686 244.373 175.166C239.561 183.661 231.542 190.333 221.454 193.212L220.836 193.383L112.653 222.371C102.383 225.122 91.971 223.451 83.438 218.524C74.9051 213.598 68.2515 205.416 65.4999 195.147C62.7482 184.878 64.4195 174.465 69.346 165.932C74.2725 157.399 82.4543 150.746 92.7235 147.994L163.718 128.971L144.696 57.9755C141.944 47.7062 143.615 37.2939 148.542 28.7609C153.469 20.228 161.65 13.5744 171.919 10.8228Z"
              fill="#3A5BEF" stroke="black"></path>
    </g>
</svg>