<?xml version="1.0" encoding="UTF-8"?> <!-- Generator: Adobe Illustrator 25.0.0, SVG Export Plug-In . SVG Version: 6.00 Build 0) --> <svg xmlns="http://www.w3.org/2000/svg" xmlns:xlink="http://www.w3.org/1999/xlink" version="1.1" id="Layer_1" x="0px" y="0px" viewBox="0 0 400 245" style="enable-background:new 0 0 400 245;" xml:space="preserve"> <style type="text/css"> .st0{fill:#F3BC19;} </style> <g id="layer1" transform="translate(-54.128233,-125.39408)"> <path id="path7160" class="st0" d="M275.5,225.8c0,0,72-16.5,96.8,27c7.5,9.9-13.5,57.9-31.6,64.6c-3.9,14.2-23.4,54.1-36.7,50.4 c0,0-11.6-1.7-11.8-46.4c0,0,7.9,61.1,19.1,28.3c14.5-42.4,12-110-9.7-118c0,0,7.3-3.9,21.7,0c0,0,22.5,15.9,19.5,75.1 c0,0,9.6-37.7-10.8-73.8c0,0,9.3,1,16.8,4.7C348.9,237.8,327.4,218.3,275.5,225.8z"></path> <path id="path7162" class="st0" d="M232.8,226.4c0,0-72-16.5-96.8,27c-7.5,9.9,13.5,57.9,31.6,64.6c3.9,14.2,23.4,54.1,36.7,50.4 c0,0,11.6-1.7,11.8-46.4c0,0-7.9,61.1-19.1,28.3c-14.5-42.4-12-110,9.7-118c0,0-7.3-3.9-21.7,0c0,0-22.5,15.9-19.5,75.1 c0,0-9.6-37.7,10.8-73.8c0,0-9.3,1-16.8,4.7C159.4,238.4,180.8,218.9,232.8,226.4L232.8,226.4z"></path> <path id="path7419" class="st0" d="M274.1,190.8c0.8,7.8,7.5,11.9,7.5,11.9c-6.6,12.5-26.8,13.9-26.8,13.9s-19.7-1.6-26.6-13.9 c0,0,6.6-4.3,7.3-12.1c0,0-40.6-2.3-74.2,36.1c0,0,35.1-15.8,93.7-1c58.3-16,93.9-0.4,93.9-0.4 C314.7,187.7,274.1,190.8,274.1,190.8L274.1,190.8z"></path> <path id="path7779" class="st0" d="M238.5,188.4c0,0,2.3-30.2,14.7-59c0,0,2.1-5.3,4.1,0c1.9,5.3,10.9,31.3,14.7,59 C272,188.4,255.6,196.1,238.5,188.4z"></path> <path id="path8703" class="st0" d="M253.2,244.5c-2.1-23.1-28.5-9.8-33.3-9c-9.7,1.6-13.5,0.8-13.5,0.8c-4.1,4.5-5.7,8.2-5.7,8.2 S243.5,238.2,253.2,244.5z"></path> <path id="path8705" class="st0" d="M255.9,244.5c2.1-23.1,28.5-9.8,33.3-9c9.7,1.6,13.5,0.8,13.5,0.8c4.1,4.5,5.7,8.2,5.7,8.2 S265.6,238.2,255.9,244.5L255.9,244.5z"></path> <path id="path9584" class="st0" d="M264.2,244.5c0,0-2.6,2.1-9.6,2.2c-7,0-9.6-2.2-9.6-2.2c-24-2-49.3,2.1-49.3,2.1l12.8,69.4 c10.6,6.4,35.7,7.7,35.7,7.7c3,4.1,17.6,4.1,20.7,0c0,0,25.1-1.3,35.7-7.7l11.5-69.4C312.3,246.5,288.3,242.5,264.2,244.5z M208.7,277.2l24.6-27.1l0.9,14l-5.1,0.1l0-2.3L215,277.9l15.3,20l-0.4-18l-5.2-0.4l0.1-4.8l9.6,0.6l0.9,38.4L208.7,277.2 L208.7,277.2z M273.1,313.9l0.9-38.4l9.6-0.6l0.1,4.8l-5.2,0.4l-0.4,18l15.3-20l-14.2-16.1l0,2.3l-5.1-0.1l0.9-14l24.6,27.1 L273.1,313.9L273.1,313.9z"></path> </g> </svg> 