<?xml version="1.0" encoding="UTF-8"?>
<svg viewBox="0 0 14 14" version="1.1" xmlns="http://www.w3.org/2000/svg" xmlns:xlink="http://www.w3.org/1999/xlink">
    <title>Robustness</title>
    <g id="Page-1" stroke="none" stroke-width="1" fill="none" fill-rule="evenodd">
        <g id="Artboard" transform="translate(-82.000000, -161.000000)">
            <g id="Robustness" transform="translate(82.000000, 161.000000)">
                <rect id="Rectangle" x="0" y="0" width="14" height="14"></rect>
                <path d="M7,1 C7.74793995,1 8.42966618,1.4068533 8.75358296,2.04659027 C9.07749974,2.68632724 8.98624453,3.44563552 8.51885005,3.9997351 L11.7609972,9.32856965 C12.8036936,9.17768849 13.7831694,9.84276715 13.9691967,10.82797 C14.1552239,11.8131728 13.4800338,12.7595955 12.4470004,12.9616523 C11.413967,13.163709 10.399419,12.5477915 10.1597316,11.5730844 L3.84026838,11.5730844 C3.60058102,12.5477915 2.58603295,13.163709 1.55299957,12.9616523 C0.519966185,12.7595955 -0.155223913,11.8131728 0.0308033313,10.82797 C0.216830576,9.84276715 1.19630642,9.17768849 2.23900284,9.32856965 L5.48114995,3.9997351 C5.01375547,3.44563552 4.92250026,2.68632724 5.24641704,2.04659027 C5.57033382,1.4068533 6.25206005,1 7,1 Z M2.71156543,10.7339507 C2.55472664,10.472183 2.26210627,10.3102289 1.94478496,10.3095651 C1.62746365,10.3089054 1.33409597,10.4696375 1.17604624,10.7307485 C1.01799651,10.9918595 1.01949835,11.3133135 1.17998164,11.5730844 C1.42581777,11.9710142 1.96403175,12.1060442 2.38499446,11.8754045 C2.80595717,11.6447649 2.95181873,11.1349392 2.71156543,10.7339507 L2.71156543,10.7339507 Z M12.4963696,10.4268278 C12.2226208,10.274539 11.8838698,10.2731138 11.6087088,10.4230934 C11.3335478,10.5730729 11.1641669,10.8514609 11.1648621,11.1525795 C11.1655616,11.453698 11.3362303,11.7313769 11.6120833,11.8802074 C12.0346485,12.1081931 12.571907,11.9697794 12.8149571,11.5703114 C13.0580072,11.1708435 12.9157114,10.6601113 12.4963696,10.4268278 L12.4963696,10.4268278 Z M7.65048096,4.58645736 C7.44159946,4.65666206 7.22159604,4.69242198 7,4.6921882 C6.77185415,4.6921882 6.55290488,4.65526632 6.34987275,4.58645736 L3.208888,9.74880779 C3.47735862,9.96606653 3.67839075,10.2486202 3.79039464,10.566124 L10.2096054,10.566124 C10.3221704,10.2488833 10.5231083,9.96646212 10.791112,9.74880779 L7.65012725,4.58645736 L7.65048096,4.58645736 Z M7,2.00696042 C6.68407495,2.00696042 6.39214816,2.16689839 6.23418563,2.42652725 C6.0762231,2.68615612 6.0762231,3.00603208 6.23418563,3.26566095 C6.39214816,3.52528982 6.68407495,3.68522778 7,3.68522778 C7.4883778,3.68522778 7.88428622,3.30953483 7.88428622,2.8460941 C7.88428622,2.38265337 7.4883778,2.00696042 7,2.00696042 L7,2.00696042 Z" id="Shape" fill="#000000" fill-rule="nonzero"></path>
            </g>
        </g>
    </g>
</svg>