<?xml version="1.0" encoding="UTF-8"?>
<svg width="40px" height="40px" viewBox="0 0 40 40" version="1.1" xmlns="http://www.w3.org/2000/svg" xmlns:xlink="http://www.w3.org/1999/xlink">
    <title>compass</title>
    <g id="Page-1" stroke="none" stroke-width="1" fill="none" fill-rule="evenodd">
        <g id="About" transform="translate(-220.000000, -232.000000)" fill="#FFFFFF">
            <g id="hero" transform="translate(220.000000, 232.000000)">
                <path d="M20,0 C31.045695,0 40,8.954305 40,20 C40,31.045695 31.045695,40 20,40 C8.954305,40 0,31.045695 0,20 C0,8.954305 8.954305,0 20,0 Z M19.8093209,1.23856877 L12.5572925,19.3686399 C12.3981093,19.7665979 12.3981093,20.2105397 12.5572925,20.6084976 L12.5572925,20.6084976 L19.8093209,38.7385688 L27.0613494,20.6084976 C27.2205326,20.2105397 27.2205326,19.7665979 27.0613494,19.3686399 L27.0613494,19.3686399 L19.8093209,1.23856877 Z M19.8093209,18.3219021 C20.7408612,18.3219021 21.4960239,19.0680942 21.4960239,19.9885688 C21.4960239,20.9090434 20.7408612,21.6552354 19.8093209,21.6552354 C18.8777806,21.6552354 18.122618,20.9090434 18.122618,19.9885688 C18.122618,19.0680942 18.8777806,18.3219021 19.8093209,18.3219021 Z" id="compass"></path>
            </g>
        </g>
    </g>
</svg>