<?xml version="1.0" encoding="UTF-8"?>
<svg viewBox="0 0 88 88" version="1.1" xmlns="http://www.w3.org/2000/svg" xmlns:xlink="http://www.w3.org/1999/xlink">
    <title>logo-square</title>
    <g id="Page-1" stroke="none" stroke-width="1" fill="none" fill-rule="evenodd">
        <g id="HOME-1" transform="translate(-110.000000, -2433.000000)">
            <g id="Group-17" transform="translate(0.000000, 2433.000000)">
                <g id="logo-square" transform="translate(110.000000, 0.000000)">
                    <rect id="Rectangle" fill="#000000" x="0" y="0" width="88" height="88"></rect>
                    <g id="Chaoss-Compass" transform="translate(10.000000, 52.000000)" fill="#FFFFFF" fill-rule="nonzero">
                        <path d="M7.01067927,5.95688114 C7.01067927,7.28063251 6.70253465,8.30845993 6.08624542,9.04036342 C5.46995618,9.7722669 4.61449333,10.1382186 3.51985686,10.1382186 C2.42967013,10.1382186 1.57309484,9.77565535 0.950130994,9.05052875 C0.327167148,8.32540214 0.0112354835,7.30999901 0.002336,6.00431933 L0.002336,4.31687519 C0.002336,2.96149836 0.311593052,1.90317496 0.930107156,1.14190497 C1.54862126,0.380634992 2.40742142,0 3.50650763,0 C4.58779488,0 5.43992043,0.373858107 6.06288427,1.12157432 C6.68584812,1.86929054 7.00177978,2.9185781 7.01067927,4.269437 L7.01067927,5.95688114 Z M5.04166854,4.30332142 C5.04166854,3.41329064 4.91707577,2.75141495 4.66789023,2.31769437 C4.41870469,1.88397379 4.03157716,1.66711349 3.50650763,1.66711349 C2.98588785,1.66711349 2.60098519,1.87606742 2.35179965,2.29397528 C2.10261411,2.71188313 1.9735716,3.34778076 1.96467211,4.20166816 L1.96467211,5.95688114 C1.96467211,6.81980439 2.09148975,7.45570202 2.34512503,7.86457402 C2.59876031,8.27344603 2.99033759,8.47788204 3.51985686,8.47788204 C4.03157716,8.47788204 4.41203008,8.27796396 4.66121562,7.87812779 C4.91040116,7.47829163 5.0372188,6.85820673 5.04166854,6.0178731 L5.04166854,4.30332142 Z" id="Shape"></path>
                        <path d="M12.5239091,7.41391123 C12.5239091,7.01181611 12.4226775,6.7079858 12.2202142,6.50242032 C12.017751,6.29685483 11.6495349,6.08338298 11.1155658,5.86200477 C10.1410724,5.48701718 9.44023808,5.04764919 9.01306287,4.5439008 C8.58588766,4.04015242 8.37230005,3.4449161 8.37230005,2.75819184 C8.37230005,1.92689405 8.6626457,1.25937097 9.243337,0.75562258 C9.8240283,0.251874193 10.561573,0 11.4559711,0 C12.0522365,0 12.5839806,0.127631318 13.0512035,0.382893953 C13.5184264,0.638156588 13.877743,0.998460927 14.1291535,1.46380697 C14.3805639,1.92915301 14.5062691,2.45774998 14.5062691,3.04959786 L12.5506076,3.04959786 C12.5506076,2.58876973 12.4538257,2.23750124 12.2602619,1.99579237 C12.0666981,1.75408351 11.7874769,1.63322907 11.422598,1.63322907 C11.0799679,1.63322907 10.8129834,1.73601182 10.6216445,1.9415773 C10.4303056,2.14714279 10.3346362,2.42386555 10.3346362,2.77174561 C10.3346362,3.04282097 10.44143,3.28791828 10.6550176,3.50703753 C10.8686052,3.72615679 11.2468332,3.9531824 11.7897017,4.18811439 C12.7374967,4.53599444 13.4260943,4.96293814 13.8554943,5.46894549 C14.2848944,5.97495283 14.4995945,6.61875683 14.4995945,7.40035746 C14.4995945,8.25876278 14.2303851,8.92967431 13.6919663,9.41309205 C13.1535476,9.89650978 12.4215651,10.1382186 11.4960188,10.1382186 C10.8686052,10.1382186 10.2968134,10.0071989 9.78064332,9.74515937 C9.26447328,9.48311985 8.86065921,9.10813226 8.56920113,8.6201966 C8.27774304,8.13226095 8.132014,7.5562258 8.132014,6.89209115 L10.1010247,6.89209115 C10.1010247,7.46134942 10.2100434,7.87473935 10.4280807,8.13226095 C10.6461181,8.38978254 11.0020974,8.51854334 11.4960188,8.51854334 C12.181279,8.51854334 12.5239091,8.15033264 12.5239091,7.41391123 Z" id="Path"></path>
                        <path d="M19.9060311,7.41391123 C19.9060311,7.01181611 19.8047995,6.7079858 19.6023362,6.50242032 C19.399873,6.29685483 19.0316569,6.08338298 18.4976878,5.86200477 C17.5231944,5.48701718 16.8223601,5.04764919 16.3951849,4.5439008 C15.9680097,4.04015242 15.7544221,3.4449161 15.7544221,2.75819184 C15.7544221,1.92689405 16.0447677,1.25937097 16.625459,0.75562258 C17.2061503,0.251874193 17.943695,0 18.8380931,0 C19.4343585,0 19.9661026,0.127631318 20.4333255,0.382893953 C20.9005484,0.638156588 21.259865,0.998460927 21.5112755,1.46380697 C21.7626859,1.92915301 21.8883911,2.45774998 21.8883911,3.04959786 L19.9327296,3.04959786 C19.9327296,2.58876973 19.8359477,2.23750124 19.6423839,1.99579237 C19.4488201,1.75408351 19.1695989,1.63322907 18.80472,1.63322907 C18.4620899,1.63322907 18.1951054,1.73601182 18.0037665,1.9415773 C17.8124276,2.14714279 17.7167582,2.42386555 17.7167582,2.77174561 C17.7167582,3.04282097 17.823552,3.28791828 18.0371396,3.50703753 C18.2507272,3.72615679 18.6289552,3.9531824 19.1718237,4.18811439 C20.1196187,4.53599444 20.8082163,4.96293814 21.2376163,5.46894549 C21.6670164,5.97495283 21.8817165,6.61875683 21.8817165,7.40035746 C21.8817165,8.25876278 21.6125071,8.92967431 21.0740883,9.41309205 C20.5356696,9.89650978 19.8036871,10.1382186 18.8781408,10.1382186 C18.2507272,10.1382186 17.6789354,10.0071989 17.1627653,9.74515937 C16.6465953,9.48311985 16.2427812,9.10813226 15.9513231,8.6201966 C15.659865,8.13226095 15.514136,7.5562258 15.514136,6.89209115 L17.4831467,6.89209115 C17.4831467,7.46134942 17.5921654,7.87473935 17.8102027,8.13226095 C18.0282401,8.38978254 18.3842194,8.51854334 18.8781408,8.51854334 C19.563401,8.51854334 19.9060311,8.15033264 19.9060311,7.41391123 Z" id="Path"></path>
                        <path d="M6.76805721,22.5776735 C6.71911005,23.7026363 6.40762813,24.5542647 5.83361144,25.1325588 C5.25959476,25.7108529 4.44974176,26 3.40405244,26 C2.30496623,26 1.4628526,25.6329188 0.877711561,24.8987563 C0.29257052,24.1645939 0,23.1175653 0,21.7576705 L0,20.0973339 C0,18.7419571 0.302582439,17.6971875 0.907747318,16.963025 C1.5129122,16.2288626 2.35391339,15.8617814 3.43075089,15.8617814 C4.48978943,15.8617814 5.29408025,16.1622232 5.84362336,16.7631069 C6.39316647,17.3639907 6.70576083,18.2269139 6.78140644,19.3518767 L4.81239571,19.3518767 C4.79459674,18.6561166 4.68891538,18.1760873 4.49535161,17.9117888 C4.30178784,17.6474903 3.94692094,17.5153411 3.43075089,17.5153411 C2.90568137,17.5153411 2.53412793,17.7017054 2.31609058,18.074434 C2.09805324,18.4471626 1.98235995,19.0604707 1.96901073,19.9143581 L1.96901073,21.7780012 C1.96901073,22.7583904 2.07691696,23.4315609 2.29272944,23.7975127 C2.50854191,24.1634644 2.87898292,24.3464403 3.40405244,24.3464403 C3.92022249,24.3464403 4.27620183,24.218809 4.47199046,23.9635463 C4.6677791,23.7082837 4.77902265,23.2463261 4.8057211,22.5776735 L6.76805721,22.5776735 Z" id="Path"></path>
                        <path d="M14.81764,21.8186625 C14.81764,23.1424139 14.5094954,24.1702413 13.8932062,24.9021448 C13.276917,25.6340483 12.4214541,26 11.3268176,26 C10.2366309,26 9.38005562,25.6374367 8.75709178,24.9123101 C8.13412793,24.1871835 7.81819627,23.1717804 7.80929678,21.8661007 L7.80929678,20.1786565 C7.80929678,18.8232797 8.11855383,17.7649563 8.73706794,17.0036863 C9.35558204,16.2424163 10.2143822,15.8617814 11.3134684,15.8617814 C12.3947557,15.8617814 13.2468812,16.2356395 13.8698451,16.9833557 C14.4928089,17.7310719 14.8087406,18.7803594 14.81764,20.1312183 L14.81764,21.8186625 Z M12.8486293,20.1651028 C12.8486293,19.275072 12.7240366,18.6131963 12.474851,18.1794757 C12.2256655,17.7457551 11.8385379,17.5288948 11.3134684,17.5288948 C10.7928486,17.5288948 10.407946,17.7378488 10.1587604,18.1557566 C9.90957489,18.5736645 9.78053238,19.2095621 9.7716329,20.0634495 L9.7716329,21.8186625 C9.7716329,22.6815857 9.89845054,23.3174834 10.1520858,23.7263554 C10.4057211,24.1352274 10.7972984,24.3396634 11.3268176,24.3396634 C11.8385379,24.3396634 12.2189909,24.1397453 12.4681764,23.7399091 C12.7173619,23.340073 12.8441796,22.7199881 12.8486293,21.8796545 L12.8486293,20.1651028 Z" id="Shape"></path>
                        <polygon id="Path" points="18.7890346 15.997319 20.624553 23.133378 22.4533969 15.997319 25.0164482 15.997319 25.0164482 25.8644623 23.0474374 25.8644623 23.0474374 23.19437 23.227652 19.0808013 21.2853397 25.8644623 19.9504172 25.8644623 18.0081049 19.0808013 18.1883194 23.19437 18.1883194 25.8644623 16.2259833 25.8644623 16.2259833 15.997319"></polygon>
                        <path d="M28.5539928,22.3946976 L28.5539928,25.8644623 L26.5916567,25.8644623 L26.5916567,15.997319 L29.9022646,15.997319 C30.8634088,15.997319 31.6298768,16.3000199 32.2016687,16.9054215 C32.7734605,17.5108232 33.0593564,18.2969417 33.0593564,19.2637772 C33.0593564,20.2306127 32.7767978,20.9941416 32.2116806,21.554364 C31.6465634,22.1145864 30.8634088,22.3946976 29.8622169,22.3946976 L28.5539928,22.3946976 Z M28.5539928,20.734361 L29.9022646,20.734361 C30.2760429,20.734361 30.5652761,20.6101182 30.7699642,20.3616324 C30.9746524,20.1131467 31.0769964,19.7517128 31.0769964,19.277331 C31.0769964,18.7848774 30.9724275,18.3929476 30.7632896,18.1015416 C30.5541518,17.8101355 30.273818,17.6621736 29.9222884,17.6576556 L28.5539928,17.6576556 L28.5539928,20.734361 Z" id="Shape"></path>
                        <path d="M39.0064362,23.8449508 L36.3299166,23.8449508 L35.8092968,25.8644623 L33.7334923,25.8644623 L36.770441,15.997319 L38.5659118,15.997319 L41.6228844,25.8644623 L39.527056,25.8644623 L39.0064362,23.8449508 Z M36.7570918,22.1846142 L38.5725864,22.1846142 L37.6648391,18.6674114 L36.7570918,22.1846142 Z" id="Shape"></path>
                        <path d="M46.6355185,23.2756926 C46.6355185,22.8735975 46.5342868,22.5697672 46.3318236,22.3642017 C46.1293603,22.1586362 45.7611442,21.9451643 45.2271752,21.7237861 C44.2526818,21.3487985 43.5518474,20.9094305 43.1246722,20.4056822 C42.697497,19.9019338 42.4839094,19.3066974 42.4839094,18.6199732 C42.4839094,17.7886754 42.7742551,17.1211523 43.3549464,16.6174039 C43.9356377,16.1136555 44.6731824,15.8617814 45.5675805,15.8617814 C46.1638458,15.8617814 46.69559,15.9894127 47.1628129,16.2446753 C47.6300358,16.4999379 47.9893524,16.8602423 48.2407628,17.3255883 C48.4921732,17.7909344 48.6178784,18.3195313 48.6178784,18.9113792 L46.6622169,18.9113792 C46.6622169,18.4505511 46.565435,18.0992826 46.3718713,17.8575737 C46.1783075,17.6158649 45.8990862,17.4950104 45.5342074,17.4950104 C45.1915773,17.4950104 44.9245928,17.5977932 44.7332539,17.8033587 C44.541915,18.0089241 44.4462455,18.2856469 44.4462455,18.633527 C44.4462455,18.9046023 44.5530393,19.1496996 44.7666269,19.3688189 C44.9802145,19.5879381 45.3584426,19.8149638 45.9013111,20.0498957 C46.8491061,20.3977758 47.5377036,20.8247195 47.9671037,21.3307268 C48.3965038,21.8367342 48.6112038,22.4805382 48.6112038,23.2621388 C48.6112038,24.1205441 48.3419944,24.7914557 47.8035757,25.2748734 C47.2651569,25.7582911 46.5331744,26 45.6076281,26 C44.9802145,26 44.4084227,25.8689802 43.8922527,25.6069407 C43.3760826,25.3449012 42.9722686,24.9699136 42.6808105,24.481978 C42.3893524,23.9940423 42.2436234,23.4180071 42.2436234,22.7538725 L44.2126341,22.7538725 C44.2126341,23.3231308 44.3216528,23.7365207 44.5396901,23.9940423 C44.7577275,24.2515639 45.1137068,24.3803247 45.6076281,24.3803247 C46.2928884,24.3803247 46.6355185,24.012114 46.6355185,23.2756926 Z" id="Path"></path>
                        <path d="M54.01764,23.2756926 C54.01764,22.8735975 53.9164084,22.5697672 53.7139452,22.3642017 C53.5114819,22.1586362 53.1432658,21.9451643 52.6092968,21.7237861 C51.6348033,21.3487985 50.933969,20.9094305 50.5067938,20.4056822 C50.0796186,19.9019338 49.866031,19.3066974 49.866031,18.6199732 C49.866031,17.7886754 50.1563766,17.1211523 50.7370679,16.6174039 C51.3177592,16.1136555 52.0553039,15.8617814 52.949702,15.8617814 C53.5459674,15.8617814 54.0777116,15.9894127 54.5449344,16.2446753 C55.0121573,16.4999379 55.371474,16.8602423 55.6228844,17.3255883 C55.8742948,17.7909344 56,18.3195313 56,18.9113792 L54.0443385,18.9113792 C54.0443385,18.4505511 53.9475566,18.0992826 53.7539928,17.8575737 C53.5604291,17.6158649 53.2812078,17.4950104 52.916329,17.4950104 C52.5736988,17.4950104 52.3067143,17.5977932 52.1153754,17.8033587 C51.9240366,18.0089241 51.8283671,18.2856469 51.8283671,18.633527 C51.8283671,18.9046023 51.9351609,19.1496996 52.1487485,19.3688189 C52.3623361,19.5879381 52.7405642,19.8149638 53.2834327,20.0498957 C54.2312277,20.3977758 54.9198252,20.8247195 55.3492253,21.3307268 C55.7786253,21.8367342 55.9933254,22.4805382 55.9933254,23.2621388 C55.9933254,24.1205441 55.724116,24.7914557 55.1856973,25.2748734 C54.6472785,25.7582911 53.915296,26 52.9897497,26 C52.3623361,26 51.7905443,25.8689802 51.2743743,25.6069407 C50.7582042,25.3449012 50.3543901,24.9699136 50.0629321,24.481978 C49.771474,23.9940423 49.6257449,23.4180071 49.6257449,22.7538725 L51.5947557,22.7538725 C51.5947557,23.3231308 51.7037743,23.7365207 51.9218117,23.9940423 C52.139849,24.2515639 52.4958284,24.3803247 52.9897497,24.3803247 C53.6750099,24.3803247 54.01764,24.012114 54.01764,23.2756926 Z" id="Path"></path>
                    </g>
                    <g id="Group-Copy" transform="translate(10.000000, 12.000000)" fill="#FFFFFF">
                        <path d="M20,24.3514197 C22.2437953,24.3514197 24.3227855,23.6541422 26.0271785,22.4669007 L28.6690696,25.0785785 C26.35837,26.8471547 23.4792425,27.9253059 20.3484813,27.9999809 L19.6524212,28.0000024 C16.5144858,27.9253507 13.6293002,26.8426195 11.3158268,25.0670024 L13.9572713,22.4560479 C15.6645623,23.6498918 17.7493763,24.3514197 20,24.3514197 Z M31.266,5.35 L39.9769876,14.0607401 L31.326,22.711 L28.697,20.113 L34.7811669,14.0296275 L28.668,7.918 L31.266,5.35 Z M8.719,5.364 L11.317,7.932 L5.21883308,14.0296275 L11.289,20.099 L8.66,22.697 L0.0230124485,14.0607401 L8.719,5.364 Z M20,0 C23.2655659,0 26.2731186,1.09163439 28.669347,2.92576645 L26.0266457,5.5368609 C24.3223523,4.34984519 22.2435615,3.65271295 20,3.65271295 C17.7492296,3.65271295 15.6642905,4.35433234 13.9569375,5.54831818 L11.3154346,2.93743126 C13.7141417,1.09626375 16.7275171,0 20,0 Z" id="Combined-Shape"></path>
                        <path d="M20,6.20961202 C24.3551087,6.20961202 27.8856218,9.69841265 27.8856218,14.0020663 C27.8856218,18.30572 24.3551087,21.7945206 20,21.7945206 C15.6448913,21.7945206 12.1143782,18.30572 12.1143782,14.0020663 C12.1143782,9.69841265 15.6448913,6.20961202 20,6.20961202 Z M19.9248188,6.69218655 L17.0672,13.7518277 C17.0033885,13.9094716 17.0033885,14.0857533 17.0672,14.2433972 L17.0672,14.2433972 L19.9248188,21.3030384 L22.7824377,14.2433972 C22.8462492,14.0857533 22.8462492,13.9094716 22.7824377,13.7518277 L22.7824377,13.7518277 L19.9248188,6.69218655 Z M19.9248188,13.3482413 C20.2921076,13.3482413 20.5898539,13.6389747 20.5898539,13.9976125 C20.5898539,14.3562503 20.2921076,14.6469837 19.9248188,14.6469837 C19.5575301,14.6469837 19.2597838,14.3562503 19.2597838,13.9976125 C19.2597838,13.6389747 19.5575301,13.3482413 19.9248188,13.3482413 Z" id="Combined-Shape"></path>
                    </g>
                </g>
            </g>
        </g>
    </g>
</svg>
