<?xml version="1.0" encoding="UTF-8"?>
<svg width="61px" height="42px" viewBox="0 0 61 42" version="1.1" xmlns="http://www.w3.org/2000/svg" xmlns:xlink="http://www.w3.org/1999/xlink">
    <title>logo</title>
    <g id="Account" stroke="none" stroke-width="1" fill="none" fill-rule="evenodd">
        <g id="Email-verified" transform="translate(-689.000000, -18.000000)" fill="#000000">
            <g id="Group-Copy" transform="translate(690.000000, 18.000000)">
                <path d="M29.8498971,36.5268361 C33.1992683,36.5268361 36.3026737,35.4812939 38.8470607,33.7010143 L42.7918255,37.6182412 C39.3335785,40.2772583 35.0226484,41.8956422 30.3354098,42.0004391 L29.3643843,42.0004391 C24.6666553,41.8954076 20.3469212,40.2700066 16.8847621,37.6003724 L20.8287182,33.6841776 C23.3775816,35.4747001 26.4899809,36.5268361 29.8498971,36.5268361 Z M46.675,8.022 L59.7096345,21.0561727 L46.729,34.036 L42.813,30.148 L51.9335813,21.0285955 L42.787,11.882 L46.675,8.022 Z M13.003,8.042 L16.892,11.902 L7.76621284,21.0285955 L16.866,30.128 L12.95,34.015 L-0.00984043466,21.0561727 L13.003,8.042 Z M29.8498971,0 C34.7249209,0 39.2148013,1.63715417 42.7921867,4.38789798 L38.8466041,8.30452775 C36.3023024,6.52444251 33.1990679,5.47902541 29.8498971,5.47902541 C26.4899503,5.47902541 23.377525,6.53118058 20.8286486,8.32173278 L16.8847216,4.40552028 C20.4658352,1.64414774 24.9644717,0 29.8498971,0 Z" id="Combined-Shape"></path>
                <path d="M29.8498971,9.3143432 C36.3520171,9.3143432 41.6230269,14.5475021 41.6230269,21.0029307 C41.6230269,27.4583594 36.3520171,32.6915183 29.8498971,32.6915183 C23.347777,32.6915183 18.0767672,27.4583594 18.0767672,21.0029307 C18.0767672,14.5475021 23.347777,9.3143432 29.8498971,9.3143432 Z M29.7376526,10.0381992 L25.4706701,20.6290529 C25.3757498,20.8646496 25.3757498,21.1278504 25.4706701,21.3634471 L25.4706701,21.3634471 L29.7376526,31.9543008 L34.0046351,21.3634471 C34.0995554,21.1278504 34.0995554,20.8646496 34.0046351,20.6290529 L34.0046351,20.6290529 L29.7376526,10.0381992 Z M29.7376526,20.022201 C30.2860098,20.022201 30.7305412,20.4582976 30.7305412,20.99625 C30.7305412,21.5342024 30.2860098,21.970299 29.7376526,21.970299 C29.1892953,21.970299 28.7447639,21.5342024 28.7447639,20.99625 C28.7447639,20.4582976 29.1892953,20.022201 29.7376526,20.022201 Z" id="Combined-Shape"></path>
            </g>
        </g>
    </g>
</svg>