<?xml version="1.0" encoding="UTF-8"?>
<svg viewBox="0 0 24 24" version="1.1" xmlns="http://www.w3.org/2000/svg" xmlns:xlink="http://www.w3.org/1999/xlink">
    <title>logo-gitee</title>
    <g id="Page-1" stroke="none" stroke-width="1" fill="none" fill-rule="evenodd">
        <g id="HOME-1" transform="translate(-1143.000000, -28.000000)" fill="#FFFFFF" fill-rule="nonzero">
            <g id="logo-gitee" transform="translate(1143.000000, 28.000000)">
                <path d="M12,0 C18.627417,0 24,5.372583 24,12 C24,18.627417 18.627417,24 12,24 C5.372583,24 0,18.627417 0,12 C0,5.372583 5.372583,0 12,0 Z M18.0740773,5.33370075 L9.7777533,5.33370075 C7.32316792,5.33370075 5.33333333,7.32353534 5.33333333,9.77812073 L5.33333333,18.0740774 C5.33333333,18.4013554 5.59864461,18.6666667 5.92592266,18.6666667 L14.6667763,18.6666667 C16.8758547,18.6666667 18.6666667,16.8758547 18.6666667,14.6667763 L18.6666667,11.2594751 C18.6666667,10.9321971 18.4013554,10.6668858 18.0740773,10.6668858 L11.2593001,10.6668858 C10.9320826,10.6670411 10.6667965,10.9322577 10.6665556,11.2594751 L10.6661676,12.740889 C10.6659464,13.0354392 10.8807701,13.2798527 11.1623228,13.3258523 L11.2586017,13.3334734 L11.2586017,13.3334734 L15.4074253,13.3334388 C15.7019756,13.3334319 15.9463346,13.5483316 15.9922628,13.8298973 L16.0000147,13.9260233 L16.0000147,13.9260233 L16.0000147,14.2223029 C16.0000147,15.204137 15.2040808,16.0000709 14.2222467,16.0000709 L8.59220707,16.0000709 C8.264976,16.0000545 7.99970032,15.7347861 7.9996749,15.407555 L7.99951972,9.77806125 C7.99944748,8.84531881 8.71775438,8.08033164 9.6313853,8.00614157 L9.77723872,8.00029328 L9.77723872,8.00029328 L18.0724234,8.00029328 C18.3995579,7.99992563 18.6648097,7.73483828 18.6653803,7.40770407 L18.6662991,5.92628996 C18.6668125,5.63173998 18.452095,5.3872496 18.1705608,5.34114904 L18.0740773,5.33370075 L18.0740773,5.33370075 Z" id="Combined-Shape" ></path>
            </g>
        </g>
    </g>
</svg>
