<?xml version="1.0" encoding="UTF-8"?>
<svg width="48px" height="48px" viewBox="0 0 48 48" version="1.1" xmlns="http://www.w3.org/2000/svg" xmlns:xlink="http://www.w3.org/1999/xlink">
    <title>mail</title>
    <g id="Account" stroke="none" stroke-width="1" fill="none" fill-rule="evenodd">
        <g id="Email-verified" transform="translate(-456.000000, -312.000000)">
            <g id="Group-6" transform="translate(360.000000, 224.000000)">
                <g id="Group-3" transform="translate(72.000000, 64.000000)">
                    <g id="mail" transform="translate(24.000000, 24.000000)">
                        <polygon id="Path" points="0 0 48 0 48 48 0 48"></polygon>
                        <path d="M42,9 C43.6568541,9 45,10.3431457 45,12 L45,36 C45,37.6568541 43.6568541,39 42,39 L6,39 C4.34314575,39 3,37.6568541 3,36 L3,12 C3,10.3431457 4.34314575,9 6,9 L42,9 Z M41.997,12.726 L41.9994285,16.101 L24.7644284,26.0490381 C24.53732,26.1746684 24.2774573,26.25 24,26.25 C23.7225427,26.25 23.46268,26.1746684 23.2397492,26.0433426 L23.2355716,26.0490381 L6,16.101 L6,35.25 C6,35.6050401 6.24670023,35.9024604 6.57803187,35.9801919 L6.75,36 L41.25,36 C41.6050401,36 41.9024604,35.7532998 41.9801919,35.4219681 L42,35.25 L42,12.75 L41.997,12.726 Z M41.25,12 L6.75,12 C6.39495981,12 6.09753954,12.2467002 6.01980804,12.5780319 L6.012,12.639 L24,23.022 L41.988,12.639 L41.9801919,12.5780319 C41.9024604,12.2467002 41.6050401,12 41.25,12 L41.25,12 Z" id="Shape" fill="#FFFFFF" fill-rule="nonzero"></path>
                    </g>
                </g>
            </g>
        </g>
    </g>
</svg>