<?xml version="1.0" encoding="UTF-8"?>
<svg width="65px" height="64px" viewBox="0 0 65 64" version="1.1" xmlns="http://www.w3.org/2000/svg" xmlns:xlink="http://www.w3.org/1999/xlink">
    <title>img</title>
    <g id="Lab" stroke="none" stroke-width="1" fill="none" fill-rule="evenodd">
        <g id="Project-in-Lab---comment" transform="translate(-1205.000000, -508.000000)">
            <g id="Group-12" transform="translate(1040.000000, 80.000000)">
                <g id="Group-9" transform="translate(16.000000, 111.000000)">
                    <g id="Cooment-Content-Block" transform="translate(12.000000, 46.000000)">
                        <g id="Comment-Reply-Content" transform="translate(2.023529, 144.000000)">
                            <g id="img" transform="translate(135.000000, 127.000000)">
                                <rect id="Rectangle-Copy" fill="#D8D8D8" x="0" y="0" width="64" height="64"></rect>
                                <path d="M46.6386341,32.5972113 C51.5826341,32.5972113 55.5920976,36.597838 55.5920976,41.5309416 C55.5920976,46.4640451 51.5826341,50.4646718 46.6386341,50.4646718 C41.6946341,50.4646718 37.6851707,46.4640451 37.6851707,41.5309416 C37.6851707,36.597838 41.6946341,32.5972113 46.6386341,32.5972113 Z M47.0040794,16 C48.590155,16 50,17.1629956 50,18.7427313 L50,18.7427313 L50.0008639,30.8421171 C48.9393871,30.5101324 47.8099929,30.3311922 46.6386341,30.3311922 L46.4898454,30.3334175 L46.4898454,30.3334175 L46.4890393,29.738132 C46.4889222,29.6471963 46.4888088,29.5568642 46.4886988,29.467183 L46.488079,28.9372818 C46.4879824,28.8503921 46.4878889,28.7642475 46.4877985,28.678895 L46.4870665,27.9333823 C46.4869939,27.8532066 46.4869241,27.7739645 46.4868569,27.6957029 L46.4860377,26.6012134 C46.4859947,26.5339357 46.4859539,26.4678741 46.4859151,26.4030759 L46.4851781,24.4008811 C44.9480555,21.1154185 42.3241773,24.0132159 41.8248572,24.6237885 L41.8248572,24.6237885 L31.3685069,36.3894273 L25.5333152,32.0960352 C24.9262986,31.6502203 24.0745173,31.7568282 23.5849878,32.3189427 L23.5849878,32.3189427 L16.9665488,42.185022 C16.5945064,42.6017621 16.5161817,43.2026432 16.7511558,43.7066079 C16.9763394,44.2105727 17.4854501,44.5400881 18.0533043,44.5400881 L18.0533043,44.5400881 L35.8222148,44.5345737 C36.1723706,45.7931001 36.7371734,46.9624254 37.4748285,48.000847 L16.8784335,48 C15.2923579,48 14,46.7110132 14,45.1409692 L14,45.1409692 L14,18.7330396 C14,17.1629956 15.2923579,16 16.8784335,16 L16.8784335,16 Z M46.6386341,44.5088516 C45.8146341,44.5088516 45.1514146,45.1806361 45.1514146,46.00282 C45.1514146,46.8250039 45.8146341,47.4867617 46.6386341,47.4867617 C47.4626341,47.4867617 48.1359024,46.8250039 48.1359024,46.00282 C48.1359024,45.1706094 47.4626341,44.5088516 46.6386341,44.5088516 Z M46.6386341,35.585148 C45.8146341,35.585148 45.1514146,36.2469058 45.1514146,37.0690898 L45.1514146,37.0690898 L45.1514146,41.5409682 C45.1514146,42.3631521 45.8146341,43.0349366 46.6386341,43.0349366 C47.4726829,43.0349366 48.1359024,42.3631521 48.1359024,41.5409682 L48.1359024,41.5409682 L48.1359024,37.0690898 C48.1359024,36.2469058 47.4626341,35.585148 46.6386341,35.585148 Z M25.6018493,19.060793 C23.1639924,19.060793 21.1862932,21.0185022 21.1862932,23.4220264 C21.1862932,25.8255507 23.1639924,27.7832599 25.6018493,27.7832599 C28.0299157,27.7832599 30.0076149,25.8352423 30.0076149,23.4220264 C30.0076149,21.0185022 28.0397063,19.060793 25.6018493,19.060793 Z" id="Combined-Shape" fill="#FFFFFF" fill-rule="nonzero"></path>
                            </g>
                        </g>
                    </g>
                </g>
            </g>
        </g>
    </g>
</svg>