<svg xmlns="http://www.w3.org/2000/svg" viewBox="0 0 200 40"><defs><clipPath id="a"><path d="M1920 0v2160H0V0z"/></clipPath><clipPath id="b"><path d="M200 0v40H0V0z"/></clipPath><clipPath id="c"><path d="M19.858 18.674c1.272.01 2.54.121 3.795.331L29.5 37.232a19.9 19.9 0 0 1-19.279 0l5.847-18.227a24 24 0 0 1 3.79-.331m-6.763 1.031-5.58 13.442c-.504 1.2-1.157 1.332-1.936.527a20 20 0 0 1-4.21-6.548 27.05 27.05 0 0 1 11.726-7.42Zm13.526 0a27.05 27.05 0 0 1 11.726 7.421l-.015-.016-.193.475a19.8 19.8 0 0 1-3.653 5.681l-.36.381c-.773.832-1.405.7-1.931-.526Zm10.905-8.926a19.8 19.8 0 0 1 2.195 9.079 20 20 0 0 1-.195 2.774 39.2 39.2 0 0 0-13.736-4.927l-2.874-6.926zm-20.726 0-2.874 6.926A39.1 39.1 0 0 0 .195 22.632 20 20 0 0 1 0 19.858a19.7 19.7 0 0 1 2.195-9.079zm3.06-.09c.636 0 1.207.388 1.44.98l1.858 5.7a38 38 0 0 0-6.568 0l1.831-5.7c.233-.592.804-.98 1.44-.98ZM19.859 0A19.82 19.82 0 0 1 35.48 7.595a67.6 67.6 0 0 1-15.621 1.831c-5.259 0-10.5-.615-15.616-1.831A19.8 19.8 0 0 1 19.858 0Z"/></clipPath><clipPath id="e"><path d="M3.6 19.332a4 4 0 0 1 1.879.426c.53.263.97.674 1.268 1.184a3.61 3.61 0 0 1 0 3.5 3.1 3.1 0 0 1-1.268 1.184 4 4 0 0 1-1.879.427 4 4 0 0 1-1.868-.427 3.16 3.16 0 0 1-1.274-1.184 3.57 3.57 0 0 1 0-3.5c.302-.509.744-.92 1.274-1.184a4 4 0 0 1 1.868-.426m80.042.426c.53.263.973.674 1.274 1.184a3.65 3.65 0 0 1 0 3.5 3.1 3.1 0 0 1-1.274 1.184 4 4 0 0 1-1.874.427 4 4 0 0 1-1.873-.427 3.16 3.16 0 0 1-1.274-1.184 3.61 3.61 0 0 1 0-3.5 3.1 3.1 0 0 1 1.274-1.184 4.33 4.33 0 0 1 3.747 0m5.158 5.99a2.47 2.47 0 0 1-1.121-.853 2.23 2.23 0 0 1-.39-1.31v-4.153h1.395v4.057c-.03.435.137.86.453 1.158.367.29.828.433 1.295.4a1.86 1.86 0 0 0 1.289-.4c.315-.3.479-.724.447-1.158v-4.057h1.495v4.152c.011.467-.125.926-.39 1.31a2.5 2.5 0 0 1-1.11.853c-.447.173-.92.271-1.397.292l-.28.003-.28-.003a4.5 4.5 0 0 1-1.406-.292Zm-36.753-6.022c.53.263.974.674 1.274 1.185a3.65 3.65 0 0 1 0 3.5 3.1 3.1 0 0 1-1.274 1.184 4 4 0 0 1-1.873.426 4 4 0 0 1-1.874-.426 3.16 3.16 0 0 1-1.274-1.184 3.61 3.61 0 0 1 0-3.5 3.1 3.1 0 0 1 1.274-1.185 4.33 4.33 0 0 1 3.747 0m84.806-.01c.53.262.973.674 1.273 1.184a3.61 3.61 0 0 1 0 3.5 3.1 3.1 0 0 1-1.273 1.184 4 4 0 0 1-1.874.427 4 4 0 0 1-1.869-.427 3.16 3.16 0 0 1-1.273-1.184 3.57 3.57 0 0 1 0-3.5c.302-.509.744-.92 1.273-1.184a4.32 4.32 0 0 1 3.743 0m-115.49-.284v1.052l-3.352-.016v1.548h3.157v1.052h-3.157v1.869h3.352v1.052h-4.852v-6.557zm55.105 0v1.052l-3.242-.047v1.668h3.027v1.053h-3.027v2.805h-1.494v-6.531zm70.48-.043v6.553H145.6l-3.684-4.553v4.553h-1.348v-6.51h1.58l3.489 4.31v-4.31l1.31-.043Zm-134.88.043c.467-.01.93.081 1.358.268.367.158.68.417.906.747.216.328.328.713.32 1.106a1.9 1.9 0 0 1-.32 1.105c-.225.33-.54.589-.906.747a3.2 3.2 0 0 1-1.358.269h-1.394v2.268h-1.49v-6.51zm117.28-.043v6.553h-1.49v-6.51zm-21.906.043a4.1 4.1 0 0 1 1.858.405 2.9 2.9 0 0 1 1.216 1.142c.295.52.445 1.112.431 1.71a3.3 3.3 0 0 1-.431 1.716c-.285.49-.708.886-1.216 1.137a4.14 4.14 0 0 1-1.858.4h-3.01v-6.51zm-10.016 0 3.484 4.31v-4.31h1.327v6.51h-1.353L97.2 21.39v4.553h-1.353v-6.51h1.58Zm-67.573-.016v6.526h-1.348l-3.684-4.553v4.553h-1.347v-6.51h1.579l3.484 4.31v-4.31zm86.847.005 2.632 6.51h-1.606l-.594-1.663h-2.795l-.6 1.664h-1.516l2.632-6.511zm-80.71-.005 2.631 6.51h-1.579l-.6-1.663h-2.81l-.595 1.663h-1.521l2.631-6.51zm89.963 0v1.052l-.016-.026h-2.074v5.474h-1.49v-5.448h-2.063v-1.052zm-80.748 0v1.02h-2.042v5.475h-1.495v-5.443h-2.105v-1.052zm-41.605.92a2.07 2.07 0 0 0-1.095.296 2 2 0 0 0-.747.826 3.02 3.02 0 0 0 0 2.463c.166.337.426.62.747.816.33.198.71.3 1.095.295v.015c.389.006.771-.096 1.105-.294.324-.2.584-.489.748-.832a2.96 2.96 0 0 0 0-2.463 2 2 0 0 0-.748-.826 2.1 2.1 0 0 0-1.105-.295Zm77.068.296c-.322.197-.58.484-.742.826a2.96 2.96 0 0 0 0 2.463c.163.338.421.622.742.816.332.199.713.3 1.1.295v.015c.387.005.768-.097 1.1-.294a1.96 1.96 0 0 0 .748-.832 2.96 2.96 0 0 0 0-2.463 1.96 1.96 0 0 0-.748-.826 2.2 2.2 0 0 0-2.2 0m-31.61-.016a2 2 0 0 0-.742.826 2.96 2.96 0 0 0 0 2.463c.162.343.42.632.742.832.332.199.713.3 1.1.295l.016-.016c.38.006.754-.09 1.084-.28.325-.198.587-.487.753-.83.35-.784.35-1.68 0-2.464a2 2 0 0 0-.753-.826 2.2 2.2 0 0 0-2.2 0m85.942-.28a2.05 2.05 0 0 0-1.095.296 2 2 0 0 0-.747.826 3.02 3.02 0 0 0 0 2.463c.16.335.412.617.726.816.33.199.71.301 1.095.295v-.027a2.1 2.1 0 0 0 1.121-.268 1.96 1.96 0 0 0 .753-.832 2.96 2.96 0 0 0 0-2.463 1.97 1.97 0 0 0-.753-.81 2.1 2.1 0 0 0-1.1-.295Zm-27.847.132h-1.243v4.443h1.243a2.3 2.3 0 0 0 1.694-.6 2.17 2.17 0 0 0 .606-1.622h.01a2.17 2.17 0 0 0-.605-1.636 2.3 2.3 0 0 0-1.705-.585m7.563 2.774 2.026-.026-1.011-2.794zM35.032 20.39l-1.037 2.853 2.042-.031zm-23.29.011H10.69v2.305h1.053c.374.023.745-.081 1.053-.294a1.06 1.06 0 0 0 .368-.736v-.122a1.02 1.02 0 0 0-.368-.853 1.64 1.64 0 0 0-1.053-.3ZM98.358.247v1.306h-3.732l-.352 1.463h3.468v5.126a.974.974 0 0 1-.974.974H94.89v4.431a.974.974 0 0 1-.973.974h-1.71v-1.31h.736v-4.1H90.09v-6.1h2.137l.353-1.464h-3.321v5.821c0 2.364-.305 5.31-1.374 7.137H86.1c1.053-2.358 1.205-4.679 1.205-6.947V.248h11.053ZM104.042 0v.947h6.658V0h1.947v.947h1.516v1.306h-1.516v5.552h2.032v1.306h-2.032a9.6 9.6 0 0 0 1.69 3.157h-1.863a8.1 8.1 0 0 1-1.795-3.157h-2.332v1.22h2.4v1.306h-2.4v1.579h6.316v1.305h-14.6v-1.31h6.316v-1.58h-2.384v-1.3h2.4v-1.22h-2.332a8 8 0 0 1-1.795 3.157h-1.863a9.6 9.6 0 0 0 1.69-3.157h-2.032V7.805h2.032V2.237h-1.516V.932h1.516V0zm-6.647 10.163a9.14 9.14 0 0 0 1.137 4.358h-1.795c-.837-1.158-1.18-2.779-1.242-4.358Zm-5.185 0c-.068 1.558-.405 3.2-1.242 4.358h-1.794a9.14 9.14 0 0 0 1.136-4.358ZM67.236.257h13.6v1.306h-2.104v5.058h2.631v1.274h-2.631v6.62h-1.948v-6.62h-5.031a10.53 10.53 0 0 1-2.542 6.6h-2.227a10.28 10.28 0 0 0 2.8-6.6h-3.047v-1.29h3.047V1.547h-2.547zm61.17 4.259V5.82h-3.359v1.984h5.263V9.11h-5.263v4.1h1.516l1-2.969h2.037l-1 2.969h2.763v1.305h-14.62V13.21h2.762l-1-2.969h2.027l1 2.969h1.542v-4.1h-5.264V7.805h5.264V5.821h-3.353V4.516h8.684ZM14.1.242v1.305h-2.105v5.058h2.631v1.29h-2.631v6.62h-1.948v-6.62H5.016a10.53 10.53 0 0 1-2.537 6.6H.22a10.22 10.22 0 0 0 2.826-6.6H0v-1.29h3.063V1.547H.516V.242zm25.8 9.916c-.126 1.558-.484 3.253-1.363 4.358h-1.91a9.4 9.4 0 0 0 1.278-4.358ZM50.557.257h13.575v1.306l-5.216 4.069v.99h5.731v1.273h-5.731v5.647a.974.974 0 0 1-.974.974h-4.805V13.21h3.831V7.895h-6.936v-1.29h6.936V4.763l4.116-3.216H50.558zm96.406 7.548v1.306h-8l-1.684 4.1h7.026l-.963-2.574h2.026l1.458 3.879h-12.22l2.215-5.405h-2.3V7.805zM34.336.257h13.87v1.306h-4.864l-.437 1.463h4.684v5.127a.974.974 0 0 1-.963.958h-3.158v4.431a.974.974 0 0 1-.973.974h-2.363V13.21h1.389v-4.1h-4.105v-6.1h3.42l.438-1.464h-4.99v5.821c0 2.364-.305 5.31-1.368 7.137h-1.784c1.052-2.358 1.205-4.679 1.205-6.947zM20.836 0l.632 2.105h2.527v1.31h-4.316v1.627h3.59v8.5a.974.974 0 0 1-.974.974h-2.537V13.21h1.579V6.316h-1.642v.916c0 2.41-.353 5.505-1.732 7.268h-1.779c1.337-2.453 1.58-4.737 1.58-7.074V3.4h-1.296V2.105h3.064L18.9 0h1.937Zm6.396 0a20 20 0 0 1-.2 2.105h4.557V3.4h-.752a16.06 16.06 0 0 1-2.032 7.558 19.5 19.5 0 0 0 3 3.558h-2.547a15.4 15.4 0 0 1-1.58-1.884 19 19 0 0 1-1.704 1.868h-2.327a16 16 0 0 0 2.98-3.563 15.7 15.7 0 0 1-1.58-4.621h-1.236A14.8 14.8 0 0 0 25.205 0Zm19.673 10.158a9.4 9.4 0 0 0 1.3 4.358H46.29c-.873-1.105-1.236-2.78-1.357-4.358ZM86.132 6.61c0 3.105-.453 5.889-1.358 7.894h-1.916a21 21 0 0 0 1.295-7.894ZM28.847 3.4h-2.063c-.073.326-.163.647-.258.963a16.7 16.7 0 0 0 1.153 4.458A18.4 18.4 0 0 0 28.847 3.4M110.7 2.237h-6.658v.984h6.068v1.305h-6.068v.985h6.068v1.331h-6.068v.984h6.658zM95.816 4.32h-3.758v1.105h3.158v1.306h-3.158v1.09h3.758v-3.5Zm-50.174 0H39.38v1.09l-.021.01h5.531v1.305h-5.51v1.09h6.263zm31.09-2.758H71.72V6.62h5.01V1.563ZM10.02 1.547H5.016v5.058h5.005V1.547ZM129.037.242a13.8 13.8 0 0 0 2.447 5.58h-1.858a10.44 10.44 0 0 1-2.284-4.275h-6.61a10.44 10.44 0 0 1-2.285 4.274h-1.852a13.8 13.8 0 0 0 2.442-5.579zm16.01 4.274V5.82h-8.673V4.516zm.669-4.274a13.8 13.8 0 0 0 2.49 5.58h-1.859a10.5 10.5 0 0 1-2.279-4.275h-6.679a10.44 10.44 0 0 1-2.284 4.274h-1.858A13.7 13.7 0 0 0 135.69.242zm-60.39 3.19.821 2.205H84.2l-.821-2.205zm0-3.185.821 2.206H84.2L83.379.247zM63.915 25.91h-1.452v-4.82l-1.9 4.852h-1.579L57.105 21.1v4.842h-1.352v-6.51h2.105l1.926 5.11 1.969-5.11h2.163z"/></clipPath><linearGradient id="d" x1="26.779" x2="13.316" y1="31.079" y2="9.368" gradientUnits="userSpaceOnUse"><stop offset="0%" stop-color="#1281FF"/><stop offset="100%" stop-color="#5CE9FF"/></linearGradient></defs><g clip-path="url(#a)" transform="translate(-144 -16)"><g clip-path="url(#b)" transform="translate(144 16)"><g clip-path="url(#c)"><path fill="url(#d)" d="M0 0h39.721v39.721H0z"/></g><g clip-path="url(#e)" transform="translate(51.795 6.842)"><path fill="#231815" d="M0 0h148.205v26.053H0z"/></g></g></g></svg>