<?xml version="1.0" encoding="UTF-8"?>
<svg viewBox="0 0 88 88" version="1.1" xmlns="http://www.w3.org/2000/svg" xmlns:xlink="http://www.w3.org/1999/xlink">
    <title>logo-square</title>
    <g id="Page-1" stroke="none" stroke-width="1" fill="none" fill-rule="evenodd">
        <g id="HOME-1" transform="translate(-110.000000, -2433.000000)">
            <g id="Group-17" transform="translate(0.000000, 2433.000000)">
                <g id="logo-square" transform="translate(110.000000, 0.000000)">
                    <rect id="Rectangle" fill="#000000" x="0" y="0" width="88" height="88"></rect>
                    <g id="Chaoss-Compass" transform="translate(10.000000, 52.000000)" fill="#FFFFFF" fill-rule="nonzero">
                        <path d="M6.76805721,6.71589217 C6.71911005,7.84085493 6.40762813,8.69248337 5.83361144,9.27077748 C5.25959476,9.84907159 4.44974176,10.1382186 3.40405244,10.1382186 C2.30496623,10.1382186 1.4628526,9.77113742 0.877711561,9.03697498 C0.29257052,8.30281253 0,7.25578393 0,5.89588919 L0,4.23555258 C0,2.88017575 0.302582439,1.83540612 0.907747318,1.10124367 C1.5129122,0.367081223 2.35391339,0 3.43075089,0 C4.48978943,0 5.29408025,0.300441863 5.84362336,0.901325588 C6.39316647,1.50220931 6.70576083,2.36513256 6.78140644,3.49009532 L4.81239571,3.49009532 C4.79459674,2.79433522 4.68891538,2.31430593 4.49535161,2.05000745 C4.30178784,1.78570897 3.94692094,1.65355973 3.43075089,1.65355973 C2.90568137,1.65355973 2.53412793,1.83992404 2.31609058,2.21265267 C2.09805324,2.58538129 1.98235995,3.19868931 1.96901073,4.05257671 L1.96901073,5.91621984 C1.96901073,6.89660908 2.07691696,7.56977957 2.29272944,7.93573131 C2.50854191,8.30168305 2.87898292,8.48465892 3.40405244,8.48465892 C3.92022249,8.48465892 4.27620183,8.3570276 4.47199046,8.10176497 C4.6677791,7.84650233 4.77902265,7.38454473 4.8057211,6.71589217 L6.76805721,6.71589217 Z" id="Path"></path>
                        <polygon id="Path" points="14.7909416 10.002681 12.8352801 10.002681 12.8352801 5.78068216 9.93849821 5.78068216 9.93849821 10.002681 7.9761621 10.002681 7.9761621 0.135537682 9.93849821 0.135537682 9.93849821 4.12712243 12.8352801 4.12712243 12.8352801 0.135537682 14.7909416 0.135537682"></polygon>
                        <path d="M21.005006,7.9831695 L18.3284863,7.9831695 L17.8078665,10.002681 L15.732062,10.002681 L18.7690107,0.135537682 L20.5644815,0.135537682 L23.6214541,10.002681 L21.5256257,10.002681 L21.005006,7.9831695 Z M18.7556615,6.32283289 L20.5711561,6.32283289 L19.6634088,2.80563003 L18.7556615,6.32283289 Z" id="Shape"></path>
                        <path d="M31.3706794,5.95688114 C31.3706794,7.28063251 31.0625348,8.30845993 30.4462455,9.04036342 C29.8299563,9.7722669 28.9744934,10.1382186 27.879857,10.1382186 C26.7896702,10.1382186 25.933095,9.77565535 25.3101311,9.05052875 C24.6871673,8.32540214 24.3712356,7.30999901 24.3623361,6.00431933 L24.3623361,4.31687519 C24.3623361,2.96149836 24.6715932,1.90317496 25.2901073,1.14190497 C25.9086214,0.380634992 26.7674215,0 27.8665077,0 C28.947795,0 29.7999205,0.373858107 30.4228844,1.12157432 C31.0458482,1.86929054 31.3617799,2.9185781 31.3706794,4.269437 L31.3706794,5.95688114 Z M29.4016687,4.30332142 C29.4016687,3.41329064 29.2770759,2.75141495 29.0278903,2.31769437 C28.7787048,1.88397379 28.3915773,1.66711349 27.8665077,1.66711349 C27.345888,1.66711349 26.9609853,1.87606742 26.7117998,2.29397528 C26.4626142,2.71188313 26.3335717,3.34778076 26.3246722,4.20166816 L26.3246722,5.95688114 C26.3246722,6.81980439 26.4514899,7.45570202 26.7051251,7.86457402 C26.9587604,8.27344603 27.3503377,8.47788204 27.879857,8.47788204 C28.3915773,8.47788204 28.7720302,8.27796396 29.0212157,7.87812779 C29.2704013,7.47829163 29.3972189,6.85820673 29.4016687,6.0178731 L29.4016687,4.30332142 Z" id="Shape"></path>
                        <path d="M36.8839094,7.41391123 C36.8839094,7.01181611 36.7826778,6.7079858 36.5802145,6.50242032 C36.3777513,6.29685483 36.0095352,6.08338298 35.4755662,5.86200477 C34.5010727,5.48701718 33.8002384,5.04764919 33.3730632,4.5439008 C32.945888,4.04015242 32.7323004,3.4449161 32.7323004,2.75819184 C32.7323004,1.92689405 33.022646,1.25937097 33.6033373,0.75562258 C34.1840286,0.251874193 34.9215733,0 35.8159714,0 C36.4122368,0 36.9439809,0.127631318 37.4112038,0.382893953 C37.8784267,0.638156588 38.2377433,0.998460927 38.4891538,1.46380697 C38.7405642,1.92915301 38.8662694,2.45774998 38.8662694,3.04959786 L36.9106079,3.04959786 C36.9106079,2.58876973 36.813826,2.23750124 36.6202622,1.99579237 C36.4266985,1.75408351 36.1474772,1.63322907 35.7825983,1.63322907 C35.4399682,1.63322907 35.1729837,1.73601182 34.9816448,1.9415773 C34.7903059,2.14714279 34.6946365,2.42386555 34.6946365,2.77174561 C34.6946365,3.04282097 34.8014303,3.28791828 35.0150179,3.50703753 C35.2286055,3.72615679 35.6068335,3.9531824 36.149702,4.18811439 C37.097497,4.53599444 37.7860946,4.96293814 38.2154946,5.46894549 C38.6448947,5.97495283 38.8595948,6.61875683 38.8595948,7.40035746 C38.8595948,8.25876278 38.5903854,8.92967431 38.0519666,9.41309205 C37.5135479,9.89650978 36.7815654,10.1382186 35.8560191,10.1382186 C35.2286055,10.1382186 34.6568137,10.0071989 34.1406436,9.74515937 C33.6244736,9.48311985 33.2206595,9.10813226 32.9292014,8.6201966 C32.6377433,8.13226095 32.4920143,7.5562258 32.4920143,6.89209115 L34.461025,6.89209115 C34.461025,7.46134942 34.5700437,7.87473935 34.788081,8.13226095 C35.0061184,8.38978254 35.3620977,8.51854334 35.8560191,8.51854334 C36.5412793,8.51854334 36.8839094,8.15033264 36.8839094,7.41391123 Z" id="Path"></path>
                        <path d="M44.266031,7.41391123 C44.266031,7.01181611 44.1647994,6.7079858 43.9623361,6.50242032 C43.7598729,6.29685483 43.3916567,6.08338298 42.8576877,5.86200477 C41.8831943,5.48701718 41.18236,5.04764919 40.7551847,4.5439008 C40.3280095,4.04015242 40.1144219,3.4449161 40.1144219,2.75819184 C40.1144219,1.92689405 40.4047676,1.25937097 40.9854589,0.75562258 C41.5661502,0.251874193 42.3036949,0 43.198093,0 C43.7943584,0 44.3261025,0.127631318 44.7933254,0.382893953 C45.2605483,0.638156588 45.6198649,0.998460927 45.8712753,1.46380697 C46.1226857,1.92915301 46.2483909,2.45774998 46.2483909,3.04959786 L44.2927294,3.04959786 C44.2927294,2.58876973 44.1959476,2.23750124 44.0023838,1.99579237 C43.80882,1.75408351 43.5295987,1.63322907 43.1647199,1.63322907 C42.8220898,1.63322907 42.5551053,1.73601182 42.3637664,1.9415773 C42.1724275,2.14714279 42.076758,2.42386555 42.076758,2.77174561 C42.076758,3.04282097 42.1835518,3.28791828 42.3971395,3.50703753 C42.6107271,3.72615679 42.9889551,3.9531824 43.5318236,4.18811439 C44.4796186,4.53599444 45.1682161,4.96293814 45.5976162,5.46894549 C46.0270163,5.97495283 46.2417163,6.61875683 46.2417163,7.40035746 C46.2417163,8.25876278 45.972507,8.92967431 45.4340882,9.41309205 C44.8956694,9.89650978 44.1636869,10.1382186 43.2381406,10.1382186 C42.6107271,10.1382186 42.0389352,10.0071989 41.5227652,9.74515937 C41.0065952,9.48311985 40.6027811,9.10813226 40.311323,8.6201966 C40.0198649,8.13226095 39.8741359,7.5562258 39.8741359,6.89209115 L41.8431466,6.89209115 C41.8431466,7.46134942 41.9521653,7.87473935 42.1702026,8.13226095 C42.38824,8.38978254 42.7442193,8.51854334 43.2381406,8.51854334 C43.9234009,8.51854334 44.266031,8.15033264 44.266031,7.41391123 Z" id="Path"></path>
                        <path d="M6.76805721,22.5776735 C6.71911005,23.7026363 6.40762813,24.5542647 5.83361144,25.1325588 C5.25959476,25.7108529 4.44974176,26 3.40405244,26 C2.30496623,26 1.4628526,25.6329188 0.877711561,24.8987563 C0.29257052,24.1645939 0,23.1175653 0,21.7576705 L0,20.0973339 C0,18.7419571 0.302582439,17.6971875 0.907747318,16.963025 C1.5129122,16.2288626 2.35391339,15.8617814 3.43075089,15.8617814 C4.48978943,15.8617814 5.29408025,16.1622232 5.84362336,16.7631069 C6.39316647,17.3639907 6.70576083,18.2269139 6.78140644,19.3518767 L4.81239571,19.3518767 C4.79459674,18.6561166 4.68891538,18.1760873 4.49535161,17.9117888 C4.30178784,17.6474903 3.94692094,17.5153411 3.43075089,17.5153411 C2.90568137,17.5153411 2.53412793,17.7017054 2.31609058,18.074434 C2.09805324,18.4471626 1.98235995,19.0604707 1.96901073,19.9143581 L1.96901073,21.7780012 C1.96901073,22.7583904 2.07691696,23.4315609 2.29272944,23.7975127 C2.50854191,24.1634644 2.87898292,24.3464403 3.40405244,24.3464403 C3.92022249,24.3464403 4.27620183,24.218809 4.47199046,23.9635463 C4.6677791,23.7082837 4.77902265,23.2463261 4.8057211,22.5776735 L6.76805721,22.5776735 Z" id="Path"></path>
                        <path d="M14.81764,21.8186625 C14.81764,23.1424139 14.5094954,24.1702413 13.8932062,24.9021448 C13.276917,25.6340483 12.4214541,26 11.3268176,26 C10.2366309,26 9.38005562,25.6374367 8.75709178,24.9123101 C8.13412793,24.1871835 7.81819627,23.1717804 7.80929678,21.8661007 L7.80929678,20.1786565 C7.80929678,18.8232797 8.11855383,17.7649563 8.73706794,17.0036863 C9.35558204,16.2424163 10.2143822,15.8617814 11.3134684,15.8617814 C12.3947557,15.8617814 13.2468812,16.2356395 13.8698451,16.9833557 C14.4928089,17.7310719 14.8087406,18.7803594 14.81764,20.1312183 L14.81764,21.8186625 Z M12.8486293,20.1651028 C12.8486293,19.275072 12.7240366,18.6131963 12.474851,18.1794757 C12.2256655,17.7457551 11.8385379,17.5288948 11.3134684,17.5288948 C10.7928486,17.5288948 10.407946,17.7378488 10.1587604,18.1557566 C9.90957489,18.5736645 9.78053238,19.2095621 9.7716329,20.0634495 L9.7716329,21.8186625 C9.7716329,22.6815857 9.89845054,23.3174834 10.1520858,23.7263554 C10.4057211,24.1352274 10.7972984,24.3396634 11.3268176,24.3396634 C11.8385379,24.3396634 12.2189909,24.1397453 12.4681764,23.7399091 C12.7173619,23.340073 12.8441796,22.7199881 12.8486293,21.8796545 L12.8486293,20.1651028 Z" id="Shape"></path>
                        <polygon id="Path" points="18.7890346 15.997319 20.624553 23.133378 22.4533969 15.997319 25.0164482 15.997319 25.0164482 25.8644623 23.0474374 25.8644623 23.0474374 23.19437 23.227652 19.0808013 21.2853397 25.8644623 19.9504172 25.8644623 18.0081049 19.0808013 18.1883194 23.19437 18.1883194 25.8644623 16.2259833 25.8644623 16.2259833 15.997319"></polygon>
                        <path d="M28.5539928,22.3946976 L28.5539928,25.8644623 L26.5916567,25.8644623 L26.5916567,15.997319 L29.9022646,15.997319 C30.8634088,15.997319 31.6298768,16.3000199 32.2016687,16.9054215 C32.7734605,17.5108232 33.0593564,18.2969417 33.0593564,19.2637772 C33.0593564,20.2306127 32.7767978,20.9941416 32.2116806,21.554364 C31.6465634,22.1145864 30.8634088,22.3946976 29.8622169,22.3946976 L28.5539928,22.3946976 Z M28.5539928,20.734361 L29.9022646,20.734361 C30.2760429,20.734361 30.5652761,20.6101182 30.7699642,20.3616324 C30.9746524,20.1131467 31.0769964,19.7517128 31.0769964,19.277331 C31.0769964,18.7848774 30.9724275,18.3929476 30.7632896,18.1015416 C30.5541518,17.8101355 30.273818,17.6621736 29.9222884,17.6576556 L28.5539928,17.6576556 L28.5539928,20.734361 Z" id="Shape"></path>
                        <path d="M39.0064362,23.8449508 L36.3299166,23.8449508 L35.8092968,25.8644623 L33.7334923,25.8644623 L36.770441,15.997319 L38.5659118,15.997319 L41.6228844,25.8644623 L39.527056,25.8644623 L39.0064362,23.8449508 Z M36.7570918,22.1846142 L38.5725864,22.1846142 L37.6648391,18.6674114 L36.7570918,22.1846142 Z" id="Shape"></path>
                        <path d="M46.6355185,23.2756926 C46.6355185,22.8735975 46.5342868,22.5697672 46.3318236,22.3642017 C46.1293603,22.1586362 45.7611442,21.9451643 45.2271752,21.7237861 C44.2526818,21.3487985 43.5518474,20.9094305 43.1246722,20.4056822 C42.697497,19.9019338 42.4839094,19.3066974 42.4839094,18.6199732 C42.4839094,17.7886754 42.7742551,17.1211523 43.3549464,16.6174039 C43.9356377,16.1136555 44.6731824,15.8617814 45.5675805,15.8617814 C46.1638458,15.8617814 46.69559,15.9894127 47.1628129,16.2446753 C47.6300358,16.4999379 47.9893524,16.8602423 48.2407628,17.3255883 C48.4921732,17.7909344 48.6178784,18.3195313 48.6178784,18.9113792 L46.6622169,18.9113792 C46.6622169,18.4505511 46.565435,18.0992826 46.3718713,17.8575737 C46.1783075,17.6158649 45.8990862,17.4950104 45.5342074,17.4950104 C45.1915773,17.4950104 44.9245928,17.5977932 44.7332539,17.8033587 C44.541915,18.0089241 44.4462455,18.2856469 44.4462455,18.633527 C44.4462455,18.9046023 44.5530393,19.1496996 44.7666269,19.3688189 C44.9802145,19.5879381 45.3584426,19.8149638 45.9013111,20.0498957 C46.8491061,20.3977758 47.5377036,20.8247195 47.9671037,21.3307268 C48.3965038,21.8367342 48.6112038,22.4805382 48.6112038,23.2621388 C48.6112038,24.1205441 48.3419944,24.7914557 47.8035757,25.2748734 C47.2651569,25.7582911 46.5331744,26 45.6076281,26 C44.9802145,26 44.4084227,25.8689802 43.8922527,25.6069407 C43.3760826,25.3449012 42.9722686,24.9699136 42.6808105,24.481978 C42.3893524,23.9940423 42.2436234,23.4180071 42.2436234,22.7538725 L44.2126341,22.7538725 C44.2126341,23.3231308 44.3216528,23.7365207 44.5396901,23.9940423 C44.7577275,24.2515639 45.1137068,24.3803247 45.6076281,24.3803247 C46.2928884,24.3803247 46.6355185,24.012114 46.6355185,23.2756926 Z" id="Path"></path>
                        <path d="M54.01764,23.2756926 C54.01764,22.8735975 53.9164084,22.5697672 53.7139452,22.3642017 C53.5114819,22.1586362 53.1432658,21.9451643 52.6092968,21.7237861 C51.6348033,21.3487985 50.933969,20.9094305 50.5067938,20.4056822 C50.0796186,19.9019338 49.866031,19.3066974 49.866031,18.6199732 C49.866031,17.7886754 50.1563766,17.1211523 50.7370679,16.6174039 C51.3177592,16.1136555 52.0553039,15.8617814 52.949702,15.8617814 C53.5459674,15.8617814 54.0777116,15.9894127 54.5449344,16.2446753 C55.0121573,16.4999379 55.371474,16.8602423 55.6228844,17.3255883 C55.8742948,17.7909344 56,18.3195313 56,18.9113792 L54.0443385,18.9113792 C54.0443385,18.4505511 53.9475566,18.0992826 53.7539928,17.8575737 C53.5604291,17.6158649 53.2812078,17.4950104 52.916329,17.4950104 C52.5736988,17.4950104 52.3067143,17.5977932 52.1153754,17.8033587 C51.9240366,18.0089241 51.8283671,18.2856469 51.8283671,18.633527 C51.8283671,18.9046023 51.9351609,19.1496996 52.1487485,19.3688189 C52.3623361,19.5879381 52.7405642,19.8149638 53.2834327,20.0498957 C54.2312277,20.3977758 54.9198252,20.8247195 55.3492253,21.3307268 C55.7786253,21.8367342 55.9933254,22.4805382 55.9933254,23.2621388 C55.9933254,24.1205441 55.724116,24.7914557 55.1856973,25.2748734 C54.6472785,25.7582911 53.915296,26 52.9897497,26 C52.3623361,26 51.7905443,25.8689802 51.2743743,25.6069407 C50.7582042,25.3449012 50.3543901,24.9699136 50.0629321,24.481978 C49.771474,23.9940423 49.6257449,23.4180071 49.6257449,22.7538725 L51.5947557,22.7538725 C51.5947557,23.3231308 51.7037743,23.7365207 51.9218117,23.9940423 C52.139849,24.2515639 52.4958284,24.3803247 52.9897497,24.3803247 C53.6750099,24.3803247 54.01764,24.012114 54.01764,23.2756926 Z" id="Path"></path>
                    </g>
                    <g id="Group-Copy" transform="translate(10.000000, 12.000000)" fill="#FFFFFF">
                        <path d="M20,24.3514197 C22.2437953,24.3514197 24.3227855,23.6541422 26.0271785,22.4669007 L28.6690696,25.0785785 C26.35837,26.8471547 23.4792425,27.9253059 20.3484813,27.9999809 L19.6524212,28.0000024 C16.5144858,27.9253507 13.6293002,26.8426195 11.3158268,25.0670024 L13.9572713,22.4560479 C15.6645623,23.6498918 17.7493763,24.3514197 20,24.3514197 Z M31.266,5.35 L39.9769876,14.0607401 L31.326,22.711 L28.697,20.113 L34.7811669,14.0296275 L28.668,7.918 L31.266,5.35 Z M8.719,5.364 L11.317,7.932 L5.21883308,14.0296275 L11.289,20.099 L8.66,22.697 L0.0230124485,14.0607401 L8.719,5.364 Z M20,0 C23.2655659,0 26.2731186,1.09163439 28.669347,2.92576645 L26.0266457,5.5368609 C24.3223523,4.34984519 22.2435615,3.65271295 20,3.65271295 C17.7492296,3.65271295 15.6642905,4.35433234 13.9569375,5.54831818 L11.3154346,2.93743126 C13.7141417,1.09626375 16.7275171,0 20,0 Z" id="Combined-Shape"></path>
                        <path d="M20,6.20961202 C24.3551087,6.20961202 27.8856218,9.69841265 27.8856218,14.0020663 C27.8856218,18.30572 24.3551087,21.7945206 20,21.7945206 C15.6448913,21.7945206 12.1143782,18.30572 12.1143782,14.0020663 C12.1143782,9.69841265 15.6448913,6.20961202 20,6.20961202 Z M19.9248188,6.69218655 L17.0672,13.7518277 C17.0033885,13.9094716 17.0033885,14.0857533 17.0672,14.2433972 L17.0672,14.2433972 L19.9248188,21.3030384 L22.7824377,14.2433972 C22.8462492,14.0857533 22.8462492,13.9094716 22.7824377,13.7518277 L22.7824377,13.7518277 L19.9248188,6.69218655 Z M19.9248188,13.3482413 C20.2921076,13.3482413 20.5898539,13.6389747 20.5898539,13.9976125 C20.5898539,14.3562503 20.2921076,14.6469837 19.9248188,14.6469837 C19.5575301,14.6469837 19.2597838,14.3562503 19.2597838,13.9976125 C19.2597838,13.6389747 19.5575301,13.3482413 19.9248188,13.3482413 Z" id="Combined-Shape"></path>
                    </g>
                </g>
            </g>
        </g>
    </g>
</svg>
