<?xml version="1.0" encoding="UTF-8"?>
<svg  width="16px" height="16px" viewBox="0 0 16 16" version="1.1" xmlns="http://www.w3.org/2000/svg" xmlns:xlink="http://www.w3.org/1999/xlink">
    <title>average</title>
    <g id="Page-1" stroke="none" stroke-width="1" fill="none" fill-rule="evenodd">
        <g id="Projects-compare" transform="translate(-1266.000000, -1359.000000)">
            <g id="Group-8-Copy-3" transform="translate(285.000000, 1293.989623)">
                <g id="average" transform="translate(981.000000, 65.010377)">
                    <polygon id="Path" points="0 0 16 0 16 16 0 16"></polygon>
                    <path d="M8,1 C10.4325255,1 12.5752527,2.24077356 13.8298176,4.12395653 C13.8986301,4.18459834 13.950783,4.26376999 13.9782599,4.35371238 C14.6259229,5.41607644 15,6.66435303 15,8 C15,9.33564697 14.6259229,10.5839236 13.9768219,11.6457766 C13.950783,11.73623 13.8986301,11.8154017 13.829692,11.8759119 C12.5752527,13.7592264 10.4325255,15 8,15 C5.56747455,15 3.42474729,13.7592264 2.17018238,11.8760435 C2.10136987,11.8154017 2.04921701,11.73623 2.02174008,11.6462876 C1.37407709,10.5839236 1,9.33564697 1,8 C1,6.66435303 1.37407709,5.41607644 2.02317809,4.35422342 C2.04921701,4.26376999 2.10136987,4.18459834 2.17030802,4.12408807 C3.42474729,2.24077356 5.56747455,1 8,1 Z M12.4714352,12.0008689 L3.52856479,12.0008689 C4.62718157,13.2278632 6.22341969,14 8,14 C9.77658031,14 11.3728184,13.2278632 12.4714352,12.0008689 Z M13.9793885,8.50090367 L2.02061151,8.50090367 C2.09543109,9.40616706 2.37121776,10.2544272 2.80325037,11.000963 L13.1967496,11.000963 C13.6287822,10.2544272 13.9045689,9.40616706 13.9793885,8.50090367 Z M13.1973296,5.00003939 L2.80267039,5.00003939 C2.37081176,5.74660726 2.09519439,6.59486343 2.02052886,7.50009733 L13.9794711,7.50009733 C13.9048056,6.59486343 13.6291882,5.74660726 13.1973296,5.00003939 Z M8,2 C6.22293692,2 4.62631407,2.77255645 3.52766929,4.0001315 L12.4723307,4.0001315 C11.3736859,2.77255645 9.77706308,2 8,2 Z" id="Combined-Shape" fill="#585858" fill-rule="nonzero"></path>
                </g>
            </g>
        </g>
    </g>
</svg>
