<?xml version="1.0" encoding="UTF-8"?>
<svg width="16px" height="16px" viewBox="0 0 16 16" version="1.1" xmlns="http://www.w3.org/2000/svg" xmlns:xlink="http://www.w3.org/1999/xlink">
    <title>download</title>
    <g id="Project" stroke="none" stroke-width="1" fill="none" fill-rule="evenodd">
        <g id="Community" transform="translate(-1273.000000, -420.000000)">
            <g id="submenu" transform="translate(1258.000000, 128.000000)">
                <g id="Group-4" transform="translate(1.000000, 284.000000)">
                    <g id="download" transform="translate(14.000000, 8.000000)">
                        <polygon id="Path" points="0 0 16 0 16 16 0 16"></polygon>
                        <path d="M3.09090909,9.28125 C3.16149733,9.28125 3.21925134,9.3375 3.21925134,9.40625 L3.21925134,9.40625 L3.21925134,11.8125 L12.7807487,11.8125 L12.7807487,9.40625 C12.7807487,9.3375 12.8385027,9.28125 12.9090909,9.28125 L12.9090909,9.28125 L13.8716578,9.28125 C13.942246,9.28125 14,9.3375 14,9.40625 L14,9.40625 L14,12.5 C14,12.7765625 13.7705882,13 13.486631,13 L13.486631,13 L2.51336898,13 C2.22941176,13 2,12.7765625 2,12.5 L2,12.5 L2,9.40625 C2,9.3375 2.05775401,9.28125 2.12834225,9.28125 L2.12834225,9.28125 Z M8.47967914,2 C8.55026738,2 8.60802139,2.05625 8.60802139,2.125 L8.60802139,2.125 L8.60802139,7.4125 L9.79679144,7.4125 C9.90427807,7.4125 9.96363636,7.5328125 9.89786096,7.6140625 L9.89786096,7.6140625 L8.10106952,9.828125 C8.04973262,9.8921875 7.95026738,9.8921875 7.89893048,9.828125 L7.89893048,9.828125 L6.10213904,7.6125 C6.03636364,7.53125 6.09572193,7.4109375 6.20320856,7.4109375 L6.20320856,7.4109375 L7.38877005,7.4109375 L7.38877005,2.125 C7.38877005,2.05625 7.44652406,2 7.5171123,2 L7.5171123,2 Z" id="Combined-Shape" fill="#585858" fill-rule="nonzero"></path>
                    </g>
                </g>
            </g>
        </g>
    </g>
</svg>