<?xml version="1.0" encoding="UTF-8"?>
<svg width="16px" height="16px" viewBox="0 0 16 16" version="1.1" xmlns="http://www.w3.org/2000/svg" xmlns:xlink="http://www.w3.org/1999/xlink">
    <title>Governance Repository</title>
    <g id="Project" stroke="none" stroke-width="1" fill="none" fill-rule="evenodd">
        <g id="Artboard" transform="translate(-49.000000, -37.000000)">
            <g id="Governance-Repository" transform="translate(49.000000, 37.000000)">
                <rect id="Rectangle" x="0" y="0" width="16" height="16"></rect>
                <path d="M7.06992059,1.20352815 C7.61563525,0.95929437 8.23176013,0.934870991 8.79155683,1.13025802 L8.97589565,1.20352815 L13.9418307,3.55560859 C14.5946079,3.89269155 14.9869905,4.46258859 14.9996824,5.12197739 L14.9958169,5.27566742 L14.995,8 L13.992,8 L13.99283,5.45567357 L8.594,8 C8.37072129,8.12130583 8.17272129,8.18195874 8,8.18195874 C7.769,8.18195874 7.538,8.12130583 7.307,8 L2.05298623,5.45667361 L2.05298623,10.6568515 C2.00798682,10.9826626 2.2076042,11.2720225 2.50312434,11.4585899 L2.60497901,11.5178809 L7,13.682 L7,14.74 L2.10398555,12.3759103 C1.50122422,12.0426681 1.07057896,11.4768026 1.00789248,10.8230397 L1,10.6578515 L1,5.27466738 C1,4.60235868 1.34489345,4.00851694 1.95781837,3.67249525 L2.10398555,3.5996101 L7.06992059,1.20352815 Z M8.02290812,1.92655288 C7.90292521,1.92880117 7.78515023,1.9558345 7.67682336,2.0054695 L7.57191401,2.06255753 L2.60497901,4.41463797 C2.57164611,4.444639 2.51609128,4.47508448 2.46794376,4.50508551 L2.40498161,4.54964259 L8.02290812,7.2197339 L13.6408346,4.50564108 C13.6075017,4.47497337 13.5519469,4.44475012 13.5037994,4.41467502 L13.4408372,4.36963644 L8.47390221,2.01655596 C8.32390418,1.97255445 8.17290616,1.92655288 8.02290812,1.92655288 Z M14.998255,9.5 L10,9.5 C9.44771525,9.5 9,9.94771525 9,10.5 L9,13.4985973 C9,14.0508821 9.44771525,14.4985973 10,14.4985973 L10.675139,14.4985973 C10.7414431,14.4985973 10.8050309,14.5249365 10.851915,14.5718206 L12.3019153,15.921821 C12.3995464,16.0194521 12.5578376,16.0194521 12.6554687,15.921821 L14.120113,14.557176 C14.1576203,14.5196687 14.2084917,14.4985973 14.261535,14.4985973 L14.998255,14.4985973 C15.5505398,14.4985973 15.998255,14.0508821 15.998255,13.4985973 L15.998255,10.5 C15.998255,9.94771525 15.5505398,9.5 14.998255,9.5 Z M14.598256,10.4 C14.8743984,10.4 15.098256,10.6238576 15.098256,10.9 L15.098256,13.098597 L15.0902,13.188473 C15.047864,13.4217222 14.8437159,13.598597 14.598256,13.598597 L13.782245,13.598597 C13.7159409,13.598597 13.6523531,13.6249369 13.605469,13.671821 L12.478692,14.698597 L11.351915,13.671821 C11.3050309,13.6249369 11.2414431,13.598597 11.175139,13.598597 L10.4,13.598597 L10.310124,13.590542 C10.0768748,13.548206 9.9,13.3440569 9.9,13.098597 L9.9,10.9 L9.908056,10.810124 C9.95039196,10.5768748 10.1545401,10.4 10.4,10.4 L14.598256,10.4 Z" id="Shape" fill="#585858" fill-rule="nonzero"></path>
            </g>
        </g>
    </g>
</svg>