<?xml version="1.0" encoding="UTF-8"?>
<svg width="16px" height="16px" viewBox="0 0 16 16" version="1.1" xmlns="http://www.w3.org/2000/svg" xmlns:xlink="http://www.w3.org/1999/xlink">
    <title>number-100</title>
    <g id="Page-1" stroke="none" stroke-width="1" fill="none" fill-rule="evenodd">
        <g id="Artboard" transform="translate(-151.000000, -109.000000)">
            <g id="number-100" transform="translate(151.000000, 109.000000)">
                <polygon id="Path" points="0 0 16 0 16 16 0 16"></polygon>
                <path d="M2,8 C2,11.3137085 4.6862915,14 8,14 C9.5668014,14 10.9933358,13.3994455 12.0619681,12.4159715 C13.4578761,11.0771659 13.5592444,10.9983333 13.8964466,11 C14.0345126,11.0006824 14.1464466,11.1119288 14.1464466,11.25 L14.1464466,13.8964466 C14.1464466,14.0345178 14.0345178,14.1464466 13.8964466,14.1464466 C13.8301425,14.1464466 13.766554,14.1201074 13.7196699,14.0732233 L12.769483,13.1237118 C11.5194501,14.2878401 9.84289199,15 8,15 C4.13400675,15 1,11.8659932 1,8 L1.00805567,7.91012437 C1.05039163,7.67687516 1.25454011,7.5 1.5,7.5 C1.77614237,7.5 2,7.72385763 2,8 Z M7.4560838,5.5 C8.64061241,5.5 9.15632554,6.36410635 9.15632554,7.99630724 C9.15632554,9.6506647 8.62449637,10.5 7.4560838,10.5 C6.27961322,10.5 5.76390008,9.6506647 5.76390008,7.99630724 C5.76390008,6.34194978 6.28767123,5.5 7.4560838,5.5 Z M11.2997583,5.5 C12.4842869,5.5 13,6.36410635 13,7.99630724 C13,9.6506647 12.4681708,10.5 11.2997583,10.5 C10.1232877,10.5 9.60757454,9.6506647 9.60757454,7.99630724 C9.60757454,6.34194978 10.1313457,5.5 11.2997583,5.5 Z M4.70829976,5.53692762 C4.84528606,5.53692762 4.9983884,5.55169867 5.11120064,5.57385524 L5.11120064,5.57385524 L5.11120064,10.3818316 C4.95004029,10.4113737 4.78887994,10.4261448 4.62771958,10.4261448 C4.45850121,10.4261448 4.30539887,10.4113737 4.1361805,10.3818316 L4.1361805,10.3818316 L4.1361805,6.63737075 L3.40290089,7.0140325 C3.19339243,6.87370753 3.01611604,6.57828656 3,6.27548006 L3,6.27548006 L4.28928284,5.57385524 C4.4101531,5.54431315 4.56325544,5.53692762 4.70829976,5.53692762 Z M7.4560838,6.34194978 C6.96454472,6.34194978 6.79532635,6.89586411 6.79532635,7.99630724 C6.79532635,9.13367799 6.96454472,9.68759232 7.4560838,9.68759232 C7.9556809,9.68759232 8.12489927,9.12629247 8.12489927,7.99630724 C8.12489927,6.89586411 7.9556809,6.34194978 7.4560838,6.34194978 Z M11.2997583,6.34194978 C10.8082192,6.34194978 10.6390008,6.89586411 10.6390008,7.99630724 C10.6390008,9.13367799 10.8082192,9.68759232 11.2997583,9.68759232 C11.7993554,9.68759232 11.9685737,9.12629247 11.9685737,7.99630724 C11.9685737,6.89586411 11.7993554,6.34194978 11.2997583,6.34194978 Z M8,1 C11.7854517,1 14.8690987,4.00478338 14.995941,7.75935025 L15,8 C15,8.27614237 14.7761424,8.5 14.5,8.5 C14.2238576,8.5 14,8.27614237 14,8 C14,4.6862915 11.3137085,2 8,2 C6.50913761,2 5.16839852,2.55286929 4.09591131,3.44375215 C2.83561941,4.59644661 2.59654431,4.84644661 2.25,4.84644661 C2.11192881,4.84644661 2,4.7345178 2,4.59644661 L2,1.95 C2,1.81192881 2.11192881,1.7 2.25,1.7 C2.31630412,1.7 2.3798926,1.72633921 2.4267767,1.77322331 L3.38789718,2.73408853 C4.6196115,1.65443089 6.23338049,1 8,1 Z" id="Shape" fill="currentColor" fill-rule="nonzero"></path>
            </g>
        </g>
    </g>
</svg>