<?xml version="1.0" encoding="UTF-8"?>
<svg width="16px" height="16px" viewBox="0 0 16 16" version="1.1" xmlns="http://www.w3.org/2000/svg" xmlns:xlink="http://www.w3.org/1999/xlink">
    <title>number-1</title>
    <g id="Page-1" stroke="none" stroke-width="1" fill="none" fill-rule="evenodd">
        <g id="Artboard" transform="translate(-121.000000, -109.000000)">
            <g id="number-1" transform="translate(121.000000, 109.000000)">
                <polygon id="Path" points="0 0 16 0 16 16 0 16"></polygon>
                <path d="M2,8 C2,11.3137085 4.6862915,14 8,14 C9.5668014,14 10.9933358,13.3994455 12.0619681,12.4159715 C13.4578761,11.0771659 13.5592444,10.9983333 13.8964466,11 C14.0345126,11.0006824 14.1464466,11.1119288 14.1464466,11.25 L14.1464466,13.8964466 C14.1464466,14.0345178 14.0345178,14.1464466 13.8964466,14.1464466 C13.8301425,14.1464466 13.766554,14.1201074 13.7196699,14.0732233 L12.769483,13.1237118 C11.5194501,14.2878401 9.84289199,15 8,15 C4.13400675,15 1,11.8659932 1,8 L1.00805567,7.91012437 C1.05039163,7.67687516 1.25454011,7.5 1.5,7.5 C1.77614237,7.5 2,7.72385763 2,8 Z M8,1 C11.7854517,1 14.8690987,4.00478338 14.995941,7.75935025 L15,8 C15,8.27614237 14.7761424,8.5 14.5,8.5 C14.2238576,8.5 14,8.27614237 14,8 C14,4.6862915 11.3137085,2 8,2 C6.50913761,2 5.16839852,2.55286929 4.09591131,3.44375215 C2.83561941,4.59644661 2.59654431,4.84644661 2.25,4.84644661 C2.11192881,4.84644661 2,4.7345178 2,4.59644661 L2,1.95 C2,1.81192881 2.11192881,1.7 2.25,1.7 C2.31630412,1.7 2.3798926,1.72633921 2.4267767,1.77322331 L3.38789718,2.73408853 C4.6196115,1.65443089 6.23338049,1 8,1 Z M7.544,10.3433333 L7.544,5.34333333 L8.85666667,5.34333333 L8.85666667,10.3433333 L7.544,10.3433333 Z M6.044,10.3433333 L10.244,10.3433333 L10.244,11.6533333 L6.044,11.6533333 L6.044,10.3433333 Z M6,5.29 L7.54,4.34333333 L8.86,4.34333333 L8.86,5.65333333 L7.54,5.65333333 L6,6.6 L6,5.29 Z" id="Shape" fill="currentColor" fill-rule="nonzero"></path>
            </g>
        </g>
    </g>
</svg>