<?xml version="1.0" encoding="UTF-8"?>
<svg width="16px" height="16px" viewBox="0 0 16 16" version="1.1" xmlns="http://www.w3.org/2000/svg" xmlns:xlink="http://www.w3.org/1999/xlink">
    <title>share</title>
    <g id="Project" stroke="none" stroke-width="1" fill="none" fill-rule="evenodd">
        <g id="Community" transform="translate(-1273.000000, -484.000000)">
            <g id="submenu" transform="translate(1258.000000, 128.000000)">
                <g id="Group-4-Copy-2" transform="translate(1.000000, 348.000000)">
                    <g id="share" transform="translate(14.000000, 8.000000)">
                        <polygon id="Path" points="0 0 16 0 16 16 0 16"></polygon>
                        <path d="M9.5,1.99049788 C9.64061796,1.99049788 9.77473603,2.04971048 9.86947792,2.15362095 L14.8928475,7.66312307 C15.0668769,7.85399407 15.0668769,8.14600593 14.8928475,8.33687693 L9.86947792,13.8463791 C9.68342593,14.0504361 9.36718009,14.065032 9.16312307,13.87898 C9.05921261,13.7842382 9,13.6501201 9,13.5095021 L9,10.5 C5.83195583,10.5 3.567197,11.854928 2.20572353,14.5647841 C2.07166705,14.8315983 1.79859832,15 1.5,15 C1.25454011,15 1.05039163,14.8231248 1.00805567,14.5898756 L1,14.5 L1,14 C1,9.09259259 3.8899177,5.63014403 8.72428619,5.50358812 L9,5.5 L9,2.49049788 C9,2.2143555 9.22385763,1.99049788 9.5,1.99049788 Z M10,3.781 L10,6.48707074 L8.7504556,6.50324564 C5.00850957,6.60120371 2.5535257,8.93823434 2.08267344,12.650571 L2.058,12.867 L2.10952942,12.7943543 C3.6266871,10.6937941 5.84090116,9.58391019 8.67075134,9.50457799 L9,9.5 L10,9.5 L10,12.218 L13.846,7.999 L10,3.781 Z" id="Shape" fill="#585858" fill-rule="nonzero"></path>
                    </g>
                </g>
            </g>
        </g>
    </g>
</svg>