<?xml version="1.0" encoding="UTF-8"?>
<svg width="16px" height="16px" viewBox="0 0 16 16" version="1.1" xmlns="http://www.w3.org/2000/svg" xmlns:xlink="http://www.w3.org/1999/xlink">
    <title>puzzle</title>
    <g id="Project" stroke="none" stroke-width="1" fill="none" fill-rule="evenodd">
        <g id="Community" transform="translate(-1273.000000, -452.000000)">
            <g id="submenu" transform="translate(1258.000000, 128.000000)">
                <g id="Group-4-Copy" transform="translate(1.000000, 316.000000)">
                    <g id="puzzle" transform="translate(14.000000, 8.000000)">
                        <polygon id="Path" points="0 0 16 0 16 16 0 16"></polygon>
                        <path d="M7.5,1.5 C8.6045695,1.5 9.5,2.3954305 9.5,3.5 L12,3.5 C12.5522847,3.5 13,3.94771525 13,4.5 L13,7 C14.1045695,7 15,7.8954305 15,9 C15,10.1045695 14.1045695,11 13,11 L13,13.5 C13,14.0522847 12.5522847,14.5 12,14.5 L8.499,14.5 L8.5,13.5 C8.5,12.9871642 8.11395981,12.5644928 7.61662113,12.5067277 L7.5,12.5 C6.98716416,12.5 6.56449284,12.8860402 6.50672773,13.3833789 L6.5,13.5 L6.499,14.5 L3,14.5 C2.44771525,14.5 2,14.0522847 2,13.5 L2,10 L3,10 C3.51283584,10 3.93550716,9.61395981 3.99327227,9.11662113 L4,9 C4,8.48716416 3.61395981,8.06449284 3.11662113,8.00672773 L3,8 L2,8 L2,4.5 C2,3.94771525 2.44771525,3.5 3,3.5 L5.5,3.5 C5.5,2.3954305 6.3954305,1.5 7.5,1.5 Z M7.5,2.5 C6.98716416,2.5 6.56449284,2.88604019 6.50672773,3.38337887 L6.5,3.5 L6.5,4.5 L3,4.5 L3,7.001 L3.05759303,7.00165986 L3.23199395,7.01340547 C4.18330344,7.12389858 4.91892946,7.89440253 4.99231725,8.88970283 L4.99834014,9.05759303 L4.98659453,9.23199395 C4.87610142,10.1833034 4.10559747,10.9189295 3.15926678,10.9937286 L3,11 L3,13.5 L5.501,13.5 L5.50165986,13.442407 L5.51340547,13.2680061 C5.62389858,12.3166966 6.39440253,11.5810705 7.38970283,11.5076827 L7.55759303,11.5016599 L7.73199395,11.5134055 C8.68330344,11.6238986 9.41892946,12.3944025 9.49372815,13.3415835 L9.499,13.5 L12,13.5 L12,10 L13,10 C13.5522847,10 14,9.55228475 14,9 C14,8.48716416 13.6139598,8.06449284 13.1166211,8.00672773 L13,8 L12,8 L12,4.5 L8.5,4.5 L8.5,3.5 C8.5,2.94771525 8.05228475,2.5 7.5,2.5 L7.5,2.5 Z" id="Shape" fill="#585858" fill-rule="nonzero"></path>
                    </g>
                </g>
            </g>
        </g>
    </g>
</svg>