<?xml version="1.0" encoding="UTF-8"?>
<svg width="16px" height="16px" viewBox="0 0 16 16" version="1.1" xmlns="http://www.w3.org/2000/svg" xmlns:xlink="http://www.w3.org/1999/xlink">
    <title>Software Artifact Repository</title>
    <g id="Project" stroke="none" stroke-width="1" fill="none" fill-rule="evenodd">
        <g id="Artboard" transform="translate(-49.000000, -66.000000)">
            <g id="Software-Artifact-Repository" transform="translate(49.000000, 66.000000)">
                <rect id="Rectangle" x="0" y="0" width="16" height="16"></rect>
                <path d="M10.9748737,10.9064466 C11.1701359,11.1017088 11.1701359,11.4182912 10.9748737,11.6135534 L9.206,13.381 L10.9748737,15.1490873 C11.1701359,15.3443494 11.1701359,15.6609319 10.9748737,15.8561941 C10.7796116,16.0514562 10.4630291,16.0514562 10.267767,15.8561941 L8.14644661,13.7348737 C7.95118446,13.5396116 7.95118446,13.2230291 8.14644661,13.027767 L10.267767,10.9064466 C10.4630291,10.7111845 10.7796116,10.7111845 10.9748737,10.9064466 Z M13.7335534,10.9064466 L15.8548737,13.027767 C16.0501359,13.2230291 16.0501359,13.5396116 15.8548737,13.7348737 L13.7335534,15.8561941 C13.5382912,16.0514562 13.2217088,16.0514562 13.0264466,15.8561941 C12.8311845,15.6609319 12.8311845,15.3443494 13.0264466,15.1490873 L14.7953203,13.381 L13.0264466,11.6135534 C12.8311845,11.4182912 12.8311845,11.1017088 13.0264466,10.9064466 C13.2217088,10.7111845 13.5382912,10.7111845 13.7335534,10.9064466 Z M7.06992059,1.20352815 C7.61563525,0.95929437 8.23176013,0.934870991 8.79155683,1.13025802 L8.97589565,1.20352815 L13.9418307,3.55560859 C14.5946079,3.89269155 14.9869905,4.46258859 14.9996824,5.12197739 L14.9958169,5.27566742 L14.995,9 L13.992,9 L13.99283,5.45567357 L8.52490155,8.03376175 L8.524,9 L7.47,9 L7.47091534,8.07976333 L2.05298623,5.45667361 L2.05298623,10.6568515 C2.00798682,10.9826626 2.2076042,11.2720225 2.50312434,11.4585899 L2.60497901,11.5178809 L6,13.19 L6,14.257 L2.10398555,12.3759103 C1.50122422,12.0426681 1.07057896,11.4768026 1.00789248,10.8230397 L1,10.6578515 L1,5.27466738 C1,4.60235868 1.34489345,4.00851694 1.95781837,3.67249525 L2.10398555,3.5996101 L7.06992059,1.20352815 Z M8.02290812,1.92655288 C7.90292521,1.92880117 7.78515023,1.9558345 7.67682336,2.0054695 L7.57191401,2.06255753 L2.60497901,4.41463797 C2.57164611,4.444639 2.51609128,4.47508448 2.46794376,4.50508551 L2.40498161,4.54964259 L8.02290812,7.2197339 L13.6408346,4.50564108 C13.6075017,4.47497337 13.5519469,4.44475012 13.5037994,4.41467502 L13.4408372,4.36963644 L8.47390221,2.01655596 C8.32390418,1.97255445 8.17290616,1.92655288 8.02290812,1.92655288 Z" id="Shape" fill="#585858" fill-rule="nonzero"></path>
            </g>
        </g>
    </g>
</svg>