<?xml version="1.0" encoding="UTF-8"?>
<svg width="14px" height="14px" viewBox="0 0 14 14" version="1.1" xmlns="http://www.w3.org/2000/svg" xmlns:xlink="http://www.w3.org/1999/xlink">
    <title>Niche Creation</title>
    <g id="Page-1" stroke="none" stroke-width="1" fill="none" fill-rule="evenodd">
        <g id="Artboard" transform="translate(-121.000000, -161.000000)">
            <g id="Niche-Creation" transform="translate(121.000000, 161.000000)">
                <rect id="Rectangle" x="0" y="0" width="14" height="14"></rect>
                <path d="M7,0.142857143 C10.784127,0.142857143 13.8571429,3.21587301 13.8571429,7 C13.8571429,7.27936509 13.6285714,7.50793652 13.3492063,7.50793652 C13.0698413,7.50793652 12.8412698,7.27936509 12.8412698,7 C12.8412698,4.57460317 11.3428571,2.47936509 9.22222223,1.6031746 C9.23492062,2.72063491 8.94285714,3.58412696 8.32063491,4.2063492 C7.66031746,4.85396824 6.91111112,4.81587301 6.3015873,4.79047618 C5.71746031,4.75238096 5.37460317,4.75238096 5.05714286,5.06984127 C4.75238094,5.37460317 4.75238094,5.71746031 4.77777777,6.3015873 C4.81587301,6.8984127 4.85396824,7.64761906 4.2063492,8.2952381 C3.5968254,8.90476192 2.73333333,9.20952382 1.61587301,9.20952382 L1.61587301,9.20952382 L1.59047618,9.20952382 C2.46666667,11.3428571 4.56190475,12.8412698 7,12.8412698 C7.27936509,12.8412698 7.50793652,13.0698413 7.50793652,13.3492063 C7.50793652,13.6285714 7.27936509,13.8571429 7,13.8571429 C3.21587301,13.8571429 0.142857143,10.784127 0.142857143,7 C0.142857143,3.21587301 3.21587301,0.142857143 7,0.142857143 Z M9.81904761,8.04126984 C11.2666667,8.04126984 12.6,8.86666667 13.4888889,10.3142857 C13.5904762,10.4793651 13.615873,10.6698413 13.5650794,10.847619 C13.4761905,11.1650794 13.1968254,11.3047619 12.9301587,11.4444444 C12.7777778,11.5333333 12.6,11.6222222 12.4730159,11.7365079 C11.8888889,12.2571429 10.7714286,13.1206349 9.81904761,13.1206349 C8.95555556,13.1206349 8.18095239,12.6761905 7.72380953,12.0031746 C7.58412699,12.1428571 7.45714286,12.2825397 7.36825397,12.4095238 C7.26666665,12.5492064 7.11428571,12.6253968 6.94920634,12.6253968 C6.84761904,12.6253968 6.74603174,12.6 6.65714286,12.5365079 C6.42857143,12.3714286 6.37777777,12.0539683 6.54285714,11.8253968 C6.73333333,11.5587302 6.98730158,11.2793651 7.31746031,11.0126984 C7.2920635,10.8730159 7.27936509,10.7206349 7.27936509,10.5809524 C7.27936507,9.18412699 8.42222221,8.04126984 9.81904761,8.04126984 Z M9.83174603,9.05714286 C9.05714286,9.05714286 8.42222221,9.62857143 8.32063491,10.3650794 C8.58730158,10.2380952 8.87936509,10.1365079 9.1968254,10.047619 C9.46349205,9.97142857 9.74285714,10.1365079 9.81904761,10.4031746 C9.89523808,10.6698413 9.73015873,10.9492064 9.46349205,11.0253968 C9.12063493,11.1142857 8.80317462,11.2412698 8.53650795,11.3936508 C8.8031746,11.8253968 9.27301587,12.1047619 9.81904761,12.1047619 C10.2634921,12.1047619 11.0380952,11.6603175 11.8,10.9746032 C12.0031746,10.784127 12.231746,10.6571429 12.4349206,10.568254 C11.7619048,9.6031746 10.8222222,9.05714286 9.83174603,9.05714286 Z M6.98730158,1.13333333 C3.76190475,1.13333333 1.14603174,3.74920634 1.14603174,6.97460317 C1.14603174,7.38095239 1.1968254,7.78730158 1.27301587,8.16825397 C2.27619049,8.23174603 3.02539683,8.02857143 3.48253969,7.57142857 C3.78730158,7.26666667 3.78730158,6.92380953 3.76190475,6.35238096 C3.72380951,5.74285714 3.68571429,4.99365078 4.34603174,4.34603174 C4.9936508,3.71111112 5.74285714,3.74920634 6.35238096,3.77460317 C6.93650795,3.8 7.2920635,3.8 7.60952382,3.48253969 C8.07936509,3.01269842 8.28253969,2.27619047 8.18095239,1.26031746 C7.8,1.17142857 7.39365078,1.13333333 6.98730158,1.13333333 Z" id="Combined-Shape" fill="#000000" fill-rule="nonzero"></path>
            </g>
        </g>
    </g>
</svg>