<?xml version="1.0" encoding="UTF-8"?>
<svg  viewBox="0 0 14 14" version="1.1" xmlns="http://www.w3.org/2000/svg" xmlns:xlink="http://www.w3.org/1999/xlink">
    <title>Productivity</title>
    <g id="Page-1" stroke="none" stroke-width="1" fill="none" fill-rule="evenodd">
        <g id="Artboard" transform="translate(-47.000000, -161.000000)">
            <g id="Productivity" transform="translate(47.000000, 161.000000)">
                <rect id="Rectangle" x="0" y="0" width="14" height="14"></rect>
                <path d="M12.0929977,3.19052165 L7.83648199,1.1744527 C7.31675374,0.941849099 6.72251732,0.941849099 6.20278907,1.1744527 L1.94627333,3.22823723 C1.34285266,3.50081798 1,4.04340797 1,4.66400061 L1,9.27815842 C1,9.89789391 1.38656638,10.4413411 1.94627333,10.7507802 L6.20278907,12.8062791 C6.45992857,12.9228545 6.76163891,13 7.01963553,13 C7.32048874,13 7.57848536,12.9228545 7.83648199,12.8062791 L12.0501411,10.7902101 C12.6518476,10.4799138 13.0392711,9.93646665 12.9964145,9.315874 L12.9964145,4.66485779 C13.0392711,4.04426513 12.6955613,3.50167515 12.0929977,3.19052165 Z M6.63306916,1.91076359 C6.74875335,1.83709482 6.8825122,1.79675765 7.01963553,1.79418819 C7.14820528,1.79418819 7.27763216,1.8336181 7.4062019,1.87133368 L11.6635748,3.8882598 C11.7064314,3.92683256 11.7921445,3.9654053 11.8350011,4.00483521 L7.01963553,6.33120049 L2.20426995,4.04255079 C2.24712654,4.00483521 2.33283971,3.9654053 2.37569629,3.92683255 L6.63306916,1.91076359 Z M2.37569629,10.0144693 C2.07570022,9.85932116 1.85970304,9.58759758 1.90255962,9.27730125 L1.90255962,4.82000595 L3.66567941,5.67289226 L3.66567941,7.53381305 C3.66567941,7.68810404 3.75139258,7.84410938 3.92367604,7.92125487 L4.22452925,8.07640304 C4.26738583,8.07640304 4.26738583,8.1149758 4.3102424,8.11497578 C4.43966927,8.11497578 4.52538244,8.03783029 4.52538244,7.92125487 L4.52538244,6.09804966 L6.54649887,7.06836857 L6.54649887,12.0699682 L2.37569629,10.0153265 L2.37569629,10.0144693 Z M11.6635748,10.0144693 L7.44991561,12.0305383 L7.44991561,7.02893864 L12.1367114,4.81914877 L12.1367114,9.27815842 C12.1367114,9.58759757 11.964428,9.85932115 11.6635748,10.0144693 Z" id="Shape" fill="#000000" fill-rule="nonzero"></path>
            </g>
        </g>
    </g>
</svg>
