<svg viewBox="0 0 216 166" fill="none" xmlns="http://www.w3.org/2000/svg">
    <g id="c49af758062c38662250e5e8c5096f6e">
        <rect width="216" height="166" ></rect>
        <path id="3aa2182d544eeacb7d973da5af34a832"
              d="M100.832 110.754C126.421 125.528 158.022 118.699 171.415 95.5022C184.808 72.305 174.921 41.5236 149.332 26.75C123.744 11.9764 92.1429 18.805 78.75 42.0022C65.3571 65.1994 75.2437 95.9808 100.832 110.754Z"
              fill="white" stroke="black"></path>
        <path id="c3847ef4e959517866c5dd70021ab5b8"
              d="M100.832 110.754C126.421 125.528 158.022 118.699 171.415 95.5022C184.808 72.305 174.921 41.5236 149.332 26.75C123.744 11.9764 92.1429 18.805 78.75 42.0022C65.3571 65.1994 75.2437 95.9808 100.832 110.754Z"
              fill="white" stroke="black"></path>
        <path id="5c038552c7341d9f051df17332c3d190"
              d="M100.832 110.754C126.421 125.528 158.022 118.699 171.415 95.5022C184.808 72.305 174.921 41.5236 149.332 26.75C123.744 11.9764 92.1429 18.805 78.75 42.0022C65.3571 65.1994 75.2437 95.9808 100.832 110.754Z"
              fill="white" stroke="black"></path>
        <path id="9262d96ed34e578e418ae8465cfe97a7"
              d="M100.832 110.754C126.421 125.528 158.022 118.699 171.415 95.5022C184.808 72.305 174.921 41.5236 149.332 26.75C123.744 11.9764 92.1429 18.805 78.75 42.0022C65.3571 65.1994 75.2437 95.9808 100.832 110.754Z"
              fill="black" stroke="black"></path>
    </g>
</svg>