<?xml version="1.0" encoding="UTF-8"?>
<svg viewBox="0 0 24 24" version="1.1" xmlns="http://www.w3.org/2000/svg" xmlns:xlink="http://www.w3.org/1999/xlink">
    <title>logo-github</title>
    <g id="Page-1" stroke="none" stroke-width="1" fill="none" fill-rule="evenodd">
        <g id="HOME-1" transform="translate(-1079.000000, -28.000000)" fill="#FFFFFF" fill-rule="nonzero">
            <g id="logo-github" transform="translate(1079.000000, 28.000000)">
                <path d="M-4.15683113e-16,12.30525 C-4.15683113e-16,17.74275 3.4395,22.35 8.20725,23.97825 C8.28225,23.99475 8.34675,24 8.4105,24 C8.85525,24 9.027,23.673 9.027,23.3895 C9.027,23.09475 9.01575,22.323 9.0105,21.29475 C8.5605,21.396 8.15925,21.4395 7.8,21.4395 C5.49075,21.4395 4.96575,19.64475 4.96575,19.64475 C4.41975,18.225 3.63225,17.84475 3.63225,17.84475 C2.5875,17.1105 3.627,17.0895 3.70725,17.0895 C4.91775,17.19675 5.55,18.3645 5.55,18.3645 C6.15,19.4145 6.95325,19.70925 7.67175,19.70925 C8.23425,19.70925 8.74275,19.527 9.04275,19.38675 C9.15,18.59475 9.4605,18.05325 9.80325,17.74275 C7.14075,17.43225 4.3395,16.377 4.3395,11.6625 C4.3395,10.31775 4.80525,9.21975 5.571,8.3625 C5.448,8.052 5.0355,6.798 5.6895,5.10525 C5.6895,5.10525 5.775,5.07825 5.95725,5.07825 C6.39075,5.07825 7.37175,5.24475 8.9895,6.36975 C9.96799793,6.09703422 10.9789592,5.9582699 11.99475,5.95725 C13.0125,5.9625 14.04075,6.096 15,6.36975 C16.61775,5.24475 17.598,5.07825 18.03225,5.07825 C18.2145,5.07825 18.3,5.10525 18.3,5.10525 C18.95325,6.798 18.54075,8.052 18.41775,8.3625 C19.18425,9.225 19.65,10.323 19.65,11.6625 C19.65,16.3875 16.84275,17.427 14.16975,17.73225 C14.598,18.1125 14.98425,18.8625 14.98425,20.00925 C14.98425,21.65325 14.96775,22.98225 14.96775,23.38425 C14.96775,23.673 15.13425,24 15.57825,24 C15.64275,24 15.71775,23.99475 15.79275,23.97825 C20.56575,22.35 24,17.73825 24,12.30525 C24,5.5125 18.627,0 12,0 C5.373,0 -4.15683113e-16,5.5125 -4.15683113e-16,12.30525 L-4.15683113e-16,12.30525 Z" id="Path"></path>
            </g>
        </g>
    </g>
</svg>
