<?xml version="1.0" encoding="UTF-8"?> <!-- Generator: Adobe Illustrator 25.0.0, SVG Export Plug-In . SVG Version: 6.00 Build 0) --> <svg xmlns="http://www.w3.org/2000/svg" xmlns:xlink="http://www.w3.org/1999/xlink" version="1.1" id="Layer_1" x="0px" y="0px" viewBox="0 0 400 245" style="enable-background:new 0 0 400 245;" xml:space="preserve"> <style type="text/css"> .st0{fill:#1B1B1B;} .st1{fill:#66C9BA;} .st2{fill:#009ADE;} .st3{fill:#D50057;} .st4{fill:#C19ADE;} </style> <g> <path class="st0" d="M38.7,158.9c-5.1,0-9.9-1-14.4-2.9c-4.5-2-8.4-4.6-11.7-8c-3.4-3.3-6-7.3-8-11.7c-2-4.5-2.9-9.3-2.9-14.4 c0-5.1,1-9.9,2.9-14.4c2-4.5,4.6-8.4,8-11.7c3.4-3.3,7.3-6,11.7-8c4.5-2,9.3-2.9,14.4-2.9c6.6,0,12.7,1.6,18.4,4.8 c1.1,0.6,1.8,1.5,2.1,2.6c0.3,1.2,0.1,2.3-0.4,3.3c-0.6,1.1-1.5,1.8-2.7,2.1c-1.2,0.3-2.3,0.1-3.4-0.4c-2.1-1.3-4.4-2.2-6.7-2.8 c-2.4-0.6-4.8-0.9-7.3-0.9c-3.9,0-7.6,0.7-11,2.2c-3.4,1.5-6.4,3.5-8.9,6c-2.5,2.5-4.5,5.5-6,9c-1.5,3.5-2.2,7.1-2.2,11 c0,3.9,0.7,7.6,2.2,11c1.5,3.4,3.5,6.4,6,9c2.5,2.6,5.5,4.6,8.9,6.1c3.4,1.5,7.1,2.2,11,2.2c2.7,0,5.4-0.4,7.9-1.1 c2.6-0.8,5-1.8,7.2-3.2c1.1-0.7,2.2-1,3.4-0.7c1.2,0.3,2.1,0.9,2.8,2c0.7,1.1,0.9,2.2,0.6,3.3c-0.3,1.2-0.9,2.1-2,2.8 C52.5,157,45.9,158.9,38.7,158.9z"></path> <path class="st0" d="M70,85.3c1.2,0,2.2,0.4,3.1,1.2c0.9,0.8,1.3,1.9,1.3,3.1v64.5c0,1.2-0.4,2.2-1.3,3.1c-0.9,0.9-1.9,1.3-3.1,1.3 c-1.3,0-2.3-0.4-3.1-1.3c-0.8-0.9-1.2-1.9-1.2-3.1V89.7c0-1.3,0.4-2.3,1.2-3.1C67.7,85.7,68.7,85.3,70,85.3z M117.4,85.3 c1.3,0,2.3,0.4,3.1,1.2c0.8,0.8,1.2,1.9,1.2,3.1v64.5c0,1.2-0.4,2.2-1.2,3.1c-0.8,0.9-1.9,1.3-3.1,1.3c-1.2,0-2.2-0.4-3.1-1.3 c-0.9-0.9-1.3-1.9-1.3-3.1v-27.9H84.8c-1.2,0-2.2-0.4-3.1-1.2c-0.9-0.8-1.3-1.9-1.3-3.1c0-1.2,0.4-2.3,1.3-3.1 c0.9-0.9,1.9-1.3,3.1-1.3h28.1V89.7c0-1.3,0.4-2.3,1.3-3.1C115.1,85.7,116.2,85.3,117.4,85.3z"></path> <path class="st0" d="M196.4,155.7c-0.4,1.1-1.2,1.9-2.3,2.4c-1.1,0.5-2.3,0.6-3.4,0.2c-1.1-0.4-2-1.2-2.5-2.3l-7.9-16.9h-20 c-1.3,0-2.3-0.4-3.1-1.2c-0.8-0.8-1.2-1.9-1.2-3.1c0-1.2,0.4-2.2,1.2-3.1c0.8-0.9,1.9-1.3,3.1-1.3h15.8l-13.9-29.9L137.7,156 c-0.4,0.9-1,1.5-1.7,1.9c-0.7,0.4-1.5,0.6-2.4,0.6c-0.6,0-1.2-0.1-1.8-0.3c-1.1-0.5-1.9-1.4-2.3-2.5c-0.4-1.1-0.4-2.3,0.1-3.4 l28.6-64.2c0.3-0.8,0.9-1.4,1.6-1.9c0.7-0.5,1.5-0.7,2.4-0.7c0.9,0,1.7,0.2,2.4,0.6c0.7,0.4,1.3,1,1.6,1.8l30.1,64.3 C196.7,153.5,196.8,154.6,196.4,155.7z"></path> <path class="st0" d="M317.1,159.3h-1.7c-3.1,0-6.2-0.5-9.3-1.4c-3.1-0.9-5.8-2.3-8.3-4.2s-4.5-4.3-6-7.2c-1.5-2.9-2.3-6.4-2.3-10.4 c0-1.2,0.4-2.2,1.3-3.1c0.9-0.9,1.9-1.3,3.2-1.3c1.2,0,2.2,0.4,3.1,1.3c0.9,0.9,1.3,1.9,1.3,3.1c0,2.3,0.4,4.3,1.1,5.9s1.7,3,2.9,4 c1.2,1.1,2.4,1.9,3.8,2.5c1.4,0.6,2.7,1,3.9,1.3c1.3,0.3,2.4,0.5,3.3,0.5s1.6,0.1,1.8,0.1h1.7c1.8,0,3.6-0.3,5.4-0.9 c1.8-0.6,3.4-1.4,4.9-2.5c1.5-1.1,2.7-2.3,3.6-3.7c0.9-1.4,1.4-3,1.4-4.6c0-2.7-1.3-5-3.8-6.9c-2.6-2-6.9-3.9-13-5.8l-1.8-0.6 c-2.8-1-5.6-2.1-8.5-3.2c-2.9-1.1-5.5-2.5-7.8-4.2c-2.3-1.7-4.2-3.6-5.6-5.9c-1.5-2.3-2.2-5.1-2.2-8.4c0-2.8,0.6-5.4,1.8-7.7 s2.9-4.4,5.1-6.1c2.2-1.7,4.8-3.1,7.8-4c3-1,6.2-1.4,9.7-1.4c1.8,0,3.7,0.1,5.8,0.3c2.1,0.2,4.2,0.6,6.3,1.3 c2.1,0.7,4.1,1.6,6.1,2.9c2,1.3,3.7,3,5.2,5.1c0.4,0.6,0.8,1.3,1.3,2.2c0.5,0.9,0.9,1.8,1.2,2.7c0.3,0.9,0.6,1.8,0.8,2.7 c0.2,0.9,0.3,1.6,0.3,2.3c0,1.2-0.4,2.2-1.3,3.1c-0.8,0.9-1.9,1.3-3.2,1.3c-1.2,0-2.3-0.4-3.1-1.3c-0.9-0.9-1.3-1.9-1.3-3.1 c-0.1-0.3-0.3-1-0.7-2.1c-0.4-1.1-0.9-2-1.3-2.6c-2.7-3.9-8.1-5.9-16.2-5.9c-1.9,0-3.8,0.2-5.6,0.7c-1.8,0.5-3.5,1.1-5,2 s-2.7,2-3.6,3.3c-0.9,1.3-1.3,2.8-1.3,4.5c0,1.7,0.4,3.1,1.2,4.3c0.8,1.2,2,2.4,3.6,3.4c1.6,1,3.5,2,5.7,2.8 c2.3,0.9,4.8,1.8,7.6,2.8l1.7,0.6c2,0.7,4.3,1.5,6.9,2.4c2.6,1,5.1,2.3,7.5,3.9c2.4,1.6,4.4,3.6,6,6c1.6,2.4,2.4,5.3,2.4,8.8 c0,3-0.7,5.7-2.1,8.3c-1.4,2.5-3.3,4.7-5.6,6.5c-2.3,1.8-4.9,3.2-7.7,4.2C322.9,158.9,320,159.3,317.1,159.3z"></path> <path class="st0" d="M374.3,159.3h-1.7c-3.1,0-6.2-0.5-9.3-1.4c-3.1-0.9-5.8-2.3-8.3-4.2c-2.5-1.9-4.5-4.3-6-7.2 c-1.5-2.9-2.3-6.4-2.3-10.4c0-1.2,0.4-2.2,1.3-3.1c0.9-0.9,1.9-1.3,3.2-1.3c1.2,0,2.2,0.4,3.1,1.3c0.9,0.9,1.3,1.9,1.3,3.1 c0,2.3,0.4,4.3,1.1,5.9s1.7,3,2.9,4s2.4,1.9,3.8,2.5c1.4,0.6,2.7,1,3.9,1.3c1.3,0.3,2.4,0.5,3.3,0.5s1.6,0.1,1.8,0.1h1.7 c1.8,0,3.6-0.3,5.4-0.9c1.8-0.6,3.4-1.4,4.9-2.5c1.5-1.1,2.7-2.3,3.6-3.7c0.9-1.4,1.4-3,1.4-4.6c0-2.7-1.3-5-3.8-6.9 c-2.6-2-6.9-3.9-13-5.8l-1.8-0.6c-2.8-1-5.6-2.1-8.5-3.2c-2.9-1.1-5.5-2.5-7.8-4.2c-2.3-1.7-4.2-3.6-5.6-5.9 c-1.5-2.3-2.2-5.1-2.2-8.4c0-2.8,0.6-5.4,1.8-7.7s2.9-4.4,5.1-6.1c2.2-1.7,4.8-3.1,7.8-4c3-1,6.2-1.4,9.7-1.4 c1.8,0,3.7,0.1,5.8,0.3c2.1,0.2,4.2,0.6,6.3,1.3c2.1,0.7,4.1,1.6,6.1,2.9c2,1.3,3.7,3,5.2,5.1c0.4,0.6,0.8,1.3,1.3,2.2 c0.5,0.9,0.9,1.8,1.2,2.7c0.3,0.9,0.6,1.8,0.8,2.7c0.2,0.9,0.3,1.6,0.3,2.3c0,1.2-0.4,2.2-1.3,3.1c-0.8,0.9-1.9,1.3-3.2,1.3 c-1.2,0-2.3-0.4-3.1-1.3c-0.9-0.9-1.3-1.9-1.3-3.1c-0.1-0.3-0.3-1-0.7-2.1c-0.4-1.1-0.9-2-1.3-2.6c-2.7-3.9-8.1-5.9-16.2-5.9 c-1.9,0-3.8,0.2-5.6,0.7c-1.8,0.5-3.5,1.1-5,2s-2.7,2-3.6,3.3c-0.9,1.3-1.3,2.8-1.3,4.5c0,1.7,0.4,3.1,1.2,4.3s2,2.4,3.6,3.4 c1.6,1,3.5,2,5.7,2.8c2.3,0.9,4.8,1.8,7.6,2.8l1.7,0.6c2,0.7,4.3,1.5,6.9,2.4c2.6,1,5.1,2.3,7.5,3.9s4.4,3.6,6,6 c1.6,2.4,2.4,5.3,2.4,8.8c0,3-0.7,5.7-2.1,8.3c-1.4,2.5-3.3,4.7-5.6,6.5c-2.3,1.8-4.9,3.2-7.7,4.2 C380,158.9,377.1,159.3,374.3,159.3z"></path> <g> <g> <path class="st1" d="M258.9,99.9l-0.2,0.3c0.7,0.6,1.3,1.1,2,1.8c2.6,2.6,4.7,5.7,6.2,9.2c0.2,0.5,0.4,1,0.6,1.5 c0,0.1,0.1,0.2,0.1,0.3c0.1,0.4,0.3,0.8,0.4,1.2c0,0.1,0.1,0.2,0.1,0.3c0.1,0.4,0.2,0.9,0.3,1.3c0,0.1,0,0.1,0,0.2 c0.1,0.5,0.2,1,0.3,1.6c0,0,0,0,0,0h0.4h11.9l0,0c-0.1-0.6-0.2-1.3-0.3-1.9c0-0.1,0-0.3-0.1-0.4c-0.1-0.6-0.2-1.2-0.3-1.8 c0-0.1,0-0.2-0.1-0.3c-0.4-1.9-1-3.8-1.7-5.6c0-0.1-0.1-0.2-0.1-0.3c-0.2-0.6-0.4-1.1-0.7-1.7c-0.1-0.1-0.1-0.3-0.2-0.4 c-1.1-2.4-2.4-4.6-3.9-6.7c-0.1-0.1-0.2-0.2-0.3-0.3c-0.4-0.5-0.7-1-1.1-1.4c-0.1-0.1-0.1-0.2-0.2-0.2c-1.2-1.5-2.6-2.9-4-4.2 c-0.1-0.1-0.1-0.1-0.2-0.2c-0.5-0.4-0.9-0.8-1.4-1.2c-0.1-0.1-0.2-0.2-0.3-0.3c-0.5-0.4-1-0.8-1.5-1.2L258.9,99.9z"></path> </g> <g> <path class="st2" d="M230.1,95.4c0.8-0.3,1.5-0.5,2.3-0.8c0.1,0,0.1,0,0.2-0.1c0.7-0.2,1.5-0.4,2.3-0.5c0.1,0,0.2,0,0.3-0.1 c0.8-0.1,1.5-0.2,2.3-0.3c0.1,0,0.2,0,0.3,0c0.8-0.1,1.6-0.1,2.4-0.1c0.8,0,1.6,0,2.4,0.1c0.1,0,0.2,0,0.3,0 c0.8,0.1,1.5,0.2,2.3,0.3c0.1,0,0.2,0,0.3,0.1c0.7,0.1,1.5,0.3,2.2,0.5c0.1,0,0.2,0,0.2,0.1c0.8,0.2,1.5,0.5,2.3,0.7c0,0,0,0,0,0 l0.2-0.3l6-10.4c0,0,0,0,0,0c-0.6-0.3-1.2-0.5-1.7-0.7c-0.2-0.1-0.3-0.1-0.5-0.2c-0.5-0.2-1.1-0.4-1.6-0.6 c-0.2-0.1-0.4-0.1-0.5-0.2c-1-0.3-2.1-0.6-3.1-0.8c-0.2,0-0.3-0.1-0.5-0.1c-0.4-0.1-0.8-0.1-1.2-0.2c-0.4-0.1-0.8-0.2-1.3-0.2 c-0.3-0.1-0.7-0.1-1-0.1c-0.5-0.1-1-0.1-1.5-0.2c-0.3,0-0.6,0-0.8-0.1c-0.8,0-1.6-0.1-2.4-0.1s-1.6,0-2.4,0.1 c-0.3,0-0.6,0-0.8,0.1c-0.5,0-1,0.1-1.5,0.2c-0.3,0-0.7,0.1-1,0.1c-0.4,0.1-0.8,0.1-1.3,0.2c-0.4,0.1-0.8,0.1-1.2,0.2 c-0.2,0-0.3,0.1-0.5,0.1c-1,0.2-2.1,0.5-3.1,0.8c-0.2,0.1-0.4,0.1-0.5,0.2c-0.6,0.2-1.1,0.4-1.6,0.6c-0.2,0.1-0.3,0.1-0.5,0.2 c-0.6,0.2-1.2,0.5-1.7,0.7c0,0,0,0,0,0l6,10.4L230.1,95.4z"></path> </g> <g> <path class="st3" d="M214.9,137.4l0.3-0.3c-0.3-0.5-0.6-1-0.9-1.6c-0.3-0.6-0.6-1.1-0.8-1.7c-0.4-0.9-0.7-1.8-1-2.7 c-0.3-0.9-0.5-1.8-0.7-2.8c-0.4-1.9-0.6-3.8-0.6-5.8c0-2,0.2-3.9,0.6-5.8c0.2-0.9,0.4-1.9,0.7-2.8c0.3-0.9,0.6-1.8,1-2.7 c1.5-3.5,3.6-6.6,6.2-9.2c0.6-0.6,1.2-1.2,1.9-1.7l-0.2-0.4l-6-10.4c0,0,0,0,0,0c-0.2,0.2-0.5,0.4-0.7,0.5 c-0.4,0.3-0.7,0.6-1.1,0.9c0,0,0,0,0,0c0,0,0,0,0,0c-0.5,0.4-1,0.9-1.5,1.3c-0.2,0.2-0.3,0.3-0.5,0.5c-0.3,0.3-0.6,0.6-1,0.9 c-0.2,0.2-0.4,0.4-0.6,0.6c-0.3,0.3-0.5,0.6-0.8,0.9c-0.2,0.2-0.4,0.4-0.6,0.7c-0.2,0.3-0.5,0.6-0.7,0.9 c-0.2,0.2-0.4,0.5-0.6,0.7c-0.2,0.3-0.4,0.6-0.6,0.9c-0.2,0.2-0.4,0.5-0.5,0.7c-0.2,0.3-0.4,0.6-0.6,0.9 c-0.2,0.3-0.3,0.5-0.5,0.8c-0.2,0.3-0.4,0.6-0.5,0.9c-0.2,0.3-0.3,0.5-0.5,0.8c-0.2,0.3-0.3,0.6-0.5,0.9 c-0.2,0.3-0.3,0.6-0.4,0.9c-0.1,0.3-0.3,0.6-0.4,0.8c-0.1,0.3-0.3,0.6-0.4,0.9c-0.1,0.3-0.2,0.5-0.3,0.8c-0.1,0.3-0.3,0.6-0.4,1 c-0.1,0.2-0.2,0.5-0.3,0.8c-0.1,0.4-0.3,0.7-0.4,1.1c-0.1,0.2-0.1,0.4-0.2,0.6c-0.7,2.1-1.2,4.2-1.5,6.4c0,0.1,0,0.2,0,0.3 c-0.1,0.5-0.1,1-0.2,1.5c0,0.1,0,0.3,0,0.4c0,0.5-0.1,1-0.1,1.5c0,0.1,0,0.3,0,0.4c0,0.5,0,1,0,1.5c0,0.1,0,0.3,0,0.4 c0,0.5,0,1,0,1.5c0,0.1,0,0.2,0,0.4c0,0.5,0,1,0.1,1.5c0,0.1,0,0.2,0,0.3c0,0.5,0.1,1,0.2,1.6c0,0.1,0,0.2,0,0.2 c0.1,0.5,0.1,1.1,0.2,1.6c0,0,0,0.1,0,0.1c0.9,5.4,3,10.7,6.1,15.5L214.9,137.4z"></path> </g> <g> <path class="st4" d="M273.8,146.3c0.3-0.4,0.6-0.9,0.9-1.3c0-0.1,0.1-0.1,0.1-0.2c0.3-0.5,0.6-0.9,0.9-1.4c0,0,0-0.1,0.1-0.1 c2.8-4.8,4.6-10.1,5.3-15.8h-11.9h-0.4l0,0c-0.1,0.5-0.2,1-0.3,1.6c0,0,0,0.1,0,0.1c-0.1,0.5-0.2,0.9-0.4,1.4 c0,0.1,0,0.2-0.1,0.3c-0.1,0.4-0.3,0.8-0.4,1.2c0,0.1-0.1,0.2-0.1,0.3c-0.2,0.5-0.4,1-0.6,1.5c-0.4,0.9-0.8,1.7-1.2,2.5 c-1.3,2.5-3,4.7-5,6.6c-1.3,1.3-2.7,2.5-4.3,3.5c-1.5,1-3.2,1.9-5,2.7c-1.3,0.6-2.7,1-4.1,1.4c-2.3,0.6-4.7,0.9-7.2,0.9 c-4,0-7.7-0.8-11.2-2.3c-0.8-0.3-1.5-0.7-2.3-1.1c-0.3-0.2-0.6-0.3-0.9-0.5c-0.4-0.2-0.8-0.5-1.2-0.7c-0.4-0.2-0.7-0.5-1-0.7 c-0.3-0.2-0.6-0.4-0.9-0.7c-0.4-0.3-0.7-0.6-1.1-0.9l0,0l-0.3,0.3l-9.3,7.8c0.9,0.8,1.7,1.6,2.6,2.3c0.1,0.1,0.2,0.2,0.4,0.3 c0.3,0.3,0.7,0.5,1.1,0.8c0.2,0.2,0.4,0.3,0.6,0.5c0.3,0.2,0.7,0.5,1,0.7c0.2,0.2,0.5,0.3,0.7,0.5c0.3,0.2,0.7,0.4,1,0.6 c0.3,0.1,0.5,0.3,0.8,0.4c0.3,0.2,0.7,0.4,1,0.6c0.3,0.1,0.5,0.3,0.8,0.4c0.3,0.2,0.7,0.3,1,0.5c0.3,0.1,0.6,0.3,0.9,0.4 c0.3,0.1,0.6,0.3,0.9,0.4c0.6,0.2,1.2,0.5,1.8,0.7c0.3,0.1,0.6,0.2,0.8,0.3c0.4,0.1,0.8,0.2,1.2,0.4c0.3,0.1,0.6,0.2,0.9,0.2 c0.4,0.1,0.8,0.2,1.2,0.3c0.3,0.1,0.6,0.1,0.9,0.2c0.4,0.1,0.8,0.2,1.2,0.2c0.3,0.1,0.6,0.1,0.9,0.1c0.4,0.1,0.8,0.1,1.3,0.2 c0.3,0,0.6,0.1,0.8,0.1c0.5,0,1,0.1,1.4,0.1c0.2,0,0.5,0,0.7,0c0.7,0,1.5,0.1,2.2,0.1c0.7,0,1.4,0,2-0.1c0.2,0,0.5,0,0.7,0 c0.4,0,0.9-0.1,1.3-0.1c0.3,0,0.5-0.1,0.8-0.1c0.4,0,0.8-0.1,1.2-0.2c0.3,0,0.6-0.1,0.9-0.1c0.4-0.1,0.7-0.1,1.1-0.2 c0.3-0.1,0.6-0.1,0.9-0.2c0.4-0.1,0.7-0.2,1.1-0.2c0.3-0.1,0.6-0.2,0.9-0.2c0.3-0.1,0.7-0.2,1-0.3c0.3-0.1,0.6-0.2,0.9-0.3 c0.3-0.1,0.6-0.2,1-0.3c0.3-0.1,0.6-0.2,0.9-0.3c0.3-0.1,0.6-0.2,0.9-0.4c0.3-0.1,0.6-0.2,0.9-0.4c0.3-0.1,0.6-0.3,0.9-0.4 c0.3-0.1,0.6-0.3,0.9-0.4c0.3-0.1,0.5-0.3,0.8-0.4c0.3-0.2,0.6-0.3,0.9-0.5c0.2-0.1,0.5-0.3,0.7-0.4c0.3-0.2,0.7-0.4,1-0.6 c0.2-0.1,0.3-0.2,0.5-0.3c1.9-1.2,3.6-2.5,5.3-3.9c0.1-0.1,0.1-0.1,0.2-0.2c0.4-0.3,0.7-0.7,1.1-1c0.1-0.1,0.2-0.2,0.3-0.3 c0.3-0.3,0.7-0.7,1-1c0.1-0.1,0.2-0.2,0.3-0.3c0.3-0.4,0.6-0.7,1-1.1c0.1-0.1,0.2-0.2,0.3-0.3c0.3-0.4,0.6-0.8,0.9-1.1 c0.1-0.1,0.2-0.2,0.2-0.3c0.3-0.4,0.6-0.8,0.9-1.2C273.7,146.5,273.7,146.4,273.8,146.3z"></path> </g> </g> </g> </svg> 