<?xml version="1.0" encoding="UTF-8"?>
<svg width="24px" height="28px" viewBox="0 0 24 28" version="1.1" xmlns="http://www.w3.org/2000/svg" xmlns:xlink="http://www.w3.org/1999/xlink">
    <title>icon-step-1</title>
    <defs>
        <linearGradient x1="50%" y1="0%" x2="50%" y2="100%" id="linearGradient-1">
            <stop stop-color="#4FD520" offset="0%"></stop>
            <stop stop-color="#2794AE" offset="100%"></stop>
        </linearGradient>
        <linearGradient x1="50%" y1="0%" x2="50%" y2="100%" id="linearGradient-2">
            <stop stop-color="#FFDA40" offset="0%"></stop>
            <stop stop-color="#E9AA00" offset="100%"></stop>
        </linearGradient>
    </defs>
    <g id="Lab" stroke="none" stroke-width="1" fill="none" fill-rule="evenodd">
        <g id="学术" transform="translate(-464.000000, -968.000000)" fill-rule="nonzero">
            <g id="Group-4" transform="translate(120.000000, 841.000000)">
                <g id="icon-step-1" transform="translate(344.000000, 127.000000)">
                    <path d="M9.93333333,27.1294643 C6.78029179,23.9564002 6.30395384,18.9855489 8.79656379,15.2666421 C11.2891737,11.5477354 16.053562,10.1209313 20.1666667,11.8616071 C20.9485789,12.1948337 21.6819203,12.6329733 22.3466667,13.1640625 C22.3567673,13.1716718 22.370281,13.1728957 22.3815738,13.1672241 C22.3928666,13.1615525 22.4,13.1499589 22.4,13.1372768 L22.4,1.33928571 C22.4,0.599618639 21.8030463,0 21.0666667,0 L1.33333333,0 C0.596953667,0 0,0.599618639 0,1.33928571 L0,26.6607143 C0,27.4003814 0.596953667,28 1.33333333,28 L10.8333333,28 C10.847681,28 10.860419,27.990778 10.8649561,27.9771058 C10.8694932,27.9634337 10.8648115,27.9483792 10.8533333,27.9397321 C10.5290244,27.6905487 10.2216717,27.4198552 9.93333333,27.1294643 Z M4.26666667,4.41964286 C4.26666667,4.34567615 4.32636203,4.28571429 4.4,4.28571429 L16.9333333,4.28571429 C17.0069713,4.28571429 17.0666667,4.34567615 17.0666667,4.41964286 L17.0666667,6.29464286 C17.0666667,6.36860956 17.0069713,6.42857143 16.9333333,6.42857143 L4.4,6.42857143 C4.32636203,6.42857143 4.26666667,6.36860956 4.26666667,6.29464286 L4.26666667,4.41964286 Z M4.26666667,11.2589286 L4.26666667,9.38392857 C4.26666667,9.30996186 4.32636203,9.25 4.4,9.25 L9.33333333,9.25 C9.4069713,9.25 9.46666667,9.30996186 9.46666667,9.38392857 L9.46666667,11.2589286 C9.46666667,11.3328953 9.4069713,11.3928571 9.33333333,11.3928571 L4.4,11.3928571 C4.32636203,11.3928571 4.26666667,11.3328953 4.26666667,11.2589286 Z" id="Shape" fill="url(#linearGradient-1)"></path>
                    <path d="M16.5333333,13 C20.6566667,13 24,16.3582589 24,20.5 C24,24.6417411 20.6566667,28 16.5333333,28 C12.41,28 9.06666667,24.6417411 9.06666667,20.5 C9.06666667,16.3582589 12.41,13 16.5333333,13 Z M19.0266667,16.75 C18.7366667,16.4587054 18.2466667,16.4754464 17.9366667,16.7901786 L17.9366667,16.7901786 L13.2766667,21.4709821 C13.158932,21.5865764 13.0777662,21.7344918 13.0433333,21.8962054 L13.0433333,21.8962054 L12.6,24.1060268 C12.5799095,24.2022854 12.6095331,24.3022276 12.6787688,24.3717724 C12.7480045,24.4413172 12.8475025,24.471073 12.9433333,24.4508929 L12.9433333,24.4508929 L15.1433333,24.0055804 C15.3043282,23.9709938 15.4515862,23.8894656 15.5666667,23.7712054 L15.5666667,23.7712054 L20.2266667,19.0904018 C20.54,18.7790179 20.5566667,18.2868304 20.2666667,17.9955357 L20.2666667,17.9955357 Z" id="Combined-Shape" fill="url(#linearGradient-2)"></path>
                </g>
            </g>
        </g>
    </g>
</svg>