<?xml version="1.0" encoding="UTF-8"?>
<svg width="141px" height="175px" viewBox="0 0 141 175" version="1.1" xmlns="http://www.w3.org/2000/svg" xmlns:xlink="http://www.w3.org/1999/xlink">
    <title>icon-steps</title>
    <g id="Lab" stroke="none" stroke-width="1" fill="none" fill-rule="evenodd">
        <g id="学术" transform="translate(-1154.000000, -1032.000000)" fill="#EEF7E5" fill-rule="nonzero">
            <g id="Group-4" transform="translate(120.000000, 841.000000)">
                <g id="icon-steps" transform="translate(1034.000000, 191.000000)">
                    <path d="M58.203125,169.921875 C39.7282722,151.412334 36.9372295,122.415702 51.542366,100.722079 C66.1475024,79.0284563 94.0638398,70.7054327 118.164062,80.859375 C122.74558,82.8031965 127.042502,85.359011 130.9375,88.4570312 C130.996683,88.5014186 131.075865,88.5085584 131.142034,88.4754741 C131.208203,88.4423897 131.25,88.3747602 131.25,88.3007812 L131.25,7.8125 C131.25,3.49777539 127.752225,0 123.4375,0 L7.8125,0 C3.49777539,0 0,3.49777539 0,7.8125 L0,167.1875 C0,171.502225 3.49777539,175 7.8125,175 L63.4765625,175 C63.5606309,175 63.6352674,174.946205 63.6618522,174.866451 C63.688437,174.786696 63.6610048,174.698879 63.59375,174.648438 C61.6935021,173.194867 59.8926075,171.615822 58.203125,169.921875 Z M25,25.78125 C25,25.3497775 25.3497775,25 25.78125,25 L99.21875,25 C99.6502225,25 100,25.3497775 100,25.78125 L100,36.71875 C100,37.1502225 99.6502225,37.5 99.21875,37.5 L25.78125,37.5 C25.3497775,37.5 25,37.1502225 25,36.71875 L25,25.78125 Z M25,77.34375 L25,66.40625 C25,65.9747775 25.3497775,65.625 25.78125,65.625 L54.6875,65.625 C55.1189725,65.625 55.46875,65.9747775 55.46875,66.40625 L55.46875,77.34375 C55.46875,77.7752225 55.1189725,78.125 54.6875,78.125 L25.78125,78.125 C25.3497775,78.125 25,77.7752225 25,77.34375 Z M96.875,87.5 C72.7148438,87.5 53.125,107.089844 53.125,131.25 C53.125,155.410156 72.7148438,175 96.875,175 C121.035156,175 140.625,155.410156 140.625,131.25 C140.625,107.089844 121.035156,87.5 96.875,87.5 Z M118.515625,123.027344 L91.2109375,150.332031 C90.5366379,151.021883 89.6737979,151.497464 88.7304688,151.699219 L75.8398438,154.296875 C75.2783352,154.414593 74.6953388,154.241017 74.2896608,153.835339 C73.8839828,153.429661 73.7104073,152.846665 73.828125,152.285156 L76.4257812,139.394531 C76.6275362,138.451202 77.1031173,137.588362 77.7929688,136.914062 L105.097656,109.609375 C106.914062,107.773437 109.785156,107.675781 111.484375,109.375 L118.75,116.640625 C120.449219,118.339844 120.351563,121.210937 118.515625,123.027344 L118.515625,123.027344 Z" id="Shape"></path>
                </g>
            </g>
        </g>
    </g>
</svg>