<?xml version="1.0" encoding="UTF-8"?>
<svg width="162px" height="158px" viewBox="0 0 159 158" version="1.1" xmlns="http://www.w3.org/2000/svg" xmlns:xlink="http://www.w3.org/1999/xlink">
    <title>field-bigdata</title>
    <defs>
        <rect id="path-1" x="0" y="0" width="312" height="158"></rect>
        <linearGradient x1="33.2096028%" y1="4.17650967%" x2="71.5664565%" y2="89.2878302%" id="linearGradient-3">
            <stop stop-color="#FFFFFF" offset="0%"></stop>
            <stop stop-color="#F2F2F2" offset="100%"></stop>
        </linearGradient>
        <linearGradient x1="33.2096028%" y1="4.17650967%" x2="71.5664565%" y2="89.2878302%" id="linearGradient-4">
            <stop stop-color="#777777" offset="0%"></stop>
            <stop stop-color="#060606" offset="100%"></stop>
        </linearGradient>
        <linearGradient x1="28.9271659%" y1="0%" x2="72.1253581%" y2="100%" id="linearGradient-5">
            <stop stop-color="#EFEFEF" offset="0%"></stop>
            <stop stop-color="#FBFBFB" offset="100%"></stop>
        </linearGradient>
        <linearGradient x1="28.892067%" y1="1.77635684e-13%" x2="70.2927848%" y2="95.0744516%" id="linearGradient-6">
            <stop stop-color="#F2F2F2" offset="0%"></stop>
            <stop stop-color="#FFFFFF" offset="100%"></stop>
        </linearGradient>
        <linearGradient x1="100%" y1="33.3139868%" x2="0%" y2="66.6860132%" id="linearGradient-7">
            <stop stop-color="#000000" offset="0%"></stop>
            <stop stop-color="#000000" stop-opacity="0" offset="100%"></stop>
        </linearGradient>
    </defs>
    <g id="Page-1" stroke="none" stroke-width="1" fill="none" fill-rule="evenodd">
        <g id="Artboard" transform="translate(-730.000000, -346.000000)">
            <g id="Group-9-Copy-2" transform="translate(604.000000, 345.000000)">
                <rect id="border" stroke="#CFCFCF" x="0.5" y="0.5" width="311" height="159"></rect>
                <g id="Bitmap" transform="translate(0.000000, 1.000000)">
                    <mask id="mask-2" fill="white">
                        <use xlink:href="#path-1"></use>
                    </mask>
                    <g id="Mask"></g>
                    <g id="Group-505" mask="url(#mask-2)">
                        <g transform="translate(223.733717, 95.300386) rotate(120.000000) translate(-223.733717, -95.300386) translate(113.817101, 2.988491)">
                            <path d="M128.341881,13 L128.849378,13.0043588 C134.954994,13.1089411 141.789321,15.0972768 149.010258,19.1655141 L149.630134,19.5193184 L150.418723,19.9827093 C176.131982,35.3335444 196.89757,71.3574266 197.310311,101.333259 L197.316572,102.239739 L197.313919,102.825857 C197.181409,117.419698 192.092968,127.772374 183.895683,132.824421 L183.561662,133.026327 L183.560912,133.035336 L160.096609,146.610743 C168.551023,141.547875 173.765392,130.919931 173.765392,115.868373 C173.765392,85.4113545 152.415672,48.3764611 126.078954,33.147952 C113.444798,25.8425861 101.958289,24.8824714 93.425808,29.22327 L93.0768389,29.4048993 L115.597413,16.3587552 C119.147137,14.2372279 123.258219,13.0902028 127.795384,13.0051085 L128.341881,13 Z" id="Path" stroke="#979797" stroke-width="0.5" fill="url(#linearGradient-3)"></path>
                            <g id="ring" stroke="none" stroke-width="1" fill="none" transform="translate(53.277780, 27.500000)">
                                <path d="M49.9493643,-2.27373675e-13 L50.4568617,0.00435884981 C56.5624775,0.108941053 63.3968047,2.09727677 70.6177418,6.16551411 L71.237618,6.51931838 L72.0262071,6.98270926 C97.7394657,22.3335444 118.505054,58.3574266 118.917794,88.3332594 L118.924056,89.2397392 L118.921403,89.8258569 C118.788893,104.419698 113.700452,114.772374 105.503167,119.824421 L105.169146,120.026327 L105.168396,120.035336 L81.7040929,133.610743 C90.1585068,128.547875 95.3728759,117.919931 95.3728759,102.868373 C95.3728759,72.4113545 74.0231561,35.3764611 47.6864379,20.147952 C35.0522818,12.8425861 23.5657728,11.8824714 15.0332917,16.22327 L14.6843226,16.4048993 L37.2048964,3.35875523 C40.7546204,1.23722794 44.8657026,0.0902028072 49.4028679,0.00510845863 L49.9493643,-2.27373675e-13 Z" id="Path" stroke="#979797" stroke-width="0.5" fill="url(#linearGradient-4)"></path>
                                <path d="M44.6799076,42.8432037 L44.6602817,43.037498 C44.5626976,44.0523705 44.5126142,45.1111374 44.5126142,46.2125382 C44.5126142,63.2818314 56.4782619,84.037197 71.237618,92.572219 C72.2544608,93.1602402 73.2578297,93.6741351 74.2448518,94.1160751 C72.7560515,108.693208 61.4329646,114.149426 47.6864379,106.200102 C32.9263322,97.6658306 20.9606845,76.9097142 20.9606845,59.840421 C20.9606845,43.9472715 31.3350914,36.854843 44.6799076,42.8432037 Z" id="Path" fill="url(#linearGradient-5)"></path>
                                <path d="M47.6864379,106.200102 C32.9263322,97.6658306 20.9606845,76.9097142 20.9606845,59.840421 C20.9606845,42.7718786 32.9263322,35.8539238 47.6864379,44.3881951 C62.4457941,52.9224663 74.4114418,73.6793334 74.4114418,90.7478759 C74.4114418,107.816418 62.4457941,114.735124 47.6864379,106.200102 M47.6864379,20.147952 C21.3497198,4.91944282 -2.27373675e-13,17.2636566 -2.27373675e-13,47.7206748 C-2.27373675e-13,78.1769424 21.3497198,115.211836 47.6864379,130.440345 C74.0231561,145.668854 95.3728759,133.32464 95.3728759,102.868373 C95.3728759,72.4113545 74.0231561,35.3764611 47.6864379,20.147952" id="Fill-43" stroke="#979797" stroke-width="0.5" fill="url(#linearGradient-6)"></path>
                            </g>
                            <g id="Group-504" stroke="none" stroke-width="1" fill="none" transform="translate(45.248711, 87.784473)">
                                <line x1="63.4293208" y1="1.8958621" x2="1.13686838e-13" y2="38.538046" id="Path-2" stroke="url(#linearGradient-7)"></line>
                                <path d="M65.0921225,0.958374445 C65.6175826,1.87276065 65.3035059,3.04089278 64.3905097,3.56865427 C63.4775134,4.09491431 62.3104074,3.78035945 61.7849473,2.86522252 C61.2594873,1.95083632 61.573564,0.782704189 62.4858106,0.254942694 C63.3995564,-0.271317345 64.5666625,0.0432375142 65.0921225,0.958374445" id="Fill-500" fill="#000000"></path>
                            </g>
                            <g id="Group-504" stroke="none" stroke-width="1" fill="none" transform="translate(51.588457, 118.765235)">
                                <line x1="63.4293208" y1="1.8958621" x2="1.13686838e-13" y2="38.538046" id="Path-2" stroke="url(#linearGradient-7)"></line>
                                <path d="M65.0921225,0.958374445 C65.6175826,1.87276065 65.3035059,3.04089278 64.3905097,3.56865427 C63.4775134,4.09491431 62.3104074,3.78035945 61.7849473,2.86522252 C61.2594873,1.95083632 61.573564,0.782704189 62.4858106,0.254942694 C63.3995564,-0.271317345 64.5666625,0.0432375142 65.0921225,0.958374445" id="Fill-500" fill="#000000"></path>
                            </g>
                            <g id="Group-504" stroke="none" stroke-width="1" fill="none" transform="translate(17.928203, 80.463964)">
                                <line x1="63.4293208" y1="1.8958621" x2="1.13686838e-13" y2="38.538046" id="Path-2" stroke="url(#linearGradient-7)"></line>
                                <path d="M65.0921225,0.958374445 C65.6175826,1.87276065 65.3035059,3.04089278 64.3905097,3.56865427 C63.4775134,4.09491431 62.3104074,3.78035945 61.7849473,2.86522252 C61.2594873,1.95083632 61.573564,0.782704189 62.4858106,0.254942694 C63.3995564,-0.271317345 64.5666625,0.0432375142 65.0921225,0.958374445" id="Fill-500" fill="#000000"></path>
                            </g>
                            <g id="Group-504" opacity="0.300000012" stroke="none" stroke-width="1" fill="none" transform="translate(29.267949, 120.104981)">
                                <line x1="63.4293208" y1="1.8958621" x2="1.13686838e-13" y2="38.538046" id="Path-2" stroke="url(#linearGradient-7)"></line>
                                <path d="M65.0921225,0.958374445 C65.6175826,1.87276065 65.3035059,3.04089278 64.3905097,3.56865427 C63.4775134,4.09491431 62.3104074,3.78035945 61.7849473,2.86522252 C61.2594873,1.95083632 61.573564,0.782704189 62.4858106,0.254942694 C63.3995564,-0.271317345 64.5666625,0.0432375142 65.0921225,0.958374445" id="Fill-500" fill="#000000"></path>
                            </g>
                            <g id="Group-504" opacity="0.300000012" stroke="none" stroke-width="1" fill="none" transform="translate(44.267949, 146.085743)">
                                <line x1="63.4293208" y1="1.8958621" x2="0" y2="38.538046" id="Path-2" stroke="url(#linearGradient-7)"></line>
                                <path d="M65.0921225,0.958374445 C65.6175826,1.87276065 65.3035059,3.04089278 64.3905097,3.56865427 C63.4775134,4.09491431 62.3104074,3.78035945 61.7849473,2.86522252 C61.2594873,1.95083632 61.573564,0.782704189 62.4858106,0.254942694 C63.3995564,-0.271317345 64.5666625,0.0432375142 65.0921225,0.958374445" id="Fill-500" fill="#000000"></path>
                            </g>
                            <g id="Group-504" stroke="none" stroke-width="1" fill="none" transform="translate(60.392305, 146.013946)">
                                <line x1="63.4293208" y1="1.8958621" x2="1.13686838e-13" y2="38.538046" id="Path-2" stroke="url(#linearGradient-7)"></line>
                                <path d="M65.0921225,0.958374445 C65.6175826,1.87276065 65.3035059,3.04089278 64.3905097,3.56865427 C63.4775134,4.09491431 62.3104074,3.78035945 61.7849473,2.86522252 C61.2594873,1.95083632 61.573564,0.782704189 62.4858106,0.254942694 C63.3995564,-0.271317345 64.5666625,0.0432375142 65.0921225,0.958374445" id="Fill-500" fill="#000000"></path>
                            </g>
                            <g id="Group-504" stroke="none" stroke-width="1" fill="none" transform="translate(0.000000, 65.411406)">
                                <line x1="63.4293208" y1="1.8958621" x2="1.13686838e-13" y2="38.538046" id="Path-2" stroke="url(#linearGradient-7)"></line>
                                <path d="M65.0921225,0.958374445 C65.6175826,1.87276065 65.3035059,3.04089278 64.3905097,3.56865427 C63.4775134,4.09491431 62.3104074,3.78035945 61.7849473,2.86522252 C61.2594873,1.95083632 61.573564,0.782704189 62.4858106,0.254942694 C63.3995564,-0.271317345 64.5666625,0.0432375142 65.0921225,0.958374445" id="Fill-500" fill="#000000"></path>
                            </g>
                            <g id="Group-504" opacity="0.300000012" stroke="none" stroke-width="1" fill="none" transform="translate(23.820508, 66.669736)">
                                <line x1="63.4293208" y1="1.8958621" x2="1.13686838e-13" y2="38.538046" id="Path-2" stroke="url(#linearGradient-7)"></line>
                                <path d="M65.0921225,0.958374445 C65.6175826,1.87276065 65.3035059,3.04089278 64.3905097,3.56865427 C63.4775134,4.09491431 62.3104074,3.78035945 61.7849473,2.86522252 C61.2594873,1.95083632 61.573564,0.782704189 62.4858106,0.254942694 C63.3995564,-0.271317345 64.5666625,0.0432375142 65.0921225,0.958374445" id="Fill-500" fill="#000000"></path>
                            </g>
                        </g>
                    </g>
                </g>
            </g>
        </g>
    </g>
</svg>