<?xml version="1.0" encoding="UTF-8"?>
<svg width="16px" height="16px" viewBox="0 0 16 16" version="1.1" xmlns="http://www.w3.org/2000/svg" xmlns:xlink="http://www.w3.org/1999/xlink">
    <title>comment</title>
    <g id="Page-1" stroke="none" stroke-width="1" fill="none" fill-rule="evenodd">
        <g id="Lab-new" transform="translate(-821.000000, -399.000000)">
            <g id="Group-4" transform="translate(80.000000, 368.000000)">
                <g id="Group-Copy-4" transform="translate(729.000000, 23.000000)">
                    <g id="comment" transform="translate(12.000000, 8.000000)">
                        <polygon id="Path" points="0 0 16 0 16 16 0 16"></polygon>
                        <path d="M14,2.5 C14.5522847,2.5 15,2.94771525 15,3.5 L15,12 C15,12.5522847 14.5522847,13 14,13 L10,13 L8.1767767,14.8232233 C8.07914562,14.9208544 7.92085438,14.9208544 7.8232233,14.8232233 L6.0732233,13.0732233 C6.02633921,13.0263392 5.96275073,13 5.89644661,13 L2,13 C1.44771525,13 1,12.5522847 1,12 L1,3.5 C1,2.94771525 1.44771525,2.5 2,2.5 L14,2.5 Z M13.5,3.5 L2.5,3.5 C2.25454011,3.5 2.05039163,3.67687516 2.00805567,3.91012437 L2,4 L2,11.5 C2,11.7454599 2.17687516,11.9496084 2.41012437,11.9919443 L2.5,12 L6.39644661,12 C6.46275073,12 6.52633921,12.0263392 6.5732233,12.0732233 L8,13.5 L9.4267767,12.0732233 C9.47366079,12.0263392 9.53724927,12 9.60355339,12 L13.5,12 C13.7454599,12 13.9496084,11.8231248 13.9919443,11.5898756 L14,11.5 L14,4 C14,3.72385763 13.7761424,3.5 13.5,3.5 Z M8,6.75 C8.55228475,6.75 9,7.19771525 9,7.75 C9,8.30228475 8.55228475,8.75 8,8.75 C7.44771525,8.75 7,8.30228475 7,7.75 C7,7.19771525 7.44771525,6.75 8,6.75 Z M4.5,6.75 C5.05228475,6.75 5.5,7.19771525 5.5,7.75 C5.5,8.30228475 5.05228475,8.75 4.5,8.75 C3.94771525,8.75 3.5,8.30228475 3.5,7.75 C3.5,7.19771525 3.94771525,6.75 4.5,6.75 Z M11.5,6.75 C12.0522847,6.75 12.5,7.19771525 12.5,7.75 C12.5,8.30228475 12.0522847,8.75 11.5,8.75 C10.9477153,8.75 10.5,8.30228475 10.5,7.75 C10.5,7.19771525 10.9477153,6.75 11.5,6.75 Z" id="Shape" fill="#868690" fill-rule="nonzero"></path>
                    </g>
                </g>
            </g>
        </g>
    </g>
</svg>