<?xml version="1.0" encoding="UTF-8"?>
<svg viewBox="0 0 32 32" version="1.1" xmlns="http://www.w3.org/2000/svg" xmlns:xlink="http://www.w3.org/1999/xlink">
    <title>logo-slack</title>
    <g id="Page-1" stroke="none" stroke-width="1" fill="none" fill-rule="evenodd">
        <g id="HOME-1" transform="translate(-558.000000, -103.000000)">
            <g id="menu" transform="translate(534.000000, 82.000000)">
                <g id="Group-11" transform="translate(24.000000, 16.000000)">
                    <g id="logo-slack" transform="translate(0.000000, 5.000000)">
                        <rect id="Rectangle" x="0" y="0" width="32" height="32"></rect>
                        <g id="Group" transform="translate(2.000000, 16.736842)" fill="#E01E5A" fill-rule="nonzero">
                            <path d="M5.89473684,2.94736842 C5.89473684,4.57497076 4.57497076,5.89473684 2.94736842,5.89473684 C1.31976608,5.89473684 0,4.57497076 0,2.94736842 C0,1.31976608 1.31976608,0 2.94736842,0 L5.89473684,0 L5.89473684,2.94736842 Z" id="Path"></path>
                            <path d="M7.36842105,2.94736842 C7.36842105,1.31976608 8.68818713,0 10.3157895,0 C11.9433918,0 13.2631579,1.31976608 13.2631579,2.94736842 L13.2631579,10.3157895 C13.2631579,11.9433918 11.9433918,13.2631579 10.3157895,13.2631579 C8.68818713,13.2631579 7.36842105,11.9433918 7.36842105,10.3157895 L7.36842105,2.94736842 Z" id="Path"></path>
                        </g>
                        <g id="Group" transform="translate(2.000000, 2.000000)" fill="#36C5F0" fill-rule="nonzero">
                            <path d="M10.3157895,5.89473684 C8.68818713,5.89473684 7.36842105,4.57497076 7.36842105,2.94736842 C7.36842105,1.31976608 8.68818713,0 10.3157895,0 C11.9433918,0 13.2631579,1.31976608 13.2631579,2.94736842 L13.2631579,5.89473684 L10.3157895,5.89473684 Z" id="Path"></path>
                            <path d="M10.3157895,7.36842105 C11.9433918,7.36842105 13.2631579,8.68818713 13.2631579,10.3157895 C13.2631579,11.9433918 11.9433918,13.2631579 10.3157895,13.2631579 L2.94736842,13.2631579 C1.31976608,13.2631579 0,11.9433918 0,10.3157895 C0,8.68818713 1.31976608,7.36842105 2.94736842,7.36842105 L10.3157895,7.36842105 Z" id="Path"></path>
                        </g>
                        <g id="Group" transform="translate(16.736842, 2.000000)" fill="#2EB67D" fill-rule="nonzero">
                            <path d="M7.36842105,10.3157895 C7.36842105,8.68818713 8.68818713,7.36842105 10.3157895,7.36842105 C11.9433918,7.36842105 13.2631579,8.68818713 13.2631579,10.3157895 C13.2631579,11.9433918 11.9433918,13.2631579 10.3157895,13.2631579 L7.36842105,13.2631579 L7.36842105,10.3157895 Z" id="Path"></path>
                            <path d="M5.89473684,10.3157895 C5.89473684,11.9433918 4.57497076,13.2631579 2.94736842,13.2631579 C1.31976608,13.2631579 0,11.9433918 0,10.3157895 L0,2.94736842 C0,1.31976608 1.31976608,0 2.94736842,0 C4.57497076,0 5.89473684,1.31976608 5.89473684,2.94736842 L5.89473684,10.3157895 Z" id="Path"></path>
                        </g>
                        <g id="Group" transform="translate(16.736842, 16.736842)" fill="#ECB22E" fill-rule="nonzero">
                            <path d="M2.94736842,7.36842105 C4.57497076,7.36842105 5.89473684,8.68818713 5.89473684,10.3157895 C5.89473684,11.9433918 4.57497076,13.2631579 2.94736842,13.2631579 C1.31976608,13.2631579 0,11.9433918 0,10.3157895 L0,7.36842105 L2.94736842,7.36842105 Z" id="Path"></path>
                            <path d="M2.94736842,5.89473684 C1.31976608,5.89473684 0,4.57497076 0,2.94736842 C0,1.31976608 1.31976608,0 2.94736842,0 L10.3157895,0 C11.9433918,0 13.2631579,1.31976608 13.2631579,2.94736842 C13.2631579,4.57497076 11.9433918,5.89473684 10.3157895,5.89473684 L2.94736842,5.89473684 Z" id="Path"></path>
                        </g>
                    </g>
                </g>
            </g>
        </g>
    </g>
</svg>
