<?xml version="1.0" encoding="UTF-8"?>
<svg viewBox="0 0 32 32" version="1.1" xmlns="http://www.w3.org/2000/svg" xmlns:xlink="http://www.w3.org/1999/xlink">
    <title>logo-wechat</title>
    <g id="Page-1" stroke="none" stroke-width="1" fill="none" fill-rule="evenodd">
        <g id="HOME-1" transform="translate(-558.000000, -178.000000)" fill-rule="nonzero">
            <g id="menu" transform="translate(534.000000, 82.000000)">
                <g id="Group-12" transform="translate(24.000000, 91.000000)">
                    <g id="logo-wechat" transform="translate(0.000000, 5.000000)">
                        <path d="M16,0 C7.164,0 0,7.164 0,16 C0,24.834 7.164,32 16,32 C24.836,32 32,24.834 32,16 C32,7.164 24.836,0 16,0 Z" id="Path" fill="#1AC165"></path>
                        <path d="M10.4807098,10.6370116 C10.1213538,10.6261032 9.78452673,10.8115885 9.60162574,11.121109 C9.41872475,11.4306296 9.41872475,11.8151517 9.60162574,12.1246722 C9.78452673,12.4341928 10.1213538,12.619678 10.4807098,12.6087696 C11.0135486,12.5925951 11.4371162,12.1559749 11.4371162,11.6228906 C11.4371162,11.0898064 11.0135486,10.6531861 10.4807098,10.6370116 L10.4807098,10.6370116 Z M15.6957419,10.6370116 C15.3363858,10.6261032 14.9995588,10.8115885 14.8166578,11.121109 C14.6337568,11.4306296 14.6337568,11.8151517 14.8166578,12.1246722 C14.9995588,12.4341928 15.3363858,12.619678 15.6957419,12.6087696 C16.2285807,12.5925951 16.6521483,12.1559749 16.6521483,11.6228906 C16.6521483,11.0898064 16.2285807,10.6531861 15.6957419,10.6370116 L15.6957419,10.6370116 Z M22.3330554,16.0863659 C21.90168,16.0863659 21.5519812,16.4360647 21.5519812,16.86744 C21.5519812,17.2988153 21.90168,17.6485141 22.3330554,17.6485141 C22.7644307,17.6485141 23.1141295,17.2988153 23.1141295,16.86744 C23.1141295,16.4360647 22.7644307,16.0863659 22.3330554,16.0863659 Z M24.0223552,22.7618249 L24.5745564,24.6364028 L22.3730173,23.5356332 C21.6827658,23.7536074 20.9362042,23.8734932 20.158763,23.8734932 C17.3123836,23.8734932 14.8928703,22.2786488 14.0954481,20.0970906 C13.7412401,20.1406855 13.3815827,20.1624829 13.0146595,20.1624829 C12.1250646,20.1639936 11.2404872,20.0292242 10.3917037,19.7628636 L7.78327944,21.0670757 L8.43901841,18.8473721 C6.65344666,17.6866596 5.5,15.8683917 5.5,13.8303332 C5.5,10.3427465 8.87496675,7.5 13.0128431,7.5 C16.8945998,7.5 20.1060859,10.0030701 20.4875407,13.1909423 C23.8279949,13.3380749 26.5,15.6776643 26.5,18.5276766 C26.5018114,20.2478561 25.5281934,21.784574 24.0223552,22.7618249 L24.0223552,22.7618249 Z M18.2551219,16.0863659 C17.976071,16.0863659 17.7182173,16.2352378 17.5786918,16.4769029 C17.4391664,16.7185681 17.4391664,17.0163119 17.5786918,17.2579771 C17.7182173,17.4996423 17.976071,17.6485141 18.2551219,17.6485141 C18.6864972,17.6485141 19.036196,17.2988153 19.036196,16.86744 C19.036196,16.4360647 18.6864972,16.0863659 18.2551219,16.0863659 L18.2551219,16.0863659 Z" id="Shape" fill="#FFFFFF"></path>
                    </g>
                </g>
            </g>
        </g>
    </g>
</svg>
